<?xml version="1.0" encoding="UTF-8"?>
<svg width="570px" height="493px" viewBox="0 0 570 493" version="1.1" xmlns="http://www.w3.org/2000/svg" xmlns:xlink="http://www.w3.org/1999/xlink">
    <title>8667BA95-A1F3-427A-B44F-E9EB66D5E901</title>
    <defs>
        <filter x="-44.4%" y="-68.7%" width="188.7%" height="237.4%" filterUnits="objectBoundingBox" id="filter-1">
            <feGaussianBlur stdDeviation="39.6" in="SourceGraphic"></feGaussianBlur>
        </filter>
        <linearGradient x1="99.5600399%" y1="52.5753785%" x2="-0.439960057%" y2="52.5753785%" id="linearGradient-2">
            <stop stop-color="#151327" offset="0%"></stop>
            <stop stop-color="#292059" offset="100%"></stop>
        </linearGradient>
        <linearGradient x1="78.4737466%" y1="8.2365553%" x2="39.8913907%" y2="64.8025728%" id="linearGradient-3">
            <stop stop-color="#ED1E79" offset="0%"></stop>
            <stop stop-color="#ED1E79" stop-opacity="0" offset="70%"></stop>
        </linearGradient>
        <linearGradient x1="86.2337402%" y1="20.2549778%" x2="4.56050471%" y2="76.0169009%" id="linearGradient-4">
            <stop stop-color="#7650A1" offset="0%"></stop>
            <stop stop-color="#7650A1" stop-opacity="0.1" offset="100%"></stop>
        </linearGradient>
        <linearGradient x1="97.6754612%" y1="6.85130726%" x2="20.9501363%" y2="89.7146304%" id="linearGradient-5">
            <stop stop-color="#7651A1" offset="0%"></stop>
            <stop stop-color="#7651A1" stop-opacity="0.85" offset="8%"></stop>
            <stop stop-color="#7651A1" stop-opacity="0.59" offset="22%"></stop>
            <stop stop-color="#7651A1" stop-opacity="0.38" offset="37%"></stop>
            <stop stop-color="#7651A1" stop-opacity="0.21" offset="52%"></stop>
            <stop stop-color="#7651A1" stop-opacity="0.09" offset="67%"></stop>
            <stop stop-color="#7651A1" stop-opacity="0.02" offset="83%"></stop>
            <stop stop-color="#7651A1" stop-opacity="0" offset="100%"></stop>
        </linearGradient>
        <linearGradient x1="51.122469%" y1="63.5370434%" x2="12.786364%" y2="12.6664391%" id="linearGradient-6">
            <stop stop-color="#ED1E79" offset="20%"></stop>
            <stop stop-color="#ED1E79" stop-opacity="0" offset="100%"></stop>
        </linearGradient>
        <linearGradient x1="72.7012431%" y1="24.8156269%" x2="47.3864349%" y2="68.4472792%" id="linearGradient-7">
            <stop stop-color="#49C7EA" offset="0%"></stop>
            <stop stop-color="#49C7EA" stop-opacity="0" offset="100%"></stop>
        </linearGradient>
        <linearGradient x1="85.8107938%" y1="30.2618837%" x2="24.8553137%" y2="64.027564%" id="linearGradient-8">
            <stop stop-color="#49C7EA" stop-opacity="0.1" offset="0%"></stop>
            <stop stop-color="#49C7EA" offset="100%"></stop>
        </linearGradient>
        <linearGradient x1="99.9991892%" y1="51.1882681%" x2="0.398342854%" y2="51.1882681%" id="linearGradient-9">
            <stop stop-color="#ED1E79" offset="0%"></stop>
            <stop stop-color="#ED1E79" stop-opacity="0" offset="100%"></stop>
        </linearGradient>
        <linearGradient x1="49.8875394%" y1="-0.106428259%" x2="49.8875394%" y2="100.042564%" id="linearGradient-10">
            <stop stop-color="#ED1E79" offset="0%"></stop>
            <stop stop-color="#ED1E79" stop-opacity="0" offset="100%"></stop>
        </linearGradient>
        <path d="M2.8514218,10.388397 C5.61327014,10.388397 6.91208531,8.95345293 6.91208531,7.26440421 C6.91208531,5.8444075 6.07606635,4.91767281 4.29952607,4.25999013 C3.0007109,3.76672811 2.43341232,3.48272877 2.43341232,2.83999342 C2.43341232,2.31683673 2.91113744,1.86841672 3.8964455,1.86841672 C4.88175355,1.86841672 5.59834123,2.15241606 6.0014218,2.3467314 L6.50900474,0.508209348 C5.91184834,0.23915734 5.07582938,0 3.94123223,0 C1.56753555,0 0.13436019,1.31536537 0.13436019,3.03430876 C0.13436019,4.49914747 1.22417062,5.42588216 2.89620853,6.00882818 C4.10545024,6.44230086 4.58317536,6.80103687 4.58317536,7.42882488 C4.58317536,8.08650757 4.03080569,8.51998025 2.98578199,8.51998025 C2.01540284,8.51998025 1.07488152,8.20608624 0.462796209,7.89219223 L2.27373675e-13,9.77555629 C0.567298578,10.0894503 1.70189573,10.388397 2.8514218,10.388397 Z M14.8691943,10.2389236 L14.8691943,8.37050691 L10.7338863,8.37050691 L10.7338863,5.97893351 L14.4362559,5.97893351 L14.4362559,4.12546412 L10.7338863,4.12546412 L10.7338863,2.03283739 L14.6601896,2.03283739 L14.6601896,0.164420671 L8.44976303,0.164420671 L8.44976303,10.2389236 L14.8691943,10.2389236 Z M22.706872,10.2389236 L22.706872,8.32566491 L18.7059242,8.32566491 L18.7059242,0.164420671 L16.4218009,0.164420671 L16.4218009,10.2389236 L22.706872,10.2389236 Z M30.4699052,10.2389236 L30.4699052,8.37050691 L26.3345972,8.37050691 L26.3345972,5.97893351 L30.0369668,5.97893351 L30.0369668,4.12546412 L26.3345972,4.12546412 L26.3345972,2.03283739 L30.2609005,2.03283739 L30.2609005,0.164420671 L24.0504739,0.164420671 L24.0504739,10.2389236 L30.4699052,10.2389236 Z M36.8296209,10.388397 C38.0537915,10.388397 38.9943128,10.164187 39.4123223,9.95492429 L39.0689573,8.17619157 C38.62109,8.35555958 37.8597156,8.50503292 37.1729858,8.50503292 C35.142654,8.50503292 33.9483412,7.23450955 33.9483412,5.21661949 C33.9483412,2.97451942 35.3516588,1.88336406 37.1580569,1.88336406 C37.964218,1.88336406 38.6061611,2.06273206 39.0689573,2.2570474 L39.5317536,0.448420013 C39.128673,0.23915734 38.2329384,0 37.0535545,0 C34.0080569,0 31.5597156,1.91325872 31.5597156,5.35114549 C31.5597156,8.22103357 33.3511848,10.388397 36.8296209,10.388397 Z M45.3390995,10.2389236 L45.3390995,2.07767939 L48.086019,2.07767939 L48.086019,0.164420671 L40.3528436,0.164420671 L40.3528436,2.07767939 L43.0549763,2.07767939 L43.0549763,10.2389236 L45.3390995,10.2389236 Z" id="path-11"></path>
        <linearGradient x1="49.5938206%" y1="-0.414807784%" x2="49.5938206%" y2="99.5851922%" id="linearGradient-12">
            <stop stop-color="#FFFFFF" offset="0%"></stop>
            <stop stop-color="#C2C2C2" offset="100%"></stop>
        </linearGradient>
        <linearGradient x1="50.0028865%" y1="98.792198%" x2="50.0028865%" y2="0.000744310443%" id="linearGradient-13">
            <stop stop-color="#0B75B0" offset="0%"></stop>
            <stop stop-color="#FFFFFF" offset="100%"></stop>
        </linearGradient>
    </defs>
    <g id="Final-try-1" stroke="none" stroke-width="1" fill="none" fill-rule="evenodd">
        <g id="Homepage---1680" transform="translate(-306.000000, -1486.000000)">
            <g id="Group-44-Copy" transform="translate(120.000000, 1401.000000)">
                <g id="Group-7-Copy" transform="translate(247.000000, 130.000000)">
                    <polygon id="Rectangle" fill="#342D59" opacity="0.558670771" filter="url(#filter-1)" transform="translate(223.811187, 201.583031) rotate(-10.000000) translate(-223.811187, -201.583031) " points="89.9244067 115.112383 357.70433 115.102528 357.697966 288.053678 89.9180433 288.063533"></polygon>
                    <g id="Step-Up---Rupay-Card-Copy" transform="translate(206.879623, 150.504032) rotate(-10.000000) translate(-206.879623, -150.504032) translate(17.879623, 31.004032)" fill-rule="nonzero">
                        <rect id="Card" fill="url(#linearGradient-2)" x="2.27373675e-13" y="0" width="377.685707" height="239" rx="16.8"></rect>
                        <g id="Your-Name" transform="translate(27.843047, 194.049433)" fill="#FFFFFF">
                            <polygon id="Path" points="4.90546875 6.17190939 8.02265625 0.164365097 9.8109375 0.164365097 5.69296875 7.66763177 5.69296875 12.1301441 4.11796875 12.1301441 4.11796875 7.66763177 0 0.164365097 1.8046875 0.164365097"></polygon>
                            <path d="M21.9827344,6.5335126 C21.9827344,7.70598362 21.7858594,8.72915635 21.3921094,9.60303078 C20.9983594,10.4769052 20.4405469,11.1439536 19.7186719,11.6041758 C18.9967969,12.0643981 18.1546094,12.2945092 17.1921094,12.2945092 C16.2514844,12.2945092 15.4175,12.0630284 14.6901562,11.6000667 C13.9628125,11.137105 13.3981641,10.4769052 12.9962109,9.61946729 C12.5942578,8.76202937 12.3878125,7.76899024 12.376875,6.64034991 L12.376875,5.77743315 C12.376875,4.62687748 12.5764844,3.61055329 12.9757031,2.72846061 C13.3749219,1.84636792 13.9395703,1.17110131 14.6696484,0.702660789 C15.3997266,0.234220263 16.2350781,0 17.1757031,0 C18.1327344,0 18.9762891,0.231480845 19.7063672,0.694442534 C20.4364453,1.15740422 20.9983594,1.8285617 21.3921094,2.70791497 C21.7858594,3.58726824 21.9827344,4.61044097 21.9827344,5.77743315 L21.9827344,6.5335126 Z M20.4159375,5.76099664 C20.4159375,4.34197797 20.1315625,3.25305921 19.5628125,2.49424034 C18.9940625,1.73542148 18.1983594,1.35601205 17.1757031,1.35601205 C16.1803906,1.35601205 15.3969922,1.73542148 14.8255078,2.49424034 C14.2540234,3.25305921 13.9600781,4.30636554 13.9436719,5.65415933 L13.9436719,6.5335126 C13.9436719,7.90870058 14.2321484,8.98940109 14.8091016,9.77561413 C15.3860547,10.5618272 16.1803906,10.9549337 17.1921094,10.9549337 C18.2092969,10.9549337 18.9967969,10.5837425 19.5546094,9.84136017 C20.1124219,9.09897782 20.3995312,8.03471382 20.4159375,6.64856817 L20.4159375,5.76099664 Z" id="Shape"></path>
                            <path d="M34.4334375,0.164365097 L34.4334375,8.30043739 C34.4279687,9.42907772 34.0738672,10.3522617 33.3711328,11.0699893 C32.6683984,11.7877169 31.7154687,12.1904113 30.5123437,12.2780727 L30.0939844,12.2945092 C28.7869531,12.2945092 27.7451562,11.9411243 26.9685937,11.2343544 C26.1920312,10.5275845 25.7982812,9.55509096 25.7873437,8.3168739 L25.7873437,0.164365097 L27.3459375,0.164365097 L27.3459375,8.26756437 C27.3459375,9.13322055 27.5838281,9.80574774 28.0596094,10.2851459 C28.5353906,10.7645441 29.2135156,11.0042432 30.0939844,11.0042432 C30.9853906,11.0042432 31.6676172,10.7659138 32.1406641,10.2892551 C32.6137109,9.81259628 32.8502344,9.1414388 32.8502344,8.27578263 L32.8502344,0.164365097 L34.4334375,0.164365097 Z" id="Path"></path>
                            <path d="M42.9794531,7.28959204 L40.1739844,7.28959204 L40.1739844,12.1301441 L38.5907812,12.1301441 L38.5907812,0.164365097 L42.5446875,0.164365097 C43.89,0.164365097 44.9249609,0.471179944 45.6495703,1.08480964 C46.3741797,1.69843933 46.7364844,2.59148969 46.7364844,3.76396072 C46.7364844,4.50908249 46.5355078,5.15832462 46.1335547,5.71168711 C45.7316016,6.26504961 45.1724219,6.67870177 44.4560156,6.9526436 L47.2614844,12.0315251 L47.2614844,12.1301441 L45.5716406,12.1301441 L42.9794531,7.28959204 Z M40.1739844,5.99932603 L42.5939062,5.99932603 C43.3759375,5.99932603 43.9980078,5.79660908 44.4601172,5.39117518 C44.9222266,4.98574127 45.1532812,4.44333645 45.1532812,3.76396072 C45.1532812,3.02431778 44.9331641,2.4572582 44.4929297,2.06278197 C44.0526953,1.66830573 43.4169531,1.4683282 42.5857031,1.46284936 L40.1739844,1.46284936 L40.1739844,5.99932603 Z" id="Shape"></path>
                            <polygon id="Path" points="65.6414062 12.1301441 64.0582031 12.1301441 58.0453125 2.90926221 58.0453125 12.1301441 56.4621094 12.1301441 56.4621094 0.164365097 58.0453125 0.164365097 64.0746094 9.4263383 64.0746094 0.164365097 65.6414062 0.164365097"></polygon>
                            <path d="M76.7139844,9.00720731 L71.7100781,9.00720731 L70.58625,12.1301441 L68.9620312,12.1301441 L73.5229687,0.164365097 L74.9010937,0.164365097 L79.4702344,12.1301441 L77.8542187,12.1301441 L76.7139844,9.00720731 Z M72.1858594,7.70872304 L76.2464062,7.70872304 L74.2120312,2.11209149 L72.1858594,7.70872304 Z" id="Shape"></path>
                            <polygon id="Path" points="84.7924219 0.164365097 88.6971094 9.92765185 92.6017969 0.164365097 94.644375 0.164365097 94.644375 12.1301441 93.069375 12.1301441 93.069375 7.47039365 93.2170312 2.44082169 89.2959375 12.1301441 88.0900781 12.1301441 84.1771875 2.46547645 84.3330469 7.47039365 84.3330469 12.1301441 82.7580469 12.1301441 82.7580469 0.164365097"></polygon>
                            <polygon id="Path" points="105.856406 6.59925864 100.680234 6.59925864 100.680234 10.8398781 106.693125 10.8398781 106.693125 12.1301441 99.1052344 12.1301441 99.1052344 0.164365097 106.611094 0.164365097 106.611094 1.46284936 100.680234 1.46284936 100.680234 5.30899263 105.856406 5.30899263"></polygon>
                        </g>
                        <g id="lines-design" transform="translate(170.330669, 99.328593)">
                            <path d="M59.1816782,17.858504 C59.6818685,17.8568188 60.0992747,18.2404843 60.1402758,18.7396099 L60.1402758,18.8340142 L60.1402758,104.930657 C60.1413599,105.43709 59.7492588,105.857225 59.2445367,105.890433 L59.1659635,105.890433 L48.1657141,105.733093 C47.6744583,105.719511 47.2702074,105.341745 47.2228356,104.851987 L47.2228356,30.6345408 L26.1809299,30.6345408 C25.6862508,30.636942 25.2709884,30.262063 25.2223367,29.7691689 L25.2223367,29.6904987 C25.2199385,29.195209 25.5943554,28.7794342 26.086642,28.7307225 L26.1809299,28.7307225 L48.1814287,28.7307225 C48.6847546,28.7283577 49.1070326,29.1102407 49.1557365,29.6118285 L49.1557365,103.845008 L58.2073704,103.986615 L58.2073704,19.8252584 L0.958929321,19.667918 C0.458738976,19.669603 0.0413327652,19.2859375 -2.27373675e-13,18.7868121 L-2.27373675e-13,18.7868121 C-0.00916540432,18.283006 0.378195066,17.860539 0.88035611,17.8270359 L0.88035611,17.8270359 L59.1816782,17.858504 Z" id="Path" fill="url(#linearGradient-3)"></path>
                            <path d="M190.901808,11.4075493 C191.401999,11.4058643 191.819405,11.7895298 191.860401,12.2886553 L191.860401,12.2886553 L191.938974,45.33013 C191.948991,45.828296 191.5706,46.2484848 191.074669,46.2899062 L147.98512,46.2899062 L148.110838,55.3212426 L195.679059,55.3212426 C196.176362,55.3269399 196.589556,55.7067342 196.637652,56.2023486 L196.637652,56.4383591 C196.631962,56.9362748 196.252636,57.3499792 195.757632,57.3981353 L195.663345,57.3981353 L147.13653,57.3981353 C146.641851,57.4005365 146.226588,57.0256575 146.177937,56.5327633 L146.177937,56.4383591 L146.036505,45.4245342 C146.026509,44.9176999 146.411912,44.4904771 146.916525,44.449024 L190.006073,44.449024 L190.006073,13.2956336 L180.92301,13.2956336 L180.95444,34.4107094 C180.956802,34.9146564 180.575388,35.3374554 180.07442,35.3862196 L179.980132,35.3862196 L71.0305183,35.3862196 L71.1248061,97.2839154 C71.1199575,97.7850743 70.7422541,98.2037621 70.2447862,98.2594256 L70.1033544,98.2594256 C69.602813,98.254571 69.1846414,97.8764014 69.1277944,97.3783196 L69.1277944,97.2839154 L69.1277944,34.4264434 C69.1105261,33.9222791 69.4911929,33.4926344 69.9933519,33.4509332 L70.1033544,33.4509332 L179.052968,33.4509332 L178.95868,12.2729213 C178.956318,11.7689742 179.33773,11.3461751 179.8387,11.2974111 L179.932988,11.2974111 L190.901808,11.4075493 Z" id="Path" fill="url(#linearGradient-4)"></path>
                            <path d="M136.104851,88.4571215 C136.599365,88.469796 137.008642,88.8459899 137.063444,89.3382275 L137.063444,89.4798338 L137.063444,133.535133 C137.029551,134.028522 136.632262,134.418452 136.138904,134.442548 C135.645546,134.466644 135.212238,134.117281 135.130543,133.629538 L135.130543,133.535133 L135.130543,90.471078 L104.078411,90.2350675 L104.078411,99.5496165 L125.104602,99.5496165 C125.599281,99.5472152 126.014543,99.9220943 126.063195,100.414988 L126.063195,122.521308 C126.057504,123.019224 125.678178,123.432929 125.183175,123.481085 L125.104602,123.481085 L95.1210645,123.245074 C94.6346664,123.182848 94.2702441,122.768389 94.2702441,122.277431 C94.2702441,121.786473 94.6346664,121.372013 95.1210645,121.309788 L95.2153524,121.309788 L124.224582,121.545798 L124.224582,101.406233 L103.104103,101.406233 C102.609424,101.408634 102.194161,101.033755 102.14551,100.540861 L102.14551,100.493659 L102.14551,89.2438232 C102.1512,88.7459074 102.530526,88.332203 103.02553,88.2840471 L103.104103,88.2840471 L136.104851,88.4571215 Z" id="Path" fill="url(#linearGradient-5)"></path>
                            <path d="M190.996096,77.4432966 C191.488876,77.4772316 191.878325,77.8750111 191.902392,78.3689782 C191.926458,78.8629451 191.577525,79.2967877 191.090384,79.378583 L190.996096,79.378583 L168.917021,79.378583 C168.410814,79.3885909 167.984118,79.0027123 167.942716,78.497477 L167.942716,78.4660089 L168.037004,68.4276942 L158.98537,68.3018219 L158.98537,111.444547 C158.97968,111.942463 158.600353,112.356168 158.10535,112.404324 L158.10535,112.404324 C157.604809,112.399469 157.186638,112.021299 157.131037,111.523218 L157.131037,67.2791096 C157.129954,66.7726759 157.522054,66.3525411 158.026777,66.3193334 L158.10535,66.3193334 L169.1056,66.4766738 C169.6055,66.4903108 170.01675,66.875069 170.064193,67.3735138 L170.064193,67.3735138 L169.969905,77.3960945 L190.996096,77.4432966 Z" id="Path" fill="url(#linearGradient-6)"></path>
                            <path d="M136.104851,44.3231518 C136.602153,44.328849 137.015347,44.7086433 137.063444,45.2042577 L137.063444,45.298662 L137.063444,67.3263117 C137.057754,67.8242274 136.678428,68.2379318 136.183424,68.2860879 L136.183424,68.2860879 L104.172698,68.2860879 L104.172698,77.3646264 L147.13653,77.2702222 C147.63672,77.2685371 148.054126,77.6522026 148.095373,78.1513282 L148.095373,78.1513282 L148.095373,122.285298 C148.099336,122.542561 148.000204,122.790746 147.819974,122.974156 C147.639745,123.157567 147.393511,123.260808 147.13653,123.260808 C146.635988,123.255954 146.217817,122.877784 146.162222,122.379702 L146.162222,122.521308 L146.162222,79.3628489 L103.214105,79.4572531 C102.713564,79.4523986 102.295392,79.074229 102.239416,78.5761471 L102.239416,67.5623223 C102.229781,67.0641561 102.608172,66.6439674 103.104103,66.6025461 L103.104103,66.6025461 L135.114829,66.6025461 L135.114829,46.4787146 L126.016051,46.4787146 L126.016051,56.4855612 C126.01036,56.9834769 125.631034,57.3971813 125.136031,57.4453374 L125.136031,57.4453374 C124.638122,57.4485239 124.21793,57.0753127 124.161723,56.5799654 L124.161723,45.4245342 C124.159325,44.9292446 124.533742,44.5134697 125.026028,44.4647581 L125.104602,44.4647581 L136.104851,44.3231518 Z" id="Path" fill="url(#linearGradient-7)"></path>
                            <path d="M202.106348,0 C202.612557,-0.00963453815 203.039254,0.376244095 203.080656,0.881479533 L203.080656,0.960149711 L202.986368,44.3860879 L206.710738,44.3860879 C207.210929,44.3844028 207.628335,44.7680683 207.669331,45.2671939 L207.669331,45.4245342 C207.663641,45.9224499 207.284315,46.3361543 206.789311,46.3843104 L206.695023,46.3843104 L201.980631,46.3843104 C201.483328,46.378613 201.070134,45.9988187 201.022038,45.5032044 L201.022038,45.4245342 L201.116325,2.01433009 L125.686043,2.43914905 L125.968907,22.5157785 L168.995597,22.5157785 C169.49011,22.528453 169.899389,22.9046469 169.95419,23.3968845 L169.95419,23.3968845 C169.955873,23.8976921 169.57268,24.3156134 169.07417,24.3566606 L125.104602,24.3566606 C124.609923,24.3590618 124.19466,23.9841828 124.146008,23.4912887 L124.146008,23.3968845 L123.830463,1.36923464 C123.813195,0.865070457 124.193862,0.435425623 124.696021,0.393724431 L124.790309,0.393724431 L202.106348,0 Z" id="Path" fill="url(#linearGradient-8)"></path>
                            <path d="M201.980631,66.4452057 C202.237612,66.4451711 202.483845,66.5484471 202.664075,66.7318574 C202.844304,66.9152678 202.943437,67.1634523 202.939606,67.4207159 C202.94924,67.9188819 202.570849,68.3390707 202.074919,68.3804921 L201.980631,68.3804921 L179.980132,68.3804921 C179.450715,68.406561 179.000431,67.9979878 178.974395,67.467918 C178.948357,66.9378483 179.356427,66.4870087 179.885844,66.4609398 L180.105849,66.4609398 L201.980631,66.4452057 Z" id="Path" fill="url(#linearGradient-9)"></path>
                            <path d="M115.015801,45.4245342 L115.015801,45.33013 C114.967705,44.8345156 114.55451,44.4547213 114.057208,44.449024 L81.0564599,44.2130135 L80.9778867,44.2130135 C80.4766776,44.2535736 80.0886279,44.6693672 80.0821521,45.1727897 L80.0821521,108.108932 L80.0821521,108.203336 C80.1302487,108.69895 80.5434433,109.078745 81.0407453,109.084442 L81.1036038,109.084442 C81.6021141,109.043395 81.9853067,108.625473 81.9836238,108.124666 L82.062197,46.1168318 L113.130044,46.3528423 L113.130044,55.494317 L91.9781361,55.494317 C91.4796259,55.5353641 91.0964333,55.9532854 91.0981162,56.4540932 L91.0981162,117.250407 L91.0981162,117.250407 C91.1391127,117.749532 91.556519,118.133197 92.0567093,118.131524 L92.1509972,118.131524 C92.6460006,118.083356 93.0253267,117.669652 93.0310172,117.171736 L93.0310172,57.3824013 L114.104352,57.3824013 C114.599356,57.3342452 114.978682,56.9205408 114.984372,56.4226251 L115.015801,45.4245342 Z" id="Path" fill="url(#linearGradient-10)"></path>
                        </g>
                        <g id="Credit" transform="translate(311.254759, 211.619421)" fill="#FFFFFF">
                            <path d="M7.12388898,9.97873542 C6.26879244,10.29037 5.36185331,10.4345913 4.45239983,10.4035544 C3.27404839,10.5098378 2.10753794,10.0994878 1.25452988,9.27862433 C0.401521827,8.45775924 -0.05422165,7.30698762 0.00515612503,6.12389671 C-0.0577857308,4.12108615 0.901502022,2.22385884 2.55092814,1.08900533 C3.63825094,0.349412832 4.92979337,-0.0302746205 6.24386902,0.00335688054 C7.00160706,-0.0249407824 7.75533787,0.1259911 8.44391891,0.443909876 L7.86247715,2.19038782 C7.28360003,1.95731011 6.66332896,1.84488099 6.03957867,1.85997308 C5.20608506,1.84319587 4.3934762,2.12182991 3.74524093,2.64667485 C2.81150676,3.45827732 2.29689938,4.65086214 2.34663779,5.88788618 C2.27108651,6.62069416 2.53043467,7.34842477 3.05224251,7.86782102 C3.57405034,8.38721884 4.30239257,8.64261213 5.03384158,8.56267222 C5.68305745,8.57688163 6.32884595,8.46466491 6.93531327,8.23225747 L7.12388898,9.97873542 Z" id="Path"></path>
                            <path d="M11.2568398,0.365239698 C12.1405134,0.180575617 13.0413537,0.0909073479 13.9440436,0.0977610938 C14.8594828,0.0605925817 15.7689583,0.261141746 16.5841035,0.679920409 C17.2971365,1.07974113 17.7276156,1.84463396 17.6998431,2.66240889 C17.6837089,4.01968658 16.7423075,5.18976702 15.42122,5.49453529 L15.42122,5.49453529 C16.0183764,5.74627986 16.2698107,6.42284338 16.3798131,7.33541745 C16.4271975,8.2986614 16.5533358,9.25639686 16.7569646,10.1990119 L14.5569147,10.1990119 C14.3916611,9.41143375 14.2917945,8.61151224 14.2583365,7.80743851 C14.1640486,6.59591778 13.7397533,6.23403496 12.8911626,6.23403496 L12.2311476,6.23403496 L11.4925595,10.214746 L9.32393886,10.214746 L11.2568398,0.365239698 Z M12.5454405,4.6606314 L13.4411751,4.6606314 C13.9352057,4.71768931 14.4310734,4.57018115 14.8138444,4.25229857 C15.1966153,3.93441441 15.4330562,3.47375331 15.4683639,2.9770896 C15.4683639,2.15891975 14.7769197,1.81277097 13.8968997,1.81277097 C13.620289,1.77916622 13.3406344,1.77916622 13.0640237,1.81277097 L12.5454405,4.6606314 Z" id="Shape"></path>
                            <polygon id="Path" points="25.6671666 5.98229039 22.0842282 5.98229039 21.6285036 8.4210659 25.6357373 8.4210659 25.3057298 10.2619481 19.1298755 10.2619481 21.0470618 0.176431272 27.0029112 0.176431272 26.6414744 2.01731343 22.8542457 2.01731343 22.4299503 4.1728763 26.0128887 4.1728763"></polygon>
                            <path d="M29.7529735,0.318037592 C30.672695,0.169689237 31.6028871,0.0960240563 32.5344652,0.0977610938 C33.8525324,0.0108683091 35.1578094,0.401816611 36.2116914,1.19914358 C37.1166772,1.9865235 37.6093313,3.14713991 37.547436,4.34595069 C37.6118157,6.15724972 36.8411776,7.89767635 35.4573886,9.06616136 C34.0546022,10.0612022 32.3463358,10.5291875 30.6329935,10.3878203 C29.7132013,10.401981 28.7937125,10.3441128 27.8829311,10.214746 L29.7529735,0.318037592 Z M30.3501299,8.51547011 C30.6638052,8.54337285 30.9793332,8.54337285 31.2930085,8.51547011 C32.3728998,8.56011544 33.4181215,8.12885969 34.1530733,7.33541745 C34.8637743,6.48746464 35.2335335,5.4048623 35.1902397,4.29874859 C35.2609509,3.58470816 34.9989328,2.87790381 34.4800479,2.38297084 C33.9611614,1.88803787 33.2433605,1.66025467 32.5344652,1.76556886 C32.2313612,1.73609429 31.92612,1.73609429 31.6230159,1.76556886 L30.3501299,8.51547011 Z" id="Shape"></path>
                            <polygon id="Path" points="43.1889925 0.176431272 41.2718062 10.23048 39.1817588 10.23048 41.0989451 0.1449632"></polygon>
                            <polygon id="Path" points="47.7148094 2.06451554 45.0590349 2.06451554 45.4361863 0.176431272 52.9163559 0.176431272 52.5549192 2.06451554 49.8677154 2.06451554 48.2962512 10.2619481 46.1433452 10.2619481"></polygon>
                        </g>
                        <g id="Rupay-Logo" transform="translate(275.006236, 176.910836)">
                            <polygon id="Path" fill="#038141" points="84.2776253 1.74913761 89.3063108 11.7717183 78.7146421 21.7942989"></polygon>
                            <polygon id="Path" fill="#F27024" points="80.7732602 1.74913761 85.8176603 11.7717183 75.2259915 21.7942989"></polygon>
                            <path d="M0,18.1912048 L5.01297082,0.0498617666 L13.0588675,0.0498617666 C14.8304279,-0.154729471 16.6171858,0.274399041 18.1032676,1.2613825 C18.998677,2.40381666 19.1863648,3.94960227 18.5904216,5.27356157 C18.3357673,6.28769883 17.8518899,7.22973015 17.1761038,8.02701779 C16.4832169,8.79831595 15.615566,9.39185254 14.6460464,9.7577617 C15.3890535,9.87164937 16.0259884,10.3499404 16.3432277,11.0322186 C16.6165368,11.9296408 16.6165368,12.8882526 16.3432277,13.7856748 L15.7303567,16.3188545 L15.7303567,16.3188545 C15.541781,17.0426202 15.6046396,17.420237 15.8875031,17.4517051 L15.6989274,18.1282686 L10.2773759,18.1282686 C10.2773759,17.6877156 10.2773759,17.3100988 10.3559491,16.9954181 C10.3884926,16.7411513 10.4357151,16.4889851 10.4973809,16.2401843 L11.0002494,14.4307703 C11.2507015,13.7937291 11.2507015,13.085323 11.0002494,12.4482818 C10.7645298,12.0549309 10.230232,11.8661225 9.42878523,11.8661225 L7.15016214,11.8661225 L5.40583687,18.1597367 L0,18.1912048 Z M8.18732851,7.83820936 L10.623098,7.83820936 C11.2742091,7.88515186 11.9258623,7.75466006 12.5088551,7.46059251 C12.9470532,7.14603295 13.2546217,6.6813109 13.3731604,6.15466756 C13.5460215,5.52530614 13.4988775,5.06901911 13.2474433,4.81727454 C12.6993134,4.49025048 12.0572807,4.35725225 11.4245448,4.43965768 L9.13020703,4.43965768 L8.18732851,7.83820936 Z" id="Shape" fill="#FFFFFF"></path>
                            <path d="M33.4879022,4.77007243 L29.8578199,18.1912048 L25.3634323,18.1912048 L25.9134447,16.2244503 C25.2054876,16.9327415 24.3883702,17.5224296 23.4933899,17.9709283 C22.6869757,18.3507526 21.8073691,18.5494451 20.9161886,18.5530876 C20.2589441,18.5695029 19.6072123,18.429289 19.0147169,18.1440026 C18.5050958,17.8784877 18.0965701,17.4528757 17.8518334,16.9324819 C17.6053885,16.3852789 17.5026147,15.7841223 17.5532552,15.186004 C17.6959881,14.0189413 17.9378223,12.8661841 18.2761287,11.7402502 L20.2090297,4.8015405 L25.1277126,4.8015405 L23.2105263,11.7087821 C22.9534945,12.3801975 22.882898,13.1087809 23.006236,13.8171429 C23.1476677,14.2104938 23.5248192,14.4150362 24.1376902,14.4150362 C24.7315921,14.4127926 25.2989787,14.1685154 25.7091544,13.7384727 C26.203746,13.1453908 26.5534801,12.4450594 26.7306061,11.6930481 L28.6320778,4.8015405 L33.4879022,4.77007243 Z" id="Path" fill="#FFFFFF"></path>
                            <path d="M31.696433,18.1912048 L36.7251185,0.0498617666 L43.6238463,0.0498617666 C44.8142651,0.0215405026 46.0044213,0.116448205 47.1753555,0.333074407 C47.9020351,0.473352774 48.5824665,0.792361918 49.1554003,1.2613825 C49.7625088,1.82242045 50.1660671,2.56964868 50.3025692,3.3854773 C50.4346728,4.38325903 50.3488866,5.39786202 50.0511349,6.35921002 C49.6131427,8.21961969 48.5679839,9.88064767 47.0810676,11.0794207 C45.5614334,12.1747975 43.7190346,12.728752 41.8480918,12.6528242 L38.7051634,12.6528242 L37.1336992,18.2069388 L31.696433,18.1912048 Z M39.8523323,8.20009218 L41.5809429,8.20009218 C42.3933914,8.25941264 43.2080071,8.11897379 43.9538538,7.79100726 C44.4493129,7.45883187 44.793803,6.94428643 44.912447,6.35921002 C45.1167373,5.66691246 45.0695934,5.16342332 44.7710152,4.89594472 C44.1084105,4.53656518 43.3501853,4.39353493 42.6023946,4.48685979 L40.8580693,4.48685979 L39.8523323,8.20009218 Z" id="Shape" fill="#FFFFFF"></path>
                            <path d="M55.8341232,18.1912048 L55.8341232,16.9010138 C55.1087872,17.4602156 54.2964879,17.8961019 53.429783,18.1912048 C52.6020001,18.4837729 51.7304236,18.6327616 50.8525817,18.6317578 C49.7511534,18.7499314 48.6594934,18.3349383 47.9139436,17.5146412 C47.3366395,16.5657939 47.2377222,15.4006272 47.6467947,14.3678341 C47.917701,13.1826002 48.6103914,12.1366897 49.5954103,11.4255695 C51.02282,10.6370441 52.6048963,10.1698912 54.2312297,10.0567084 L55.3469693,9.91510206 C56.9184335,9.72629363 57.8455974,9.30147467 58.0341731,8.60917711 C58.1674128,8.31553123 58.0905117,7.96904731 57.8455974,7.75953919 C57.4497251,7.55173978 57.0018516,7.46424281 56.5569968,7.50779462 C56.1162608,7.48774159 55.6792837,7.59711988 55.2998254,7.82247533 C54.9473947,8.06882312 54.6830445,8.42172495 54.5455226,8.8294536 L49.7368421,8.8294536 C50.1284196,7.3845153 51.0860447,6.15905736 52.3926166,5.43090192 C54.0058755,4.59440979 55.8107791,4.19825195 57.6255924,4.28231733 C58.5458827,4.26834393 59.4643501,4.36876012 60.3599401,4.581264 C61.0061545,4.715672 61.6133808,4.99544833 62.1356947,5.39943385 C62.5769964,5.77357191 62.8719995,6.29185891 62.9685707,6.86269916 C63.0374008,7.6398315 62.9409962,8.42274609 62.6857072,9.15986835 L60.674233,16.6178012 C60.6130716,16.8338216 60.6130716,17.0626103 60.674233,17.2786307 C60.7058461,17.4622548 60.8002974,17.6291394 60.9413819,17.7506518 L60.8313794,18.1282686 L55.8341232,18.1912048 Z M57.028436,12.2122712 C56.3602683,12.4616463 55.6781413,12.67179 54.9855326,12.8416327 C53.6655026,13.2035155 52.9111998,13.6755366 52.7540534,14.2576959 C52.629958,14.5551148 52.6717715,14.8960194 52.8640559,15.1545359 C53.1256984,15.3888188 53.4732528,15.502911 53.822649,15.4692166 C54.5247572,15.505976 55.2165739,15.2881194 55.7712647,14.8555892 C56.3323937,14.3337526 56.7215589,13.6532446 56.8870042,12.9045688 C56.8870042,12.7000263 56.9812921,12.55842 56.9970067,12.4640158 C57.0113778,12.3807183 57.0113778,12.2955688 56.9970067,12.2122712" id="Shape" fill="#FFFFFF"></path>
                            <path d="M60.8156648,23.4306386 L61.9156897,19.4656616 L63.3142928,19.4656616 C63.7042533,19.4868381 64.0919398,19.3938987 64.4300324,19.198183 C64.7047684,18.9793383 64.898401,18.6746849 64.9800449,18.3328111 C65.0304622,18.1423223 65.0620439,17.9473304 65.0743328,17.7506518 C65.1057762,17.5104229 65.1057762,17.267115 65.0743328,17.0268861 L64.3357446,4.77007243 L69.3172861,4.77007243 L69.2387129,12.8888348 L73.5916687,4.77007243 L78.2274882,4.77007243 L70.5273135,18.0810665 C69.6630082,19.5757999 68.9558493,20.5985122 68.6258419,21.1492034 C68.2990166,21.621042 67.9135286,22.0493036 67.478673,22.4236603 C67.0166531,22.8089208 66.4823584,23.0977961 65.9072088,23.2732982 C65.0475786,23.4741637 64.1649484,23.5588316 63.2828636,23.5250428 L62.1356947,23.5250428 L60.8156648,23.5250428" id="Path" fill="#FFFFFF"></path>
                        </g>
                        <g id="SELECT" transform="translate(308.808431, 108.663183)">
                            <use fill="#000000" xlink:href="#path-11"></use>
                            <use fill="#FFFFFF" xlink:href="#path-11"></use>
                        </g>
                        <g id="Contactless" transform="translate(338.461961, 67.782225)" fill="#FFFFFF">
                            <path d="M19.1718633,31.3421988 C18.7739921,31.2552283 18.4185537,31.0328055 18.1661262,30.7128374 C17.7238832,30.2043783 17.65436,29.4703142 17.9932652,28.8876893 C18.2446994,28.3842001 18.5432776,27.880711 18.7947119,27.3142857 C19.9408656,24.9890819 20.7403386,22.5081899 21.1676228,19.9507571 C21.3422078,18.9096218 21.4524209,17.8586864 21.4976303,16.80395 C21.4976303,15.8756419 21.4976303,14.9473338 21.4976303,14.0347597 C21.3330367,11.5067403 20.8037236,9.01590084 19.9261661,6.639763 C19.4219666,5.24482967 18.7962079,3.896999 18.0561237,2.6118499 C17.748651,2.13536808 17.6963967,1.53748244 17.9165447,1.01477449 C18.1366927,0.492066385 18.6007539,0.11217266 19.1561487,0 L19.8318783,0 C20.3384429,0.107111335 20.7739538,0.428410253 21.0261911,0.881105991 C22.1073836,2.77259085 22.9769454,4.77768773 23.619107,6.8600395 C24.3891826,9.31855446 24.8278333,11.8690402 24.9234223,14.4438446 C24.9783528,15.8667097 24.9310879,17.2916874 24.7819905,18.7077683 C24.6454869,19.9079511 24.4461608,21.1001331 24.1848341,22.2793943 C23.5464629,25.0332441 22.5199621,27.6821335 21.1361936,30.1464121 C20.9153526,30.7295045 20.431406,31.1731827 19.8318783,31.3421988 L19.1718633,31.3421988 Z" id="Path"></path>
                            <path d="M0,10.3687294 C0.0805893989,9.96734207 0.29706645,9.6061012 0.61287104,9.34601712 C0.983403442,9.04634117 1.46349204,8.9180696 1.93388314,8.99306509 C2.40427423,9.06806059 2.82082696,9.33928578 3.08006984,9.73936801 C3.811434,10.8099308 4.3437895,12.0038799 4.65153405,13.263792 C4.87066059,14.1697665 4.96581903,15.1013517 4.93439761,16.0329822 C4.87252749,18.0141294 4.25734482,19.9382627 3.15864305,21.5870968 C2.81712617,22.2082537 2.10284225,22.5239574 1.41431778,22.3580645 C0.748852981,22.2391992 0.221116014,21.7294607 0.0785732103,21.0678736 L0.0785732103,20.3283739 C0.160069344,20.0498873 0.281838962,19.784844 0.440009978,19.5416722 C1.94118102,17.1347016 1.94118102,14.081625 0.440009978,11.6746544 C0.265486306,11.4251377 0.132787154,11.1487847 0.0471439262,10.8564845 L0,10.3687294 Z" id="Path"></path>
                            <path d="M17.9618359,15.6868334 C17.9583629,19.0714553 17.2239454,22.4153023 15.8089299,25.4891376 C15.5103517,26.134233 15.1803442,26.7793285 14.8189075,27.3929559 C14.4351763,28.0721609 13.6355761,28.3983232 12.8870374,28.1809792 C12.1384987,27.963635 11.6372425,27.2597586 11.675979,26.4803818 C11.6894324,26.1858397 11.7758377,25.8992715 11.9274133,25.6464779 C12.6411676,24.413437 13.2156667,23.104704 13.6403093,21.7444371 C14.0462201,20.4700405 14.3200509,19.1571984 14.4574707,17.8266623 C14.5541597,17.028036 14.5961634,16.2237222 14.5831878,15.4193548 C14.547371,12.7082584 13.9647459,10.032366 12.8702918,7.55233706 C12.5717136,6.89150757 12.2259915,6.24641211 11.8802694,5.61705069 C11.6187322,5.14597272 11.5982701,4.57799796 11.8252304,4.08927804 C12.0521891,3.60055813 12.4991293,3.25017894 13.0274383,3.14680711 C13.7297225,2.9677047 14.4632631,3.29268066 14.8031928,3.93350889 C15.4695298,5.07892874 16.0373061,6.27904529 16.5003742,7.52086899 C17.0451489,9.02106617 17.4450803,10.570082 17.694687,12.1466754 C17.8046894,12.9491113 17.8989773,13.720079 17.9304066,14.5697169 C17.9304066,14.9315997 17.9304066,15.3092166 17.9304066,15.6710994" id="Path"></path>
                            <path d="M11.2988276,15.6081633 C11.2937047,18.4794355 10.598393,21.3072907 9.27163881,23.8527979 L8.97306061,24.4034891 C8.60116732,25.0271511 7.87720791,25.3486073 7.16587678,25.205925 C6.45417321,25.0586989 5.91994295,24.4664994 5.84584684,23.7426596 C5.79213106,23.3832767 5.86431469,23.0163563 6.05013719,22.7042133 C6.65762282,21.6294064 7.12752048,20.4822882 7.44874033,19.2899276 C7.6675573,18.4603694 7.8095878,17.6123938 7.87303567,16.7567479 C7.92788291,16.0602864 7.92788291,15.3605826 7.87303567,14.6641211 C7.7456795,12.7813537 7.24906852,10.9421586 6.41157396,9.2516129 C6.28585682,8.9841343 6.1287104,8.71665569 5.98727862,8.44917709 C5.71683906,7.93159372 5.73087224,7.31121344 6.02444061,6.80642027 C6.31800741,6.30162709 6.84995433,5.98318831 7.43302569,5.96319947 C8.07867276,5.88908776 8.70327792,6.22053686 9.0044899,6.79710336 C9.91159875,8.35643817 10.5641194,10.0508352 10.9373909,11.8162607 C11.1549569,12.799409 11.2864115,13.7996929 11.3302569,14.8057275 C11.3302569,15.0732061 11.3302569,15.3406847 11.3302569,15.6081633" id="Path"></path>
                        </g>
                        <g id="Step-Up" transform="translate(102.868047, 87.555203)">
                            <path d="M74.7859815,19.0743559 C77.004911,19.2089366 79.1814361,18.4237376 80.8046894,16.9030589 C82.3468788,15.1853798 83.1241753,12.9130993 82.9575954,10.6094447 L82.9575954,0.06764091 L79.5318034,0.06764091 L79.5318034,10.4835724 C79.5318034,14.1548474 77.9603392,15.9852403 74.8174108,15.9747509 C71.6744824,15.9642614 70.1030182,14.1338687 70.1030182,10.4835724 L70.1030182,0.130577052 L66.6300823,0.130577052 L66.6300823,10.6723809 C66.4603249,12.979249 67.2443771,15.2546693 68.7987029,16.9659951 C70.4219563,18.4866737 72.5984814,19.2718728 74.8174108,19.137292 M91.3020703,18.8698134 L91.3020703,13.4258371 L95.5293091,13.4258371 C96.9789581,13.4576132 98.4191139,13.1842355 99.7565478,12.6234013 C100.885406,12.1480559 101.844126,11.3417362 102.50661,10.3104981 C103.786263,8.12427836 103.786263,5.41640175 102.50661,3.23018206 C101.838813,2.20738289 100.881231,1.4074993 99.7565478,0.933012865 C98.4191139,0.372178675 96.9789581,0.0988009087 95.5293091,0.130577052 L87.8448491,0.130577052 L87.8448491,18.8068772 L91.3020703,18.8698134 Z M95.356448,10.5465086 L91.3020703,10.5465086 L91.3020703,3.0728417 L95.356448,3.0728417 C96.5802823,2.98134907 97.7975872,3.32083417 98.7979546,4.03261787 C99.5483335,4.74829558 99.973017,5.74058739 99.973017,6.77820707 C99.973017,7.81582675 99.5483335,8.80811856 98.7979546,9.52379628 C97.7975872,10.23558 96.5802823,10.5750651 95.356448,10.4835724" id="Shape" fill="#D8176E"></path>
                            <path d="M6.83586929,18.9484836 C8.11442656,18.984481 9.38693133,18.7596443 10.5759541,18.2876541 C11.4801564,17.9159191 12.2597115,17.2936885 12.8231479,16.493974 C13.3094051,15.7566505 13.5664302,14.8915426 13.5617361,14.0079964 C13.6159753,13.0542025 13.3071287,12.1152745 12.6974308,11.3804125 C12.1190749,10.7608782 11.4030399,10.286526 10.6073834,9.99581734 C9.5371567,9.58872922 8.43966308,9.25749757 7.3230232,9.0045731 C6.33838223,8.77779813 5.36768706,8.49411033 4.41581442,8.15493518 C3.7434655,7.90480351 3.1325558,7.5131242 2.62434522,7.00635059 C2.13053114,6.46123958 1.87085564,5.74342455 1.90147169,5.00812807 C1.88245336,3.94262988 2.38030642,2.93396634 3.23721626,2.30187396 C4.39583686,1.52980578 5.77761434,1.16456642 7.16587678,1.26342761 C8.06610105,1.272146 8.96043861,1.40990613 9.82165128,1.67251254 C10.7002277,1.92792723 11.5329183,2.32088996 12.2888501,2.83683117 L12.7917186,1.75118271 C12.0284754,1.1883418 11.1794213,0.75266463 10.2773759,0.460991799 C9.26071792,0.142151323 8.19968336,-0.0118885034 7.13444749,0.00470476783 C5.87084931,-0.0361110511 4.61275911,0.189016722 3.44150661,0.665534261 C2.54305542,1.0333444 1.77630865,1.66394929 1.24145672,2.47494835 C0.762455418,3.21480644 0.511090604,4.0792556 0.518583188,4.96092597 C0.465331766,5.93381 0.773162118,6.89206359 1.3828885,7.65144604 C1.95097705,8.31218129 2.6747622,8.82053775 3.48865054,9.13044539 C4.56916497,9.52278584 5.67094351,9.85372736 6.78872537,10.1216896 C7.7633613,10.3343414 8.72381555,10.6075942 9.66450486,10.9398595 C10.3398152,11.1840117 10.9519486,11.5764757 11.4559741,12.0884441 C11.9440952,12.6360127 12.198027,13.353549 12.163133,14.0866666 C12.1822992,15.1385698 11.6751639,16.130475 10.8116737,16.7299846 C9.61277352,17.4890133 8.20405926,17.847136 6.78872537,17.7526969 C5.58418328,17.7573008 4.38970391,17.5330595 3.26864555,17.0918674 C2.27224625,16.7220302 1.36663249,16.1425806 0.61287104,15.3925915 L0,16.4153038 C0.820628823,17.2336148 1.81406355,17.8572939 2.90720878,18.240452 C4.15146051,18.7154351 5.47283703,18.955497 6.80444001,18.9484836 M21.7804939,18.9485369 C22.3144693,18.9502548 22.8451917,18.8652345 23.3519581,18.696739 C23.8181958,18.548975 24.2470386,18.302086 24.6091295,17.9729734 L24.059117,17.0289312 C23.4595866,17.5511802 22.6847222,17.8266527 21.8904964,17.799899 C21.1748106,17.8508247 20.4714868,17.5931936 19.9575954,17.0918674 C19.4796948,16.5161 19.2431393,15.7773612 19.2975804,15.0307087 L19.2975804,6.06230845 L23.7291095,6.06230845 L23.7291095,4.91372386 L19.3447244,4.91372386 L19.3447244,1.84558693 L18.0246944,1.84558693 L18.0246944,4.88225579 L15.4632078,4.88225579 L15.4632078,6.03084038 L18.0246944,6.03084038 L18.0246944,15.1251129 C17.9081939,16.1621785 18.2695894,17.1959383 19.0066198,17.9338784 C19.7436503,18.6718183 20.7761359,19.0336598 21.8119232,18.9170155 M34.0222,18.9170155 C35.0416615,18.9293999 36.0527271,18.7312222 36.9922674,18.3348562 C37.8775048,17.9680138 38.6597517,17.3900571 39.2708905,16.6513144 L38.5637316,15.7702084 C38.0509239,16.4112424 37.3865921,16.914162 36.6308306,17.2334737 C35.8323324,17.5580922 34.9782944,17.7237662 34.1164879,17.7212288 C33.0800323,17.7348985 32.0556504,17.4973805 31.1307059,17.0289312 C30.2680093,16.5763293 29.5452833,15.8962374 29.0406585,15.0621768 C28.5168721,14.1867008 28.234861,13.1875841 28.2234971,12.1671142 L40.1351958,12.1671142 L40.1351958,11.7894974 C40.1570905,10.529482 39.8597345,9.28445815 39.2708905,8.17066922 C38.7499135,7.14674161 37.9627212,6.28247922 36.9922674,5.66895757 C35.9639547,5.06499245 34.7899631,4.7548068 33.5979047,4.77211754 C32.3945221,4.76021128 31.2104846,5.07561922 30.1721127,5.6846916 C29.1658365,6.29046487 28.3450235,7.16127388 27.7992018,8.20213729 C27.2048726,9.32580027 26.9022561,10.5810442 26.9191818,11.8524335 C26.8988037,13.1300684 27.2188384,14.3900624 27.8463457,15.5027298 C28.4485316,16.5595711 29.3291803,17.4304209 30.3921177,18.0201755 C31.5316559,18.6310606 32.808376,18.9398015 34.1007733,18.9170155 M38.9251684,11.0499977 L28.1763532,11.0499977 C28.2366002,10.1067837 28.5164471,9.19077031 28.9935146,8.37521168 C29.4387445,7.59783106 30.0918282,6.96028857 30.8792716,6.53432952 C31.6856866,6.08479727 32.596505,5.85681157 33.5193315,5.87350003 C35.3772633,5.84133966 37.1077975,6.8159664 38.0451484,8.42241379 C38.5380496,9.22996159 38.814126,10.1513521 38.8465952,11.0971998 M45.6196059,23.9676409 L45.6196059,15.6443361 C46.1690349,16.6540049 46.9914088,17.4882996 47.9925168,18.0516435 C49.0043999,18.6364976 50.1557849,18.9355747 51.324021,18.9170155 C52.556061,18.9359741 53.7709625,18.6264436 54.8441008,18.0201755 C55.8871586,17.4378631 56.7429544,16.5700961 57.3112996,15.5184638 C58.5183444,13.2238445 58.5183444,10.4810226 57.3112996,8.18640325 C56.729608,7.14474119 55.8770321,6.28024027 54.8441008,5.6846916 C53.7724928,5.07293531 52.5574987,4.7579503 51.324021,4.77211754 C50.1418988,4.7549141 48.9780429,5.06529565 47.9610876,5.66895757 C46.9579413,6.26179998 46.1453997,7.12994458 45.6196059,8.17066922 L45.6196059,4.88225579 L44.3467199,4.88225579 L44.3467199,23.999109 L45.6196059,23.9676409 Z M51.1983038,17.6740267 C50.1935622,17.691739 49.2035728,17.4303206 48.338239,16.918793 C47.4858312,16.4299047 46.7885975,15.7099953 46.3267648,14.8419003 C45.363235,12.9323849 45.363235,10.678078 46.3267648,8.76856257 C46.7923568,7.89913233 47.4883498,7.17505973 48.338239,6.67593584 C49.1940049,6.20390172 50.1585816,5.96517281 51.1354452,5.98363828 C52.1426091,5.97015075 53.1351993,6.22539299 54.0112247,6.72313795 C54.8689629,7.2173374 55.5712377,7.94228214 56.0384136,8.81576468 C57.0019427,10.7252801 57.0019427,12.979587 56.0384136,14.8891024 C55.5751632,15.7614055 54.8715747,16.4822452 54.0112247,16.9659951 C53.139429,17.4757822 52.1449122,17.7369611 51.1354452,17.7212288" id="Shape" fill="#48C6E9"></path>
                        </g>
                        <g id="SIM" transform="translate(45.917532, 80.511060)">
                            <path d="M5.94078655,0 C4.35297142,0.00410611126 2.83252668,0.642849896 1.71716896,1.77435567 C0.601811402,2.90586144 -0.0161114245,4.43644419 0,6.02613562 L0,27.1726794 C-0.00352148183,28.75422 0.619969199,30.2726439 1.73396179,31.3939127 C2.84795422,32.5151814 4.36119536,33.1474454 5.94078655,33.1516129 L35.7986065,33.1516129 C39.0904715,33.1429394 41.7548234,30.4686184 41.7548234,27.1726794 L41.7548234,6.02613562 C41.7670079,4.4349847 41.1455659,2.90445906 40.0277185,1.77341965 C38.9098711,0.642380235 37.3878403,0.00413773667 35.7986065,0 L5.94078655,0 Z" id="Path" fill="#D8D9D8"></path>
                            <rect id="Rectangle" fill="url(#linearGradient-12)" x="0.000651855662" y="0" width="41.70666" height="33.1516129" rx="7.875"></rect>
                            <path d="M7.7165411,33.1516129 L7.7165411,22.137788 L0.000651855662,22.137788 L0.000651855662,21.2881501 L7.7165411,21.2881501 L7.7165411,10.4473996 L0.000651855662,10.4473996 L0.000651855662,9.67643186 L7.7165411,9.67643186 L7.7165411,0 L8.47084392,0 L8.47084392,9.67643186 L14.1124004,9.67643186 C14.9901424,6.85364236 17.5718502,4.90863644 20.5239744,4.84608295 L20.5239744,0 L21.2782772,0 L21.2782772,4.90901909 C24.016577,5.1498392 26.3444366,7.00946611 27.1869826,9.62922976 L33.3942662,9.62922976 L33.3942662,0 L34.2271423,0 L34.2271423,9.67643186 L41.8958876,9.67643186 L41.8958876,10.4473996 L37.2443535,10.4473996 L37.2443535,21.2881501 L41.8173144,21.2881501 L41.8173144,22.0591178 L34.2271423,22.0591178 L34.2271423,33.0729427 L33.4728394,33.0729427 L33.4728394,22.0591178 L27.344129,22.0591178 C26.6675621,24.9437333 24.2250949,27.0724426 21.2782772,27.3457538 L21.2782772,33.1516129 L20.5239744,33.1516129 L20.5239744,27.3929559 C17.3670881,27.3375211 14.6527064,25.1386882 13.9395394,22.0591178 L8.47084392,22.0591178 L8.47084392,33.0729427 L7.7165411,33.1516129 Z M36.4743361,21.2881501 L36.4743361,10.4473996 L27.4069876,10.4473996 C27.4892346,10.8672553 27.5313306,11.2940035 27.5327047,11.7218565 C27.5379429,13.3289008 26.9820759,14.8872491 25.9612405,16.1273864 C26.9821328,17.3613623 27.5382531,18.9148526 27.5327047,20.5171824 C27.5228905,20.7755813 27.4966462,21.0330919 27.4541315,21.2881501 L36.4743361,21.2881501 Z M20.6496915,26.6377401 C23.0766171,26.6418725 25.2749175,25.2045523 26.2469607,22.9780461 C27.2190039,20.7515397 26.7796806,18.1598478 25.1283645,16.379131 L24.8769302,16.1273864 L25.1283645,15.8599078 C26.7796806,14.0791911 27.2190039,11.4874991 26.2469607,9.26099275 C25.2749175,7.03448653 23.0766171,5.59716633 20.6496915,5.60129876 C17.2710257,5.60129876 14.5296443,8.33903223 14.5209811,11.7218565 C14.501458,13.2508748 15.0632244,14.7301437 16.0924453,15.8599078 L16.328165,16.1273864 L16.0924453,16.379131 C15.0645861,17.5097332 14.5030319,18.9884435 14.5209811,20.5171824 C14.5296443,23.9000066 17.2710257,26.6377401 20.6496915,26.6377401 M13.7981076,21.2881501 C13.7555929,21.0330919 13.7293486,20.7755813 13.7195344,20.5171824 C13.7126487,18.9146225 14.2689274,17.3606895 15.2909986,16.1273864 C14.2689929,14.8879143 13.7129699,13.3291283 13.7195344,11.7218565 C13.7209085,11.2940035 13.7630045,10.8672553 13.8452515,10.4473996 L8.47084392,10.4473996 L8.47084392,21.2881501 L13.7981076,21.2881501 Z" id="Shape" fill="#828284"></path>
                        </g>
                        <g id="SBM-Logo" transform="translate(260.941631, 28.038051)">
                            <g id="Group-2" transform="translate(-0.000000, 0.000000)">
                                <polygon id="Path" fill="#FFFFFF" points="8.23447244 26.3859776 4.93439761 23.0818302 4.93439761 3.28841343 8.23447244 -9.10256423e-13"></polygon>
                                <polygon id="Path" fill="#FFFFFF" points="3.30007483 21.4454905 0 18.141343 0 8.24463463 3.30007483 4.94048716"></polygon>
                                <polygon id="Path" fill="#00B2E3" points="9.88450985 21.4454905 13.1845847 18.141343 13.1845847 8.24463463 9.88450985 4.94048716"></polygon>
                            </g>
                            <g id="Group-3" transform="translate(19.281866, 6.576210)">
                                <path d="M22.9433774,6.01101834 C23.6557473,5.36282564 24.0321617,4.42352653 23.9648291,3.46210458 C23.9648291,1.13346732 22.3933649,0.000616757901 19.3290097,0.000616757901 L13.2788725,0.000616757901 L13.2788725,13.1857385 L19.9261661,13.1857385 C23.2105263,13.1857385 25.0334248,11.7382073 25.0334248,9.12635738 C25.1112248,7.72453804 24.2521148,6.44070179 22.9276628,5.97955027 M19.5333001,5.2400506 L15.5889249,5.2400506 L15.5889249,2.09324349 L19.3761537,2.09324349 C21.4190571,2.09324349 21.5919182,2.80127509 21.5919182,3.52504072 C21.5919182,4.68935935 20.9319032,5.22431656 19.5333001,5.22431656 M15.5889249,7.3641454 L19.7375904,7.3641454 C22.3147917,7.3641454 22.6605138,8.24525139 22.6605138,9.09488931 C22.6605138,10.4480164 21.8119232,10.9987076 19.7218758,10.9987076 L15.5889249,10.9987076 L15.5889249,7.3641454 Z" id="Shape" fill="#FFFFFF"></path>
                                <path d="M43.2938389,12.6979834 L43.2938389,12.6979834 C43.1499902,8.59017118 42.7827704,4.49325316 42.1938139,0.425435718 L42.1938139,0.000616757901 L40.1037665,0.000616757901 L35.4836618,8.32392156 L30.7692691,0.000616757901 L28.6949364,0.000616757901 L28.6949364,0.425435718 C28.1059799,4.49325316 27.7387601,8.59017118 27.5949114,12.6979834 L27.5949114,13.2014726 L29.8735345,13.2014726 L29.8735345,12.7294515 C29.9521078,9.86585705 30.1878274,6.57744362 30.5021202,3.96559372 L34.7765029,11.4235266 L36.2065353,11.4235266 L40.4494887,3.98132775 C40.7637815,6.57744362 41.0152158,9.88159108 41.093789,12.7294515 L41.093789,13.2014726 L43.3724121,13.2014726 L43.2938389,12.6979834 Z" id="Path" fill="#FFFFFF"></path>
                                <path d="M7.07158892,5.64913552 L4.93439761,5.20858252 C3.3629334,4.86243374 2.75006236,4.45334882 2.75006236,3.63517897 C2.75006236,2.81700912 3.8500873,2.06177541 5.67298578,2.06177541 C6.80932569,2.08777292 7.9299211,2.33353981 8.97306061,2.78554105 L10.5445248,1.33800978 L10.2616613,1.18066942 C8.90256159,0.389675559 7.35490821,-0.0181040696 5.78298828,0.000616757901 C2.64005987,0.000616757901 0.581441756,1.41667996 0.581441756,3.6037109 C0.581441756,5.52326324 1.83861312,6.75051801 4.41581442,7.22253908 L6.63157895,7.69456014 C8.67448241,8.10364507 8.67448241,8.93754895 8.67448241,9.2679637 C8.67448241,10.4008143 7.5115989,11.0773778 5.531554,11.0773778 C4.1102872,11.04904 2.71784734,10.6707803 1.47717635,9.9759953 L0,11.3920585 L0.235719631,11.5493989 C1.84463026,12.6059016 3.7334548,13.1540626 5.65727114,13.1228024 C8.91020205,13.1228024 10.8588177,11.6438031 10.8588177,9.17355948 C10.8588177,7.23827311 9.69593415,6.13689062 7.08730357,5.58619938" id="Path" fill="#FFFFFF"></path>
                                <path d="M52.1254677,5.03550813 C51.2172054,5.06136026 50.3457091,5.40038498 49.6582689,5.9952843 L49.6582689,1.82576488 L48.6368172,1.82576488 L48.6368172,12.8395898 L48.6368172,12.8395898 C49.7620515,13.0872941 50.9105027,13.2138852 52.0626091,13.2172971 C53.1309219,13.2223658 54.1548896,12.7899591 54.896836,12.0203538 C55.6387824,11.2507484 56.0341863,10.2108712 55.9912696,9.14209141 C56.0483719,8.07095761 55.6571339,7.02443939 54.9116077,6.25410604 C54.1660815,5.48377285 53.1336908,5.05929453 52.0626091,5.08271024 M52.0626091,12.1944943 C51.2349724,12.2025638 50.4085629,12.1287802 49.5954103,11.9742178 L49.5954103,7.25400715 C50.2072238,6.52783892 51.1139508,6.11728413 52.0626091,6.13689062 C53.7463262,6.13689062 55.1112497,7.50349797 55.1112497,9.18929352 C55.1112497,10.8750891 53.7463262,12.2416964 52.0626091,12.2416964" id="Shape" fill="#00B2E3"></path>
                                <path d="M64.6028935,10.0074634 L64.6028935,5.16138042 L63.832876,5.16138042 L63.7228735,5.7278057 C62.9347764,5.24447784 62.0221737,5.00373498 61.0985283,5.03550813 C60.0330504,5.03052627 59.0116191,5.46079062 58.2701599,6.22691967 C57.5287022,6.99304873 57.1313449,8.02878237 57.1698678,9.09488931 C57.0905623,10.154162 57.4586589,11.1981718 58.1845748,11.9728389 C58.9104891,12.7475059 59.9276555,13.1817917 60.9885258,13.1700045 C62.0323568,13.2201706 63.0448826,12.8054439 63.7543028,12.037154 L63.9743078,13.0283982 L64.9486156,13.0283982 L64.9486156,12.9182599 C64.7619272,11.9586238 64.6567869,10.9848753 64.6343228,10.0074634 M61.0199551,12.1472922 C60.2357866,12.151935 59.4869368,11.8211763 58.9616827,11.2381771 C58.4364302,10.6551779 58.1847398,9.87539644 58.2698927,9.09488931 C58.2079456,8.30087986 58.482768,7.51745076 59.0270053,6.93661342 C59.5712443,6.35577607 60.3345908,6.03121832 61.1299576,6.04248641 C62.0091887,6.02843529 62.8729723,6.2747535 63.612871,6.75051801 L63.612871,10.5738886 C63.2196624,11.6386681 62.1446677,12.2909845 61.0199551,12.1472922" id="Shape" fill="#00B2E3"></path>
                                <path d="M70.2130207,5.03550813 C69.2660705,5.06627997 68.3597867,5.42812755 67.651534,6.05822044 L67.5415316,5.16138042 L66.7243702,5.16138042 L66.7243702,13.0283982 L67.7458219,13.0283982 L67.7458219,7.15960293 C68.3184823,6.453205 69.1786185,6.04283618 70.0873036,6.04248641 C70.7280524,5.94366156 71.377361,6.15763972 71.834228,6.61818108 C72.2910935,7.07872244 72.5004,7.73026806 72.3973559,8.37112367 L72.3973559,13.0913343 L73.4188077,13.0913343 L73.4188077,8.1193791 C73.4970509,7.26316892 73.1911481,6.4164344 72.5839359,5.80847347 C71.9767253,5.20051254 71.1310339,4.89423144 70.2758793,4.97257199" id="Path" fill="#00B2E3"></path>
                                <path d="M77.661761,8.32392156 L82.140434,5.17711445 L80.5689698,5.17711445 C80.2075331,5.41312499 77.2374657,7.39561347 76.6560239,7.8991026 L76.6560239,1.82576488 L75.6345722,1.82576488 L75.6345722,13.0283982 L76.6560239,13.0283982 L76.6560239,8.65433631 C77.2374657,9.39383598 80.6632577,12.6193133 81.0718384,13.0126642 L82.6433026,13.0126642 L77.661761,8.32392156 Z" id="Path" fill="#00B2E3"></path>
                            </g>
                        </g>
                        <g id="smart-Banking-by" transform="translate(280.474931, 21.807373)" fill="#FFFFFF">
                            <path d="M4.16438014,5.45971034 C4.19727875,6.05781437 3.9539438,6.63790041 3.50436518,7.03311389 C2.95498758,7.43494086 2.28168588,7.62993764 1.60289349,7.58380513 C1.31014228,7.61013164 1.01562474,7.61013164 0.722873535,7.58380513 C0.471696982,7.54090503 0.228153031,7.46139056 0,7.3477946 L0,6.51389072 C0.485532153,6.76719437 1.02399908,6.90197716 1.57146421,6.90724161 C2.00920656,6.9292455 2.44142208,6.80164027 2.79720629,6.54535879 C3.099611,6.30764772 3.26923013,5.93871196 3.25293091,5.55411455 C3.25779773,5.3095414 3.1676554,5.07262584 3.00149663,4.89328506 C2.72536051,4.62570324 2.41329915,4.39798847 2.07433275,4.21672153 C1.68402662,4.02687025 1.34055797,3.75283039 1.06859566,3.41428571 C0.872500499,3.13370585 0.773188675,2.79673064 0.785732103,2.45450955 C0.77370883,1.89862402 1.00301532,1.36482956 1.41431778,0.99124424 C1.87816687,0.598530107 2.4732898,0.39616319 3.08006984,0.42481896 C3.3760457,0.422589919 3.67130496,0.454263791 3.9600898,0.519223173 C4.25824527,0.594036624 4.54788498,0.699489907 4.82439511,0.833903884 L4.51010227,1.54193548 C4.28239711,1.42859017 4.04590589,1.33387709 3.80294338,1.25872284 C3.56645844,1.19928721 3.32386994,1.1676061 3.08006984,1.16431863 C2.70607551,1.14724154 2.33827745,1.26441243 2.04290347,1.49473338 C1.78882128,1.72163957 1.65029828,2.05103853 1.66575206,2.3915734 C1.65690471,2.54257184 1.68382861,2.69352607 1.74432527,2.8321264 C1.80281359,2.96397384 1.88850239,3.08193977 1.99575954,3.17827518 C2.20625403,3.35119585 2.4324883,3.50396091 2.67148915,3.63456221 C3.00987568,3.82607705 3.33065867,4.04721719 3.63008231,4.29539171 C3.786212,4.44676776 3.90928279,4.62892399 3.99151908,4.83034891 C4.08411447,5.0378607 4.12715687,5.26411566 4.11723622,5.49117841" id="Path"></path>
                            <path d="M8.43876278,7.48940092 L9.14592168,4.18525346 C9.1672433,3.97075151 9.1672433,3.75465995 9.14592168,3.540158 C9.15621791,3.35631161 9.10658321,3.17409197 9.0044899,3.02093483 C8.87618613,2.88182109 8.68964862,2.81178339 8.50162135,2.8321264 C8.2157893,2.83776233 7.93972232,2.93726878 7.71588925,3.11533904 C7.44005014,3.34187438 7.21059122,3.61970267 7.04015964,3.93350889 C6.83715004,4.34219779 6.68918883,4.77604619 6.60014966,5.2236998 L6.11299576,7.48940092 L5.31154901,7.48940092 L6.4272886,2.24996708 L7.10301821,2.24996708 L6.99301571,3.22547729 L6.99301571,3.22547729 C7.21222711,2.89892068 7.49562183,2.62053021 7.82589174,2.40730744 C8.07882519,2.24372508 8.37337102,2.15634422 8.67448241,2.15556287 C8.98523789,2.12976755 9.29109511,2.24532759 9.50735844,2.47024358 C9.7179095,2.71071393 9.83991013,3.01609551 9.85308057,3.33561554 L9.85308057,3.33561554 C10.0831806,2.98044344 10.3824943,2.6754099 10.7331005,2.43877551 C11.014457,2.25729285 11.341309,2.15911577 11.675979,2.15556287 C12.0170371,2.13497567 12.3517747,2.25426625 12.6031429,2.48597762 C12.8420369,2.73946646 12.9620198,3.08269784 12.9331504,3.43001975 C12.9262203,3.71542272 12.8946731,3.99969253 12.8388626,4.27965767 L12.1474183,7.42646478 L11.3302569,7.42646478 L12.0374158,4.12231731 C12.0881411,3.88928744 12.1196757,3.65248171 12.1317037,3.41428571 C12.1395531,3.24288385 12.0835509,3.07467049 11.9745572,2.94226465 C11.8318542,2.81730777 11.6450181,2.7549519 11.4559741,2.76919026 C11.1779255,2.77688577 10.9090212,2.87029434 10.6859566,3.03666886 C10.4148995,3.25132941 10.1903325,3.51900013 10.0259416,3.82337064 C9.82597438,4.20420951 9.68301357,4.61241427 9.6016463,5.03489138 L9.08306311,7.42646478 L8.43876278,7.48940092 Z" id="Path"></path>
                            <path d="M17.0975306,2.15551014 C17.3771145,2.15383134 17.6508007,2.23603837 17.8832627,2.3915734 C18.1208272,2.56286245 18.3058797,2.79718882 18.4175605,3.06813693 L18.4175605,3.06813693 L18.7318533,2.24996708 L19.3447244,2.24996708 L18.2289848,7.48940092 L17.6003991,7.48940092 L17.7261162,6.49815668 L17.7261162,6.49815668 C17.3328573,7.12213046 16.6691604,7.52433772 15.934647,7.58380513 C15.5285335,7.60386823 15.1372845,7.42846599 14.881766,7.11178407 C14.6109996,6.7382384 14.4777363,6.28236155 14.5046146,5.82159315 C14.4979453,5.18607972 14.6153871,4.55538689 14.8503367,3.96497696 C15.039288,3.45116519 15.3588688,2.99560728 15.7775006,2.64331797 C16.146636,2.33054863 16.6139612,2.1578709 17.0975306,2.15551014 M16.1860813,6.87577354 C16.5413988,6.85839671 16.8751134,6.69982784 17.1132452,6.43522054 C17.4352398,6.10690975 17.6866081,5.7160044 17.8518334,5.28663594 C18.0359556,4.83164917 18.13195,4.34574613 18.1346969,3.85483871 C18.1533675,3.56751036 18.0572709,3.28452461 17.867548,3.06813693 C17.6892623,2.8774132 17.4367814,2.77399842 17.1761038,2.78492429 C16.8238255,2.78695147 16.4881387,2.93506334 16.2489399,3.19400922 C15.9354783,3.50516346 15.7033982,3.8888387 15.5732103,4.31112574 C15.4149183,4.78803223 15.3353016,5.28757826 15.3374906,5.79012508 C15.3128579,6.0802297 15.3907209,6.36978662 15.5574956,6.60829493 C15.7153398,6.78873914 15.9467819,6.88722351 16.1860813,6.87577354" id="Shape"></path>
                            <path d="M23.5562484,2.15556287 C23.7438828,2.12887905 23.9343412,2.12887905 24.1219756,2.15556287 L23.9491145,2.87932851 C23.7823554,2.85522931 23.613005,2.85522931 23.4462459,2.87932851 C23.1552186,2.88268882 22.8734598,2.982256 22.6447992,3.16254115 C22.3607256,3.37422418 22.1294454,3.64887106 21.9690696,3.96497696 C21.7700829,4.31684003 21.6319434,4.69985413 21.5604889,5.09782752 L21.0419057,7.48940092 L20.240459,7.48940092 L21.3561986,2.24996708 L22.0319282,2.24996708 L21.9219257,3.22547729 L21.9219257,3.22547729 C22.0897722,2.98822644 22.2791525,2.76700983 22.4876528,2.56464779 C22.6297901,2.44304384 22.7885379,2.34237937 22.959092,2.26570112 C23.1314628,2.1869175 23.3197289,2.14921781 23.5091045,2.15556287" id="Path"></path>
                            <path d="M26.1177351,6.93870968 C26.3523971,6.92444677 26.5845213,6.88219035 26.8091793,6.81283739 L26.8091793,7.42646478 C26.6768966,7.47642459 26.540052,7.51331288 26.4005987,7.53660303 L26.0234472,7.53660303 C25.6902183,7.55874727 25.3604166,7.45800601 25.0962834,7.25339039 C24.8746362,7.02843396 24.7601692,6.71899394 24.7819905,6.40375247 C24.7864786,6.16492381 24.8181106,5.9273833 24.8762784,5.69572087 L25.4734348,2.81639236 L24.6562734,2.81639236 L24.6562734,2.45450955 L25.552008,2.09262673 L26.1491644,0.99124424 L26.604889,0.99124424 L26.3534547,2.20276498 L27.65777,2.20276498 L27.5320529,2.81639236 L26.2277376,2.81639236 L25.6148666,5.69572087 C25.5622759,5.90177883 25.5306848,6.11264402 25.5205787,6.32508229 C25.5109802,6.47968571 25.5616835,6.63198504 25.6620105,6.74990125 C25.767363,6.85013587 25.9098885,6.9015086 26.0548765,6.89150757" id="Path"></path>
                            <path d="M34.3993515,0.503489138 C35.78224,0.503489138 36.4736842,1.02795694 36.4736842,2.07689269 C36.488709,2.49603733 36.3359705,2.90384056 36.0493889,3.20974325 C35.7444462,3.54296763 35.3334188,3.759858 34.8865054,3.82337064 L34.8865054,3.82337064 C35.2155935,3.89518204 35.5098078,4.07859809 35.7193814,4.34259381 C35.9244512,4.60138267 36.0303506,4.92505428 36.0179596,5.25516787 C36.0404268,5.86485263 35.7720852,6.44892426 35.2950861,6.82857143 C34.7259583,7.22789071 34.0406915,7.42708454 33.3464704,7.39499671 L31.1307059,7.39499671 L32.6078823,0.409084924 L34.3993515,0.503489138 Z M32.0892991,6.79710336 L33.3621851,6.79710336 C33.837531,6.82853524 34.3091981,6.69519432 34.6979297,6.4194865 C35.0093577,6.14764643 35.177616,5.74681306 35.1536543,5.33383805 C35.17887,5.01185628 35.0506998,4.69686891 34.8079322,4.48420013 C34.5083011,4.26508024 34.1408959,4.15918153 33.7707658,4.18525346 L32.6550262,4.18525346 L32.0892991,6.79710336 Z M32.796458,3.49295589 L33.9907708,3.49295589 C34.4116513,3.51625485 34.8277483,3.39404923 35.1693689,3.14680711 C35.4667465,2.91899889 35.6363719,2.56175855 35.6250935,2.18703094 C35.6470689,1.90051636 35.5229107,1.6222955 35.2950861,1.44753127 C35.0022846,1.25557682 34.6538627,1.16697941 34.3050636,1.1957867 L33.2836119,1.1957867 L32.796458,3.49295589 Z" id="Shape"></path>
                            <path d="M40.1037665,2.15556287 C40.3836317,2.15185121 40.6578915,2.23423069 40.8894986,2.3915734 C41.1270632,2.56286245 41.3121156,2.79718882 41.4237965,3.06813693 L41.4237965,3.06813693 L41.7538039,2.24996708 L42.3509603,2.24996708 L41.2352208,7.48940092 L40.6066351,7.48940092 L40.7323522,6.49815668 L40.7323522,6.49815668 C40.3390933,7.12213046 39.6753964,7.52433772 38.940883,7.58380513 C38.5352504,7.6013253 38.1450935,7.4264127 37.888002,7.11178407 C37.6172356,6.7382384 37.4839723,6.28236155 37.5108506,5.82159315 C37.511762,5.186764 37.6289414,4.55748408 37.8565727,3.96497696 C38.0430222,3.44574419 38.3693603,2.988307 38.7994512,2.64331797 C39.1609116,2.32799814 39.6243568,2.15469058 40.1037665,2.15556287 M39.1923173,6.87577354 C39.5309663,6.87518917 39.8567528,6.74583872 40.1037665,6.51389072 C40.4257611,6.18557993 40.6771294,5.79467458 40.8423547,5.36530612 C41.0314946,4.91126339 41.1328147,4.42539402 41.1409329,3.93350889 C41.1515529,3.64730253 41.0564416,3.36721798 40.873784,3.14680711 C40.6872449,2.95867163 40.4312942,2.85616486 40.1666251,2.86359447 C39.8143468,2.86562164 39.4786601,3.01373351 39.2394612,3.27267939 C38.9312829,3.58796634 38.7000247,3.97028074 38.5637316,4.38979592 C38.4054396,4.8667024 38.3258229,5.36624843 38.328012,5.86879526 C38.3033793,6.15889988 38.3812422,6.4484568 38.548017,6.68696511 C38.7072157,6.86552737 38.9377165,6.96361146 39.1766026,6.95444371" id="Shape"></path>
                            <path d="M46.3896233,7.48940092 L47.0967822,4.18525346 C47.1462739,3.95731653 47.1778006,3.72583818 47.1910701,3.49295589 C47.2039702,3.31334055 47.1412987,3.13650226 47.018209,3.00520079 C46.8706831,2.87777272 46.6780279,2.81536635 46.4839112,2.8321264 C46.183463,2.83657535 45.8920475,2.93566863 45.6510352,3.11533904 C45.3574652,3.33200048 45.1158778,3.61151437 44.9438763,3.93350889 C44.7230337,4.3374845 44.5641115,4.77240943 44.472437,5.2236998 L43.9852831,7.48940092 L43.2466949,7.48940092 L44.3624345,2.24996708 L45.0381641,2.24996708 L44.9281616,3.22547729 L44.9281616,3.22547729 C45.1667508,2.89478027 45.4652692,2.61190607 45.8081816,2.3915734 C46.0820139,2.23830628 46.3902048,2.15710292 46.7039162,2.15556287 C47.0543983,2.13529523 47.3987611,2.25399248 47.6625094,2.48597762 C47.8751992,2.72818233 47.9826606,3.04529866 47.9610876,3.36708361 C47.9585072,3.65886642 47.9215841,3.94932773 47.8510851,4.23245556 L47.1753555,7.37926267 L46.3896233,7.48940092 Z" id="Path"></path>
                            <path d="M50.5068596,4.81461488 L53.0212023,2.24996708 L53.9797955,2.24996708 L51.7483163,4.48420013 L53.1469194,7.48940092 L52.2511848,7.48940092 L51.104016,4.94048716 L50.3811424,5.52264648 L49.9882764,7.44219882 L49.171115,7.44219882 L50.7425792,0 L51.5597406,0 C51.3397356,1.04893576 51.1354452,2.00871192 50.9468695,2.87932851 C50.8166722,3.51657803 50.6540759,4.14675904 50.4597156,4.76741277 L50.5068596,4.81461488 Z" id="Path"></path>
                            <path d="M55.1741083,7.48940092 L54.3726615,7.48940092 L55.5041157,2.24996708 L56.3055625,2.24996708 L55.1741083,7.48940092 Z M55.7241207,0.912574062 C55.7126773,0.750183238 55.7696665,0.59041339 55.8812671,0.472021066 C55.9784135,0.356564556 56.1234832,0.292655421 56.2741332,0.298946675 C56.5569968,0.298946675 56.6984285,0.440552995 56.6984285,0.739499671 C56.6986423,0.902975671 56.6368586,1.06043608 56.5255675,1.18005267 C56.3369289,1.36188116 56.0384764,1.36188116 55.8498379,1.18005267 C55.7580675,1.0960411 55.711439,0.973489797 55.7241207,0.84963792" id="Shape"></path>
                            <path d="M60.5328012,7.48940092 L61.2399601,4.18525346 C61.2894518,3.95731653 61.3209785,3.72583818 61.3342479,3.49295589 C61.3471481,3.31334055 61.2844765,3.13650226 61.1613869,3.00520079 C61.013861,2.87777272 60.8212057,2.81536635 60.627089,2.8321264 C60.3266408,2.83657535 60.0352253,2.93566863 59.794213,3.11533904 C59.5006431,3.33200048 59.2590556,3.61151437 59.0870541,3.93350889 C58.8662115,4.3374845 58.7072894,4.77240943 58.6156149,5.2236998 L58.128461,7.48940092 L57.3270142,7.48940092 L58.4584684,2.24996708 L59.1184834,2.24996708 L59.0084809,3.22547729 L59.0084809,3.22547729 C59.2496362,2.89146023 59.5539754,2.60812802 59.9042155,2.3915734 C60.1726122,2.23894838 60.4755795,2.15769641 60.7842355,2.15556287 C61.1347176,2.13529523 61.4790804,2.25399248 61.7428286,2.48597762 C61.9784068,2.71795174 62.1089924,3.03629124 62.1042654,3.36708361 C62.1016851,3.65886642 62.0647619,3.94932773 61.9942629,4.23245556 L61.3185333,7.37926267 L60.5328012,7.48940092 Z" id="Path"></path>
                            <path d="M68.2644051,2.24996708 L68.1544026,2.75345622 L67.1486655,2.87932851 C67.2849303,3.10678114 67.3505704,3.36966478 67.3372412,3.63456221 C67.3612233,4.17238506 67.1621817,4.69622665 66.7872287,5.08209348 C66.3824808,5.45702926 65.8452915,5.65518543 65.2943377,5.63278473 L64.885757,5.63278473 C64.4457471,5.79012508 64.2257421,6.01040158 64.2257421,6.24641211 C64.2104847,6.36113967 64.2753233,6.47150071 64.3828885,6.51389072 C64.5292751,6.56783014 64.6828669,6.59964703 64.8386131,6.60829493 L65.4043402,6.68696511 C65.8523395,6.7086175 66.2863984,6.84986068 66.6615116,7.09605003 C66.9245448,7.33108159 67.0686827,7.67166556 67.0543777,8.02435813 C67.0732604,8.57290813 66.8052691,9.09166322 66.3472188,9.39321922 C65.7587997,9.75581715 65.0723401,9.92626947 64.3828885,9.88097433 C63.8780509,9.90399951 63.3769613,9.78402576 62.9371414,9.53482554 C62.5884744,9.32229633 62.383557,8.9360931 62.4028436,8.52784727 C62.4063605,8.206335 62.5296529,7.89772306 62.7485657,7.66247531 C63.0632546,7.3641849 63.4464404,7.14803906 63.8643053,7.03311389 C63.6305516,6.93569331 63.4806968,6.70438001 63.4871539,6.45095458 C63.4818879,6.23394792 63.5741816,6.02603303 63.7385882,5.8845293 C63.9399713,5.70390068 64.1678729,5.55531694 64.4143178,5.4439763 C64.2140205,5.34556746 64.045261,5.19295093 63.9271639,5.0034233 C63.7941819,4.79122734 63.7233968,4.54590099 63.7228735,4.29539171 C63.690965,3.71297467 63.9014673,3.14334672 64.3043153,2.72198815 C64.680692,2.31828159 65.2147336,2.09980176 65.765777,2.1240948 C66.0149531,2.12441782 66.2630983,2.15613496 66.5043652,2.21849901 L68.2644051,2.24996708 Z M63.1885757,8.43344305 C63.1815104,8.6659888 63.2942755,8.885857 63.4871539,9.01560237 C63.7695209,9.17325536 64.0919225,9.24438091 64.4143178,9.22014483 C64.8839326,9.24989758 65.3523923,9.14627275 65.765777,8.92119816 C66.0822903,8.75005842 66.2764683,8.4159037 66.2686455,8.0558262 C66.2661705,7.86720973 66.1646649,7.69383922 66.0014966,7.59953917 C65.7330025,7.44513793 65.4309121,7.35871984 65.1214767,7.3477946 L64.3671739,7.3477946 C64.0425424,7.40280488 63.7386196,7.54408582 63.4871539,7.75687953 C63.2885931,7.95064197 63.1802847,8.21889296 63.1885757,8.4963792 M64.5086056,4.29539171 C64.4932226,4.52643028 64.5726852,4.75374635 64.7286106,4.92475313 C64.8922723,5.0702522 65.1073885,5.14393548 65.325767,5.12929559 C65.5597345,5.13428643 65.7897638,5.06848291 65.985782,4.94048716 C66.177202,4.79498871 66.3241685,4.59879174 66.4100773,4.37406188 C66.5190647,4.13753307 66.5728056,3.87925494 66.5672237,3.61882818 C66.5794482,3.39767057 66.4998268,3.18128966 66.3472188,3.02093483 C66.1864988,2.87045829 65.9691606,2.79601396 65.7500624,2.81639236 C65.5207543,2.80950133 65.2951722,2.87560678 65.105762,3.00520079 C64.9108596,3.14428856 64.7584967,3.33497658 64.6657521,3.55589203 C64.5541184,3.78593984 64.5001794,4.03976744 64.5086056,4.29539171" id="Shape"></path>
                            <path d="M73.843103,7.58380513 C73.5533706,7.58798331 73.2689371,7.50583386 73.0259416,7.3477946 C72.7964356,7.17867008 72.6171786,6.95024461 72.5073584,6.68696511 L72.5073584,6.68696511 L72.1616363,7.48940092 L71.5330506,7.48940092 L73.1045148,0.0472021066 L73.9059616,0.0472021066 C73.7331005,0.818169849 73.623098,1.4160632 73.5288102,1.82514812 C73.4345223,2.23423305 73.3245198,2.70625411 73.1673734,3.25694536 L73.1673734,3.25694536 C73.4113024,2.9309717 73.7088968,2.64897231 74.0473934,2.42304147 C74.3102082,2.25373381 74.6149465,2.16110928 74.9274133,2.15556287 C75.3362737,2.13925753 75.728035,2.32074397 75.9802943,2.64331797 C76.2510608,3.01686364 76.3843241,3.47274049 76.3574457,3.93350889 C76.3644623,4.56760547 76.2525207,5.1973851 76.0274383,5.79012508 C75.8469069,6.30424319 75.532196,6.76059442 75.115989,7.11178407 C74.7446725,7.41888176 74.2775689,7.58591019 73.7959591,7.58380513 M74.6916937,2.86359447 C74.3284717,2.88085109 73.9879747,3.04562751 73.7488152,3.3198815 C73.4204766,3.64007479 73.1634275,4.02612556 72.9945123,4.45273206 C72.8089664,4.9017893 72.7128777,5.38282912 72.7116488,5.86879526 C72.6955083,6.16056029 72.7910423,6.44751543 72.9787977,6.67123107 C73.185692,6.86757296 73.4641774,6.96999995 73.7488152,6.95444371 C74.107351,6.95043688 74.4461571,6.78944906 74.675979,6.51389072 C74.9909319,6.21289343 75.2189482,5.83239709 75.335994,5.41250823 C75.5160131,4.90805664 75.6012587,4.37461053 75.5874283,3.83910467 C75.5874283,3.11533904 75.3045647,2.75345622 74.7388376,2.75345622" id="Shape"></path>
                            <path d="M77.8189075,2.24996708 L78.6203542,2.24996708 L78.9660763,4.86181698 C78.9660763,5.08209348 78.9660763,5.39677419 79.0603642,5.83732719 C79.154652,6.27788018 79.0603642,6.60829493 79.0603642,6.8600395 L79.0603642,6.8600395 C79.1703667,6.5925609 79.3117985,6.26214615 79.4689449,5.91599737 C79.6260913,5.56984858 79.7675231,5.30236998 79.8460963,5.16076366 L81.4175605,2.24996708 L82.2661512,2.24996708 L78.934647,8.38624095 C78.7323745,8.82668522 78.4312033,9.21438397 78.0546271,9.51909151 C77.7556089,9.74239964 77.3903817,9.85875189 77.0174607,9.84950625 C76.7875146,9.85267981 76.558799,9.815401 76.3417311,9.73936801 L76.3417311,9.09427255 C76.5452813,9.15740348 76.7572247,9.18923422 76.9703168,9.18867676 C77.2163924,9.1927695 77.4559039,9.10911588 77.6460464,8.95266623 C77.8578609,8.73828921 78.0378014,8.49454162 78.1803442,8.22890059 L78.541781,7.58380513 L77.8189075,2.24996708 Z" id="Path"></path>
                        </g>
                        <g id="paisabazaar-logo" transform="translate(28.019207, 29.280713)">
                            <g id="Group-5" transform="translate(128.986393, 0.000000)">
                                <path d="M24.9228117,12.3200772 C24.986566,17.3818501 21.9894177,21.9805284 17.336265,23.9605069 C12.6831123,25.9404853 7.29628391,24.9093002 3.70082723,21.3503141 C0.105369933,17.7913279 -0.986038516,12.4099888 0.938193161,7.72877027 C2.86242437,3.04755169 7.42088216,-0.00565380184 12.4768152,0 C19.3097679,-0.034538187 24.879543,5.47873993 24.9228117,12.3200772" id="Path" fill="#0B75AF"></path>
                                <path d="M0.753692263,12.3200772 C0.696333819,17.0799549 3.51592718,21.4031749 7.89170384,23.2646325 C12.2674805,25.12609 17.3328251,24.1571265 20.7150026,20.8116288 C24.0971802,17.4661311 25.1263572,12.4066693 23.32044,8.00322267 C21.5145243,3.5997759 17.2311718,0.724439433 12.4768152,0.723745175 C6.04308992,0.68922084 0.796953101,5.8784631 0.753692263,12.3200772" id="Path" fill="url(#linearGradient-13)"></path>
                                <g id="Group" opacity="0.403284418" transform="translate(2.293727, 0.834231)" fill="#0592C5">
                                    <g id="Path">
                                        <path d="M10.1359441,15.041738 C4.54153155,15.041738 2.38894058e-23,11.7533246 2.38894058e-23,7.69394338 C2.38894058e-23,3.63456221 5.06011474,0 10.1359441,0 C15.2117735,0 20.2561736,3.63456221 20.2561736,7.69394338 C20.2561736,11.7533246 15.7303567,15.041738 10.1359441,15.041738"></path>
                                    </g>
                                </g>
                            </g>
                            <path d="M137.283113,14.8689909 L138.021701,14.6329804 C138.188996,15.0847299 138.188996,15.5815601 138.021701,16.0333096 C137.828906,16.4607718 137.480418,16.7984334 137.047393,16.9773517 C136.54639,17.1962773 135.976932,17.1962773 135.475929,16.9773517 C134.886803,16.7085668 134.428786,16.216016 134.203043,15.6084906 C134.007804,15.2057094 133.900654,14.7658521 133.88875,14.3182997 C133.860043,13.9279147 133.977705,13.5408335 134.218758,13.2326512 C134.45267,12.9308951 134.754105,12.688371 135.098778,12.5246196 C135.497333,12.325698 135.950552,12.2648252 136.387378,12.3515452 C136.800933,12.4681132 137.158257,12.730846 137.393115,13.0910449 L136.748815,13.5001298 C136.588604,13.27923 136.363278,13.1141543 136.104515,13.0281088 C135.876315,12.9438069 135.625556,12.9438069 135.397356,13.0281088 C135.061019,13.1736843 134.807365,13.4622816 134.705912,13.8148105 C134.614044,14.2878803 134.691959,14.7782359 134.925917,15.1994057 C135.098718,15.6450471 135.41358,16.0211336 135.821651,16.2693201 C136.143911,16.4270549 136.520843,16.4270549 136.843103,16.2693201 C137.107717,16.1621973 137.317555,15.9521007 137.424545,15.6871608 C137.534998,15.3821963 137.534998,15.0480831 137.424545,14.7431186" id="Path" fill="#FFFFFF"></path>
                            <path d="M138.807433,13.4843958 C138.964694,13.935088 139.284049,14.3109338 139.703168,14.5385762 C140.047479,14.696125 140.443167,14.696125 140.787478,14.5385762 C141.125544,14.3791374 141.377832,14.0806111 141.478922,13.7204063 C141.579768,13.2493084 141.507218,12.7575915 141.274632,12.3358112 C141.102429,11.9018999 140.786076,11.5407005 140.378897,11.3130989 C140.038971,11.1613773 139.650499,11.1622745 139.311275,11.3155649 C138.97205,11.4688551 138.714385,11.7599365 138.603143,12.1155347 C138.501873,12.5814857 138.574547,13.0684376 138.807433,13.4843958 M138.068845,13.8305446 C137.715654,13.2107866 137.663596,12.4637122 137.927413,11.800854 C138.150489,11.321113 138.542026,10.940294 139.027438,10.7309396 C139.55059,10.4639918 140.16317,10.4353314 140.708905,10.6522694 C141.294022,10.8945221 141.754179,11.3666218 141.981791,11.9581944 C142.201424,12.387124 142.319706,12.8608382 142.327513,13.3427895 C142.315223,13.7250694 142.183294,14.0938233 141.950362,14.3969699 C141.715635,14.7081732 141.408007,14.9567411 141.054627,15.1207355 C140.526064,15.3883625 139.908445,15.4169912 139.357446,15.1994057 C138.763401,14.9325555 138.29978,14.4400591 138.068845,13.8305446" id="Shape" fill="#FFFFFF"></path>
                            <path d="M143.820404,13.7361404 L141.887503,9.53515288 L142.516089,9.25194024 L142.798952,9.83409955 C142.833386,9.56601377 142.936217,9.31132993 143.097531,9.09459988 C143.266447,8.86480996 143.494591,8.68533292 143.757546,8.57537671 C144.017813,8.43765182 144.313871,8.38275876 144.606136,8.41803635 C144.864468,8.45207552 145.103149,8.5743422 145.281866,8.76418514 C145.347091,8.18170862 145.710194,7.67512208 146.240459,7.42679211 C146.589491,7.24393461 146.997468,7.2098945 147.371913,7.3323879 C147.75319,7.52233783 148.050121,7.84768291 148.204789,8.24496196 L149.524819,11.1242905 L148.81766,11.4547052 L147.591918,8.81138724 C147.510603,8.59905093 147.393683,8.40217031 147.246196,8.22922793 C147.142765,8.12022772 147.002965,8.05304103 146.85333,8.0404195 C146.68681,8.02129588 146.518247,8.04851686 146.366176,8.11908968 C146.093536,8.2439597 145.879599,8.46943426 145.76902,8.7484511 C145.667062,9.11455552 145.718112,9.50642929 145.910451,9.83409955 L147.026191,12.2728751 L146.319032,12.5875558 L145.061861,9.86556762 C144.963772,9.608476 144.787972,9.38845534 144.558992,9.2362062 C144.349087,9.11850413 144.093168,9.11850413 143.883263,9.2362062 C143.681546,9.31720549 143.510892,9.46051203 143.396109,9.64529113 C143.271119,9.82990565 143.215447,10.0528659 143.238962,10.2746525 C143.279505,10.598014 143.375182,10.9120089 143.521826,11.2029606 L144.527563,13.3742576 L143.820404,13.7361404 Z" id="Path" fill="#FFFFFF"></path>
                            <path d="M60.674233,7.83587704 C61.2361021,7.5221882 61.8695446,7.35956656 62.5128461,7.36385597 C63.4342719,7.32941621 64.2921957,7.8325345 64.712896,8.65404689 C65.2705164,9.85873449 65.5189842,11.1837294 65.4357695,12.5088856 C65.5201166,13.7698935 65.2650563,15.0304682 64.6971813,16.1591818 C64.2234256,16.9496135 63.3539019,17.415141 62.4342729,17.3707026 C61.8961424,17.3582661 61.364322,17.2517707 60.8628087,17.0560219 C60.2586902,16.8029355 59.6885421,16.4752243 59.1656273,16.0805117 L59.1656273,9.25194024 C59.5880949,8.6780833 60.1227611,8.19628982 60.7370915,7.83587704 M54.9541033,0.739827005 L54.9541033,1.41639053 L55.1583936,1.41639053 C56.0541282,1.41639053 56.5727114,1.60519896 56.7298578,1.80974142 C56.9615402,2.37734329 57.0479668,2.99389312 56.9812921,3.60342148 L56.9812921,18.440617 L58.741332,18.440617 L59.0084809,16.8672134 L59.1499127,16.8672134 C59.6102595,17.3890584 60.1716033,17.811924 60.7999501,18.1102023 C61.4129954,18.3839013 62.0773472,18.5233727 62.7485657,18.5192872 C64.1950921,18.5531012 65.5651381,17.8701764 66.4100773,16.6941391 C67.3863155,15.266983 67.871759,13.5603108 67.7929658,11.8323221 C67.872987,10.2914505 67.4480954,8.76658347 66.5829384,7.48972826 C65.840642,6.45747121 64.6308729,5.8666116 63.3614368,5.9163247 C62.5374797,5.90243957 61.7261873,6.12050497 61.0199551,6.54568612 C60.2376807,7.03072443 59.5808072,7.69379933 59.1027688,8.4809725 L59.1027688,0.739827005 L54.9541033,0.739827005 Z" id="Shape" fill="#FFFFFF"></path>
                            <path d="M75.2259915,16.4266604 C74.5827427,16.9299354 73.8077081,17.2359601 72.9945123,17.3077664 C72.3670719,17.3200028 71.7631055,17.0689903 71.3287603,16.6154689 C70.8725711,16.151543 70.628046,15.5195475 70.6530307,14.8689909 C70.6231774,13.9948956 71.0296644,13.1632231 71.737341,12.6504919 C72.6196639,12.0665882 73.667361,11.7850172 74.723123,11.8480561 L75.2259915,11.8480561 L75.2259915,16.4266604 Z M74.7702669,11.1714926 C72.9845736,11.0102403 71.195475,11.4414806 69.6787229,12.3987473 C68.821384,13.0640266 68.3312908,14.0979972 68.3586929,15.1836716 C68.3409396,16.115339 68.7245344,17.0095871 69.411574,17.6381812 C70.0919653,18.2870257 71.0023211,18.6380302 71.9416313,18.6136914 C73.3989983,18.4880778 74.7483099,17.7928052 75.6974308,16.678405 C75.9802943,17.9685959 76.6560239,18.6136914 77.7246196,18.6136914 C78.1985019,18.6003283 78.6664462,18.5044944 79.1075081,18.3304787 L79.1075081,17.5123089 C78.9184735,17.5683225 78.7230931,17.600045 78.5260664,17.6067131 C78.1418765,17.6225571 77.7918959,17.3868251 77.661761,17.0245538 C77.4695677,16.3607271 77.3898902,15.6693358 77.4260414,14.9791292 L77.4260414,9.58235498 C77.4260414,7.15931351 76.1217261,5.96352681 73.5288102,5.96352681 C72.0597464,5.99859939 70.6143425,6.34163645 69.2858568,6.97050508 L69.2858568,9.1890041 L70.7630332,9.1890041 L70.7630332,8.98446163 C70.752023,8.40819676 70.9534216,7.84806572 71.3287603,7.41105808 C71.8310477,7.00534984 72.459222,6.78827868 73.1045148,6.79743069 C74.5188326,6.79743069 75.2417062,7.74147282 75.2417062,9.64529113 L75.2417062,11.2186947 L74.7702669,11.1714926 Z" id="Shape" fill="#FFFFFF"></path>
                            <path d="M80.9618359,18.3304787 L91.4120728,18.3304787 L91.4120728,17.5123089 L83.5547518,17.5123089 L91.1449239,6.90756894 L91.1449239,6.21527138 L81.2604141,6.21527138 L81.2604141,8.87432338 L82.4390122,8.87432338 L82.4390122,8.63831285 C82.4390122,8.41803635 82.4390122,8.15055775 82.4390122,7.83587704 C82.4390122,7.52119633 82.5333001,7.09637737 82.7061611,7.01770719 C83.3491773,6.90494781 84.0031712,6.86798321 84.6547768,6.90756894 L88.5991519,6.90756894 L80.9618359,17.6539152 L80.9618359,18.3304787 Z" id="Path" fill="#FFFFFF"></path>
                            <path d="M99.2693939,16.4266604 C98.626145,16.9299354 97.8511105,17.2359601 97.0379147,17.3077664 C96.4057693,17.3205705 95.7967308,17.0698157 95.356448,16.6154689 C94.9107102,16.1459346 94.6727828,15.5163507 94.696433,14.8689909 C94.6684683,13.9989416 95.0676135,13.170281 95.7650287,12.6504919 C96.6540622,12.0684873 97.7060603,11.7872406 98.7665253,11.8480561 L99.2693939,11.8480561 L99.2693939,16.4266604 Z M98.8136692,11.1714926 C97.023092,11.0114294 95.2293912,11.442449 93.7064106,12.3987473 C92.8490717,13.0640266 92.3589786,14.0979972 92.3863806,15.1836716 C92.3625923,16.1100806 92.7340875,17.0027697 93.4078324,17.6381812 C94.0863106,18.2900457 94.9979755,18.6415548 95.9378897,18.6136914 C97.4231909,18.5083918 98.8043325,17.8113012 99.7722624,16.678405 C100.055126,17.9685959 100.730856,18.6136914 101.799451,18.6136914 C102.278454,18.6005561 102.7516,18.5047456 103.198054,18.3304787 L103.198054,17.5123089 C103.008542,17.5661964 102.813422,17.5978766 102.616613,17.6067131 C102.230958,17.6278101 101.878134,17.3901628 101.752307,17.0245538 C101.544972,16.3637253 101.459767,15.670573 101.500873,14.9791292 L101.500873,9.58235498 C101.500873,7.15931351 100.196558,5.96352681 97.6036418,5.96352681 C96.134578,5.99859939 94.6891741,6.34163645 93.3606885,6.97050508 L93.3606885,9.1890041 L94.8378648,9.1890041 L94.8378648,8.98446163 C94.8297017,8.40587992 95.0369789,7.84497996 95.4193066,7.41105808 C95.9161162,7.00646695 96.5389993,6.78930249 97.1793465,6.79743069 C98.6093789,6.79743069 99.3322524,7.74147282 99.3322524,9.64529113 L99.3322524,11.2186947 L98.8136692,11.1714926 Z" id="Shape" fill="#FFFFFF"></path>
                            <path d="M111.448241,16.4266604 C110.804993,16.9299354 110.029958,17.2359601 109.216762,17.3077664 C108.588585,17.3239332 107.983095,17.0722874 107.55101,16.6154689 C107.094821,16.151543 106.850296,15.5195475 106.875281,14.8689909 C106.847316,13.9989416 107.246461,13.170281 107.943876,12.6504919 C108.831988,12.0664234 109.88468,11.7849914 110.945373,11.8480561 L111.448241,11.8480561 L111.448241,16.4266604 Z M110.992517,11.1714926 C109.206824,11.0102403 107.417725,11.4414806 105.900973,12.3987473 C105.043634,13.0640266 104.553541,14.0979972 104.580943,15.1836716 C104.54293,16.1032335 104.897159,16.9956175 105.555251,17.6381812 C106.235642,18.2870257 107.145998,18.6380302 108.085308,18.6136914 C109.56966,18.5049497 110.949552,17.80849 111.919681,16.678405 C112.202544,17.9685959 112.878274,18.6136914 113.94687,18.6136914 C114.420752,18.6003283 114.888696,18.5044944 115.329758,18.3304787 L115.329758,17.5123089 C115.140472,17.5672112 114.945231,17.5989111 114.748316,17.6067131 C114.364126,17.6225571 114.014146,17.3868251 113.884011,17.0245538 C113.684734,16.3620017 113.599705,15.6702887 113.632577,14.9791292 L113.632577,9.58235498 C113.632577,7.15931351 112.343976,5.96352681 109.75106,5.96352681 C108.302429,5.98537981 106.873945,6.30678367 105.555251,6.90756894 L105.555251,9.12606795 L107.032427,9.12606795 L107.032427,8.92152549 C107.032932,8.34446825 107.239113,7.78653557 107.613869,7.34812194 C108.110678,6.94353081 108.733562,6.72636635 109.373909,6.73449455 C110.803941,6.73449455 111.526815,7.67853668 111.526815,9.58235498 L111.526815,11.1557585 L110.992517,11.1714926 Z" id="Shape" fill="#FFFFFF"></path>
                            <path d="M117.906959,17.2605643 C117.749813,17.4651068 117.215515,17.5909791 116.335495,17.6539152 L116.131205,17.6539152 L116.131205,18.3462128 L122.621352,18.3462128 L122.621352,17.6539152 L122.149913,17.6539152 C121.600477,17.6846556 121.054102,17.5533637 120.578448,17.2762984 C120.333428,16.7012353 120.241388,16.0724241 120.3113,15.4511502 L120.3113,9.51941884 C120.80995,8.48212895 121.834518,7.80025188 122.982789,7.74147282 C123.249938,7.74147282 123.422799,7.74147282 123.485657,7.93028125 C123.595946,8.33654412 123.664399,8.75304544 123.689948,9.17327006 L123.689948,9.37781252 L124.91569,9.37781252 L124.91569,6.04219699 C124.676245,5.96726852 124.427821,5.92493138 124.177102,5.9163247 C122.507778,5.97042933 121.011789,6.96289752 120.3113,8.4809725 L120.3113,6.19953734 L116.131205,6.19953734 L116.131205,6.90756894 L116.335495,6.90756894 C116.887067,6.87576479 117.435226,7.01297376 117.906959,7.30091983 C118.136175,7.86913832 118.212049,8.48773546 118.126964,9.09459988 L118.126964,15.3882141 C118.201234,16.0029773 118.114588,16.6265121 117.87553,17.1976282" id="Path" fill="#FFFFFF"></path>
                            <path d="M5.70441507,7.85161107 C6.2231411,7.52904667 6.82240892,7.35995377 7.43302569,7.36385597 C8.32243373,7.34520249 9.1402446,7.85003893 9.52307309,8.65404689 C10.0444909,9.87448174 10.2758062,11.1994535 10.1988027,12.5246196 C10.2766662,13.786852 10.0333536,15.0482254 9.4916438,16.1906499 C9.06764186,16.9688725 8.23909663,17.438554 7.35445248,17.4021707 C6.8135446,17.4010812 6.27864082,17.2886129 5.78298828,17.0717559 C5.21780222,16.8252739 4.68905307,16.502339 4.21152407,16.1119797 L4.21152407,9.26767427 C4.60641574,8.69772772 5.11467205,8.21562743 5.70441507,7.85161107 M0,6.27820752 L0,6.90756894 L0.267148915,6.90756894 C1.16288351,6.90756894 1.6814667,7.09637737 1.83861312,7.30091983 C2.0702955,7.8685217 2.15672211,8.48507153 2.09004739,9.09459988 L2.09004739,22.7360087 L4.19580943,22.7360087 L4.19580943,16.9773517 C4.62895195,17.4951974 5.16385888,17.9182953 5.76727363,18.2203405 C6.35241415,18.49444 6.99131916,18.634205 7.63731604,18.6294254 C9.08240498,18.696336 10.4579513,18.0047329 11.2673984,16.8042773 C12.2104345,15.3586223 12.6724916,13.6513069 12.5874283,11.9267263 C12.6610696,10.3904768 12.260538,8.86877541 11.4402594,7.56839843 C10.7288305,6.54198752 9.54430498,5.94899375 8.29733101,5.99499488 C7.50174802,5.98811879 6.72121589,6.21218389 6.05013719,6.64009034 C5.30318395,7.10291848 4.67378174,7.73309744 4.21152407,8.4809725 L4.21152407,6.23100541 L0,6.27820752 Z" id="Shape" fill="#FFFFFF"></path>
                            <path d="M20.6961836,16.4266604 C20.0529347,16.9299354 19.2779002,17.2359601 18.4647044,17.3077664 C17.8325591,17.3205705 17.2235205,17.0698157 16.7832377,16.6154689 C16.3374999,16.1459346 16.0995725,15.5163507 16.1232227,14.8689909 C16.0952581,13.9989416 16.4944032,13.170281 17.1918184,12.6504919 C18.075077,12.0686714 19.1220705,11.7872894 20.1776004,11.8480561 L20.6961836,11.8480561 L20.6961836,16.4266604 Z M20.240459,11.1714926 C18.454593,11.0078695 16.6647432,11.4392909 15.1489149,12.3987473 C14.2915761,13.0640266 13.8014829,14.0979972 13.828885,15.1836716 C13.7990234,16.1080365 14.1649764,17.0011478 14.8346221,17.6381812 C15.5150135,18.2870257 16.4253693,18.6380302 17.3646795,18.6136914 C18.8453588,18.5077511 20.221374,17.81039 21.1833375,16.678405 C21.4766775,17.9685959 22.1524071,18.6136914 23.2105263,18.6136914 C23.6896738,18.6018319 24.1630368,18.5059773 24.6091295,18.3304787 L24.6091295,17.5123089 C24.4198435,17.5672112 24.2246022,17.5989111 24.0276877,17.6067131 C23.6434979,17.6225571 23.2935172,17.3868251 23.1633824,17.0245538 C22.9641052,16.3620017 22.8790762,15.6702887 22.9119481,14.9791292 L22.9119481,9.58235498 C22.9119481,7.15931351 21.6233475,5.96352681 19.0304315,5.96352681 C17.5613677,5.99859939 16.1159638,6.34163645 14.7874782,6.97050508 L14.7874782,9.1890041 L16.2646545,9.1890041 L16.2646545,8.98446163 C16.2651598,8.40740439 16.4713403,7.84947172 16.8460963,7.41105808 C17.3429059,7.00646695 17.965789,6.78930249 18.6061362,6.79743069 C20.0361686,6.79743069 20.7590422,7.74147282 20.7590422,9.64529113 L20.7590422,11.2186947 L20.240459,11.1714926 Z" id="Shape" fill="#FFFFFF"></path>
                            <path d="M25.4105762,6.90756894 L25.6148666,6.90756894 C26.5106011,6.90756894 26.9034672,7.08064333 27.1863308,7.3323879 C27.4691943,7.58413247 27.5163382,8.08762161 27.5163382,9.09459988 L27.5163382,18.3304787 L29.8263906,18.3304787 L29.7478174,6.19953734 L25.4105762,6.19953734 L25.4105762,6.90756894 Z" id="Path" fill="#FFFFFF"></path>
                            <rect id="Rectangle" fill="#FFFFFF" x="27.5163382" y="1.80974142" width="2.18433525" height="2.20276498"></rect>
                            <path d="M38.4851584,17.2605643 C38.0091141,17.6799045 37.3900972,17.8996451 36.7565478,17.8741917 C35.9251929,17.8906956 35.1067346,17.6667076 34.3993515,17.2290963 C33.5498544,16.537039 32.8221487,15.707388 32.2464455,14.7745867 L32.2464455,16.5997348 C33.3086788,17.883446 34.903818,18.6035966 36.5679721,18.5507552 C37.8223156,18.611623 39.0610845,18.2517153 40.0880519,17.5280429 C40.9468739,16.9316536 41.4534057,15.9468259 41.4395111,14.900459 C41.4647053,14.1953017 41.2169998,13.5076342 40.7480668,12.9809067 C40.0257022,12.3671926 39.1863218,11.9068372 38.280868,11.6277796 L37.1965577,11.2029606 C36.4234079,10.9448814 35.6926288,10.5737388 35.0279371,10.1015782 C34.6616565,9.78854606 34.4589497,9.3246447 34.4779247,8.84285531 C34.4558855,8.24342428 34.7039628,7.66578834 35.1536543,7.26945176 C35.6074391,6.84282071 36.2130973,6.61612693 36.835121,6.64009034 C37.4937813,6.61944791 38.1405943,6.81871286 38.6737341,7.20651562 C38.8622355,7.37153166 38.9941692,7.59169252 39.0508855,7.83587704 C39.1597026,8.32722328 39.2228309,8.8276051 39.2394612,9.33061042 L39.2394612,9.53515288 L40.5280619,9.53515288 L40.5280619,6.59288823 C39.2920969,6.14929809 37.9908645,5.91531898 36.6779746,5.90059067 C35.5514213,5.85033427 34.4418297,6.18917742 33.5350461,6.86036683 C32.8274282,7.3750081 32.3776662,8.17175527 32.3022903,9.04417702 C32.2269142,9.91659877 32.5333419,10.7788411 33.1421801,11.4075031 C33.944136,12.1197566 34.8863287,12.655754 35.9079571,12.9809067 L37.0865553,13.4057256 C37.6694343,13.5941122 38.2052676,13.905279 38.6580195,14.3182997 C38.968235,14.6985421 39.1251878,15.1812061 39.0980294,15.6714267 C39.1174868,16.2671252 38.8764665,16.8416911 38.4380145,17.2448303" id="Path" fill="#FFFFFF"></path>
                            <path d="M49.9568471,16.4266604 C49.3149678,16.9323289 48.5391945,17.2386452 47.7253679,17.3077664 C47.0979275,17.3200028 46.493961,17.0689903 46.0596159,16.6154689 C45.6096745,16.1475264 45.3662213,15.5183018 45.3838863,14.8689909 C45.354033,13.9948956 45.76052,13.1632231 46.4681966,12.6504919 C47.3514551,12.0686714 48.3984487,11.7872894 49.4539785,11.8480561 L49.9568471,11.8480561 L49.9568471,16.4266604 Z M49.5168371,11.1714926 C47.7260888,11.0090835 45.9316482,11.4402807 44.4095784,12.3987473 C43.5522396,13.0640266 43.0621464,14.0979972 43.0895485,15.1836716 C43.0657602,16.1100806 43.4372554,17.0027697 44.1110002,17.6381812 C44.7894785,18.2900457 45.7011433,18.6415548 46.6410576,18.6136914 C48.1217369,18.5077511 49.4977522,17.81039 50.4597156,16.678405 C50.7425792,17.9685959 51.4183088,18.6136914 52.4869045,18.6136914 C52.9659075,18.6005561 53.4390529,18.5047456 53.8855076,18.3304787 L53.8855076,17.5123089 C53.6959948,17.5661964 53.5008752,17.5978766 53.3040659,17.6067131 C52.916905,17.6333631 52.5610183,17.393653 52.4397605,17.0245538 C52.2324256,16.3637253 52.1472197,15.670573 52.1883263,14.9791292 L52.1883263,9.58235498 C52.1883263,7.15931351 50.884011,5.96352681 48.291095,5.96352681 C46.8271119,5.99892792 45.3869036,6.34200258 44.0638563,6.97050508 L44.0638563,9.1890041 L45.525318,9.1890041 L45.525318,8.98446163 C45.5143079,8.40819676 45.7157064,7.84806572 46.0910451,7.41105808 C46.5933326,7.00534984 47.2215068,6.78827868 47.8667997,6.79743069 C49.2968321,6.79743069 50.003991,7.74147282 50.003991,9.64529113 L50.003991,11.2186947 L49.5168371,11.1714926 Z" id="Shape" fill="#FFFFFF"></path>
                        </g>
                    </g>
                </g>
            </g>
        </g>
    </g>
</svg>