<svg width="538" height="459" viewBox="0 0 538 459" fill="none" xmlns="http://www.w3.org/2000/svg">
<g clip-path="url(#clip0_211_85)">
<g opacity="0.203" filter="url(#filter0_f_211_85)">
<path fill-rule="evenodd" clip-rule="evenodd" d="M144.155 172.559L406.642 218.84L386.211 334.703L123.724 288.424L144.155 172.559Z" fill="#00A1E1"/>
</g>
<mask id="mask0_211_85" style="mask-type:alpha" maskUnits="userSpaceOnUse" x="90" y="13" width="409" height="296">
<path d="M141.531 13.7886L488.164 74.9094C494.665 76.0557 499.067 82.2377 497.935 88.6541L460.93 298.522C459.799 304.938 453.548 309.242 447.047 308.095L100.414 246.975C93.9126 245.828 89.5111 239.646 90.6425 233.23L127.648 23.3624C128.779 16.946 135.03 12.6422 141.531 13.7886Z" fill="white"/>
</mask>
<g mask="url(#mask0_211_85)">
<path d="M526.033 47.0146L115.502 -25.373L62.5581 274.888L473.089 347.276L526.033 47.0146Z" fill="url(#paint0_radial_211_85)"/>
</g>
<mask id="mask1_211_85" style="mask-type:alpha" maskUnits="userSpaceOnUse" x="90" y="13" width="409" height="296">
<path d="M460.782 299.36L498.116 87.6334C499.172 81.6437 495.173 75.9414 489.176 74.8839L140.589 13.4186C134.591 12.3611 128.884 16.352 127.828 22.3417L90.6693 233.078C89.5191 239.601 93.8794 245.839 100.426 246.993L448.021 308.283C454.019 309.341 459.726 305.35 460.782 299.36Z" fill="white"/>
</mask>
<g mask="url(#mask1_211_85)">
<g filter="url(#filter1_d_211_85)">
<path d="M235.918 7.43994L306.455 -109.466L614.162 75.8249L543.625 192.731L235.918 7.43994Z" fill="black"/>
</g>
<path d="M235.918 7.43994L306.455 -109.466L614.162 75.8249L543.625 192.731L235.918 7.43994Z" fill="#0066B3"/>
<g filter="url(#filter2_d_211_85)">
<path d="M300.041 -21.1118L405.401 -108.036L634.244 168.619L528.884 255.543L300.041 -21.1118Z" fill="black"/>
</g>
<path d="M300.041 -21.1118L405.401 -108.036L634.244 168.619L528.884 255.543L300.041 -21.1118Z" fill="#005395"/>
<path d="M362.923 -61.9189L482.376 -128.225L656.982 185.398L537.529 251.703L362.923 -61.9189Z" fill="#0066B3"/>
<g opacity="0.6">
<g opacity="0.6">
<g opacity="0.6" filter="url(#filter3_d_211_85)">
<path d="M11.3336 181.31L240.167 457.978L345.529 371.063L114.576 91.8682L11.3336 181.31Z" fill="black"/>
</g>
<path opacity="0.6" d="M11.3336 181.31L240.167 457.978L345.529 371.063L114.576 91.8682L11.3336 181.31Z" fill="#0066B3"/>
</g>
<g opacity="0.6">
<g opacity="0.6">
<g opacity="0.6" filter="url(#filter4_d_211_85)">
<path d="M-10.0999 262.54L60.4366 145.634L368.13 330.916L297.593 447.823L-10.0999 262.54Z" fill="black"/>
</g>
<path opacity="0.6" d="M-10.0999 262.54L60.4366 145.634L368.13 330.916L297.593 447.823L-10.0999 262.54Z" fill="#005395"/>
</g>
<path opacity="0.6" d="M0.560059 232.371L75.6838 152.635L285.578 349.917L210.454 429.652L0.560059 232.371Z" fill="#0066B3"/>
</g>
</g>
<mask id="mask2_211_85" style="mask-type:alpha" maskUnits="userSpaceOnUse" x="150" y="97" width="54" height="44">
<path d="M161.485 97.7517C158.464 97.2189 155.558 99.3309 155.007 102.455L150.608 127.405C150.054 130.544 152.05 133.505 155.087 134.04L192.155 140.576C195.177 141.109 198.083 138.997 198.634 135.873L203.033 110.923C203.586 107.784 201.576 104.821 198.554 104.288L161.485 97.7517Z" fill="white"/>
</mask>
<g mask="url(#mask2_211_85)">
<path d="M136.524 106.271L191.461 79.5185L217.123 132.05L162.185 158.802L136.524 106.271Z" fill="url(#paint1_linear_211_85)"/>
</g>
<path fill-rule="evenodd" clip-rule="evenodd" d="M404.249 96.5877C405.546 96.8164 406.553 96.4596 406.733 95.4385C406.913 94.4174 406.25 93.7189 405.014 93.5009L403.716 93.2722L403.166 96.3966L404.249 96.5877ZM409.447 104.23C409.447 104.23 408.947 104.299 407.849 104.105C403.713 103.376 405.862 99.3079 403.344 98.8639L402.764 98.7616L402.023 102.968L398.802 102.4L400.955 90.1924L405.594 91.0104C408.921 91.597 410.404 93.0056 409.896 95.8861C409.576 97.6998 408.179 98.3963 407.427 98.641C408.212 99.9895 407.881 101.424 409.346 101.682L409.895 101.779L409.463 104.233L409.447 104.23ZM416.061 102.866C417.114 103.052 417.651 102.77 417.82 101.809C417.99 100.849 417.385 100.35 416.439 100.183L414.883 99.9084L414.412 102.576L416.061 102.866ZM416.534 97.9523C417.602 98.1407 418.074 97.7839 418.208 97.0219C418.343 96.2598 417.86 95.7819 416.716 95.5801L415.693 95.3998L415.282 97.7317L416.534 97.9523ZM420.777 100.303C421.304 100.884 421.661 101.716 421.467 102.814C421.013 105.389 418.914 105.962 416.64 105.561L410.764 104.525L412.917 92.3173L418.167 93.2429C420.7 93.6896 422.031 94.883 421.615 97.2454C421.247 99.3334 419.863 99.4193 419.191 99.3009L419.186 99.3314C419.613 99.4068 420.28 99.7287 420.807 100.309L420.777 100.303Z" fill="white"/>
<path fill-rule="evenodd" clip-rule="evenodd" d="M422.378 106.573L424.531 94.3652L427.75 94.9329L426.041 104.626L431.032 105.506L430.588 108.021L422.378 106.573Z" fill="white"/>
<path fill-rule="evenodd" clip-rule="evenodd" d="M438.609 107.596C439.891 107.822 441.045 107.617 441.3 106.169C441.539 104.813 440.605 104.13 439.247 103.89L436.897 103.476L436.241 107.194L438.607 107.612L438.609 107.596ZM439.328 102.27C440.732 102.518 441.311 101.913 441.488 100.907C441.666 99.9007 441.097 99.109 439.571 98.8399L437.77 98.5224L437.176 101.891L439.343 102.273L439.328 102.27ZM433.686 108.567L435.839 96.3589L440.371 97.1581C442.904 97.6048 444.2 98.8233 443.802 101.079C443.405 103.335 442.038 103.408 441.428 103.3L441.423 103.331C442.247 103.476 444.049 104.501 443.637 106.833C443.191 109.363 440.981 109.853 438.676 109.447L433.656 108.561L433.686 108.567ZM448.608 106.217L451.966 106.808L451.097 101.831L448.608 106.217ZM452.247 108.602L447.715 107.803L446.063 110.749L443.743 110.34L450.458 98.9368L452.717 99.335L455.127 112.348L452.808 111.939L452.247 108.602Z" fill="white"/>
<path fill-rule="evenodd" clip-rule="evenodd" d="M463.795 113.876L460.376 104.803L458.927 113.017L456.7 112.625L458.852 100.417L461.187 100.829L464.591 110.166L466.085 101.692L468.298 102.083L466.146 114.29L463.795 113.876Z" fill="white"/>
<path fill-rule="evenodd" clip-rule="evenodd" d="M479.362 114.923C477.759 114.641 478.181 111.981 477.097 110.454C476.997 110.311 476.497 109.484 475.523 109.029L481.237 104.379L478.383 103.876L472.677 108.48L473.637 103.039L471.409 102.647L469.256 114.855L471.484 115.247L472.089 111.818L473.76 110.463L473.897 110.487C476.522 110.95 474.767 115.905 478.384 116.543C479.116 116.672 479.593 116.646 479.593 116.646L479.883 115L479.364 114.908L479.362 114.923ZM378.933 74.7117L379.944 68.9811L374.022 67.937L372.002 79.3982C373.734 77.1579 376.167 75.4968 378.933 74.7117ZM378.643 76.3577C374.748 77.7452 371.706 81.0747 370.945 85.3879L369.051 96.1327L368.64 98.4646L374.561 99.5086L376.867 86.4319C377.391 83.4599 380.079 81.4197 383.056 81.5831L384.085 75.7458C382.189 75.5215 380.322 75.758 378.625 76.3702L378.643 76.3577Z" fill="white"/>
<path fill-rule="evenodd" clip-rule="evenodd" d="M385.583 75.9942L384.554 81.8315C387.407 82.696 389.233 85.5481 388.712 88.5048C388.145 91.7206 385.03 93.8586 381.764 93.2828C379.994 92.9706 378.559 91.9162 377.69 90.5058L376.462 97.4709C377.739 98.2618 379.181 98.8303 380.737 99.1048C387.284 100.259 393.499 95.9805 394.63 89.5641C395.762 83.1477 391.697 77.4651 385.568 75.9916L385.583 75.9942Z" fill="white"/>
<path d="M399.245 156.914C399.825 157.017 400.356 157.22 400.822 157.522C401.288 157.824 401.677 158.207 401.988 158.671C402.302 159.119 402.509 159.643 402.629 160.214C402.748 160.785 402.75 161.398 402.64 162.023C402.53 162.648 402.318 163.223 402.011 163.719C401.703 164.215 401.332 164.621 400.881 164.95C400.432 165.264 399.936 165.491 399.392 165.63C398.851 165.755 398.283 165.765 397.703 165.663C397.123 165.56 396.607 165.359 396.22 165.055C395.831 164.767 395.531 164.415 395.305 163.998L394.623 167.87L392.807 167.549L394.782 156.347L396.598 156.667L396.423 157.658C396.778 157.343 397.18 157.116 397.645 156.978C398.112 156.824 398.635 156.807 399.245 156.914ZM398.731 158.584C398.349 158.516 398 158.533 397.673 158.601C397.344 158.685 397.052 158.822 396.78 159.025C396.526 159.216 396.292 159.474 396.114 159.772C395.935 160.071 395.809 160.426 395.742 160.807C395.675 161.188 395.674 161.549 395.74 161.891C395.806 162.232 395.922 162.551 396.111 162.82C396.297 163.105 396.524 163.333 396.805 163.524C397.086 163.715 397.426 163.838 397.793 163.903C398.159 163.967 398.539 163.956 398.883 163.875C399.213 163.792 399.522 163.642 399.779 163.436C400.036 163.23 400.252 162.985 400.418 162.668C400.596 162.37 400.704 162.027 400.768 161.662C400.833 161.296 400.834 160.934 400.783 160.596C400.718 160.254 400.616 159.937 400.445 159.656C400.275 159.374 400.048 159.146 399.751 158.952C399.455 158.758 399.133 158.623 398.736 158.553L398.731 158.584ZM405.956 166.866L404.125 166.543L406.175 154.915L408.006 155.238L405.956 166.866ZM416.806 168.78L414.99 168.459L415.168 167.453C414.813 167.768 414.409 168.011 413.928 168.146C413.461 168.3 412.923 168.315 412.328 168.21C411.733 168.105 411.217 167.904 410.751 167.602C410.285 167.3 409.897 166.917 409.585 166.453C409.271 166.005 409.064 165.481 408.944 164.91C408.825 164.339 408.823 163.726 408.933 163.101C409.043 162.476 409.255 161.901 409.562 161.405C409.87 160.909 410.243 160.488 410.692 160.174C411.144 159.845 411.637 159.634 412.181 159.494C412.722 159.369 413.291 159.359 413.87 159.462C414.45 159.564 414.966 159.765 415.353 160.069C415.74 160.373 416.055 160.727 416.28 161.144L416.458 160.138L418.274 160.458L416.806 168.78ZM413.798 161.209C413.402 161.139 413.037 161.153 412.708 161.237C412.378 161.32 412.069 161.47 411.815 161.661C411.558 161.867 411.342 162.112 411.176 162.428C410.997 162.727 410.89 163.069 410.825 163.435C410.761 163.801 410.763 164.147 410.81 164.501C410.876 164.842 410.993 165.162 411.148 165.44C411.319 165.722 411.546 165.951 411.84 166.16C412.121 166.35 412.458 166.489 412.855 166.559C413.252 166.629 413.583 166.624 413.913 166.541C414.242 166.457 414.534 166.32 414.805 166.117C415.059 165.926 415.294 165.668 415.472 165.37C415.651 165.071 415.774 164.732 415.841 164.351C415.908 163.97 415.909 163.608 415.846 163.251C415.78 162.91 415.663 162.591 415.475 162.322C415.304 162.04 415.062 161.809 414.781 161.618C414.5 161.427 414.159 161.304 413.793 161.239L413.798 161.209ZM426.448 163.628L423.258 163.066L422.621 166.678C422.573 166.952 422.561 167.201 422.602 167.413C422.643 167.624 422.708 167.793 422.793 167.934C422.894 168.077 423.015 168.193 423.157 168.281C423.314 168.371 423.477 168.431 423.66 168.464C423.95 168.515 424.232 168.518 424.559 168.449C424.868 168.394 425.167 168.305 425.438 168.196L425.9 169.77C425.524 169.94 425.11 170.055 424.668 170.15C424.212 170.242 423.725 170.235 423.206 170.144C422.26 169.977 421.573 169.589 421.13 168.976C420.703 168.367 420.589 167.498 420.782 166.401L421.427 162.743L419.764 162.449L420.054 160.803L421.717 161.097L422.161 158.582L423.992 158.905L423.549 161.42L426.738 161.982L426.448 163.628ZM429.333 171.004L427.502 170.681L428.969 162.36L430.8 162.683L429.333 171.004ZM437.949 163.723C438.438 163.809 438.882 163.966 439.265 164.206C439.647 164.447 439.973 164.74 440.212 165.081C440.466 165.424 440.633 165.815 440.728 166.256C440.826 166.682 440.822 167.153 440.736 167.64L439.814 172.868L437.983 172.545L438.8 167.912C438.924 167.211 438.85 166.648 438.581 166.207C438.313 165.767 437.872 165.501 437.246 165.391C436.956 165.339 436.658 165.334 436.383 165.38C436.107 165.425 435.851 165.538 435.621 165.685C435.39 165.833 435.197 166.035 435.042 166.291C434.871 166.543 434.769 166.855 434.707 167.206L433.893 171.824L432.062 171.501L433.529 163.179L435.33 163.497L435.15 164.518C435.361 164.304 435.579 164.138 435.822 164.008C436.047 163.891 436.285 163.791 436.53 163.74C436.775 163.689 437.015 163.668 437.252 163.663C437.486 163.673 437.72 163.683 437.919 163.718L437.949 163.723ZM450.693 171.14C450.577 171.796 450.369 172.356 450.056 172.788C449.759 173.223 449.4 173.568 448.982 173.793C448.562 174.033 448.113 174.174 447.631 174.23C447.149 174.287 446.662 174.28 446.174 174.194C445.685 174.107 445.226 173.948 444.792 173.73C444.358 173.512 443.987 173.211 443.671 172.857C443.359 172.487 443.136 172.055 443.006 171.545C442.875 171.035 442.868 170.452 442.986 169.781L443.83 164.996L445.661 165.319L444.844 169.952C444.775 170.348 444.761 170.692 444.817 171C444.873 171.308 444.973 171.546 445.123 171.761C445.277 171.961 445.466 172.136 445.697 172.255C445.928 172.374 446.195 172.469 446.469 172.517C446.744 172.565 447.024 172.583 447.284 172.535C447.542 172.502 447.795 172.405 448.008 172.27C448.22 172.134 448.398 171.93 448.556 171.659C448.711 171.404 448.819 171.061 448.889 170.665L449.706 166.032L451.537 166.355L450.693 171.14ZM464.518 168.408C465.007 168.494 465.451 168.651 465.834 168.891C466.216 169.132 466.542 169.425 466.781 169.765C467.035 170.109 467.202 170.5 467.297 170.941C467.395 171.367 467.391 171.837 467.305 172.325L466.383 177.553L464.552 177.23L465.369 172.597C465.493 171.896 465.419 171.333 465.15 170.892C464.882 170.452 464.441 170.186 463.815 170.075C463.525 170.024 463.227 170.019 462.952 170.065C462.676 170.11 462.42 170.222 462.19 170.37C461.959 170.518 461.766 170.72 461.611 170.975C461.44 171.228 461.338 171.54 461.276 171.891L460.462 176.509L458.631 176.186L459.448 171.553C459.571 170.851 459.498 170.288 459.229 169.848C458.961 169.408 458.52 169.142 457.909 169.034C457.604 168.98 457.321 168.978 457.046 169.023C456.77 169.069 456.514 169.181 456.284 169.329C456.053 169.477 455.86 169.679 455.69 169.931C455.519 170.184 455.417 170.496 455.355 170.847L454.541 175.465L452.71 175.142L454.177 166.82L455.993 167.14L455.813 168.162C456.024 167.947 456.242 167.781 456.485 167.651C456.71 167.534 456.963 167.437 457.193 167.383C457.438 167.332 457.678 167.312 457.915 167.306C458.149 167.316 458.368 167.324 458.597 167.364C459.238 167.477 459.779 167.714 460.221 168.059C460.664 168.404 460.996 168.84 461.205 169.348C461.44 169.091 461.696 168.885 461.96 168.727C462.239 168.572 462.526 168.465 462.804 168.404C463.097 168.346 463.385 168.318 463.668 168.321C463.951 168.324 464.228 168.357 464.488 168.403L464.518 168.408ZM430.488 158.652C430.671 158.684 430.834 158.744 430.973 158.847C431.115 158.935 431.236 159.051 431.337 159.194C431.437 159.338 431.492 159.473 431.539 159.654C431.573 159.817 431.589 159.993 431.557 160.176C431.525 160.359 431.464 160.521 431.361 160.66C431.273 160.802 431.158 160.923 431.017 161.008C430.876 161.093 430.722 161.16 430.559 161.194C430.396 161.228 430.222 161.229 430.039 161.197C429.856 161.165 429.694 161.105 429.552 161.017C429.41 160.929 429.289 160.813 429.185 160.685C429.1 160.544 429.03 160.406 428.996 160.243C428.962 160.08 428.961 159.907 428.993 159.724C429.025 159.541 429.085 159.379 429.173 159.237C429.261 159.095 429.377 158.974 429.505 158.871C429.649 158.771 429.787 158.701 429.966 158.67C430.129 158.635 430.305 158.619 430.488 158.652Z" fill="white"/>
<path d="M278.808 200.814L279.631 205.776L279.696 205.787L282.167 201.406L282.872 201.531L279.856 206.721L279.162 206.598L278.103 200.69L278.808 200.814ZM282.509 207.188L281.804 207.064L284.82 201.874L285.514 201.997L286.573 207.905L285.869 207.781L285.034 202.817L284.991 202.809L282.509 207.188ZM283.151 205.067L285.991 205.567L285.886 206.163L283.046 205.663L283.151 205.067ZM287.437 208.058L288.416 202.508L289.088 202.627L288.214 207.58L290.794 208.035L290.689 208.631L287.437 208.058ZM293.38 203.384L292.401 208.933L291.729 208.814L292.708 203.265L293.38 203.384ZM295.461 209.472L293.749 209.17L294.727 203.621L296.516 203.936C297.054 204.031 297.495 204.224 297.839 204.513C298.183 204.801 298.42 205.17 298.552 205.62C298.683 206.068 298.698 206.579 298.597 207.153C298.495 207.731 298.304 208.211 298.025 208.592C297.746 208.971 297.389 209.238 296.956 209.392C296.523 209.545 296.025 209.572 295.461 209.472ZM294.526 208.693L295.523 208.869C295.982 208.949 296.378 208.928 296.711 208.804C297.043 208.68 297.313 208.468 297.519 208.167C297.724 207.866 297.867 207.49 297.947 207.038C298.026 206.591 298.021 206.192 297.931 205.843C297.842 205.492 297.668 205.204 297.407 204.979C297.147 204.753 296.801 204.601 296.367 204.525L295.294 204.336L294.526 208.693ZM301.949 205.509L302.054 204.913L306.216 205.647L306.111 206.243L304.366 205.935L303.493 210.888L302.821 210.77L303.694 205.817L301.949 205.509ZM306.275 211.379L307.253 205.83L307.925 205.948L307.489 208.419L310.448 208.941L310.884 206.47L311.556 206.588L310.578 212.138L309.906 212.019L310.343 209.537L307.384 209.016L306.947 211.498L306.275 211.379ZM311.923 212.375L312.901 206.826L314.776 207.156C315.21 207.233 315.553 207.37 315.805 207.567C316.057 207.762 316.228 208 316.316 208.28C316.405 208.56 316.42 208.864 316.362 209.19C316.305 209.517 316.187 209.796 316.008 210.025C315.83 210.254 315.59 210.417 315.288 210.513C314.987 210.607 314.621 210.616 314.191 210.54L312.674 210.272L312.781 209.665L314.276 209.929C314.573 209.981 314.819 209.98 315.015 209.925C315.212 209.871 315.366 209.771 315.475 209.626C315.587 209.48 315.662 209.296 315.701 209.074C315.74 208.852 315.733 208.65 315.679 208.469C315.625 208.288 315.515 208.137 315.349 208.014C315.183 207.89 314.949 207.801 314.65 207.749L313.468 207.54L312.595 212.493L311.923 212.375ZM314.975 210.343L315.901 213.076L315.12 212.939L314.216 210.209L314.975 210.343ZM321.424 208.328L322.096 208.447L321.448 212.121C321.381 212.5 321.232 212.823 321 213.09C320.771 213.355 320.48 213.545 320.126 213.659C319.773 213.772 319.379 213.79 318.943 213.713C318.508 213.637 318.144 213.485 317.85 213.258C317.557 213.029 317.347 212.751 317.221 212.423C317.096 212.094 317.067 211.74 317.134 211.361L317.782 207.686L318.454 207.805L317.816 211.425C317.768 211.696 317.785 211.947 317.867 212.18C317.949 212.41 318.09 212.606 318.289 212.765C318.49 212.924 318.745 213.03 319.054 213.085C319.363 213.139 319.639 213.126 319.882 213.046C320.126 212.965 320.325 212.829 320.479 212.64C320.636 212.45 320.738 212.219 320.785 211.948L321.424 208.328Z" fill="white"/>
<path d="M150.817 153.849L155.965 154.757C156.512 154.854 157.068 154.648 157.201 153.892C157.335 153.135 156.882 152.752 156.336 152.656L149.086 151.377L147.459 160.603L153.658 161.696L152.773 166.719L147.918 165.863C147.582 165.803 147.151 165.424 146.879 165.246L146.296 164.862C146.084 164.716 145.906 164.619 145.654 164.575C145.107 164.478 144.556 164.901 144.46 165.448C144.33 166.183 144.927 166.484 145.45 166.836L146.186 167.334C146.67 167.658 146.959 167.86 147.506 167.957L152.171 168.779C152.928 168.913 153.489 168.925 154.125 168.387C154.659 167.94 154.804 167.488 154.919 166.837L155.712 162.34C155.841 161.604 155.867 161.089 155.375 160.439C154.956 159.866 154.47 159.672 153.798 159.554L149.931 158.872L150.817 153.849ZM162.605 163.274L168.531 164.318C169.225 164.441 169.727 164.421 170.337 164.03C171.022 163.588 171.185 163.031 171.318 162.275L172.078 157.967C172.211 157.21 172.248 156.632 171.756 155.982C171.316 155.406 170.851 155.215 170.158 155.093L163.181 153.863C162.635 153.766 162.078 153.972 161.945 154.728C161.812 155.485 162.264 155.868 162.81 155.964L170.04 157.239L169.154 162.261L163.249 161.22C161.673 160.942 160.733 161.6 160.455 163.176L159.247 170.027L168.578 171.672C169.124 171.769 169.681 171.563 169.814 170.807C169.947 170.05 169.495 169.667 168.949 169.571L161.719 168.296L162.605 163.274ZM178.836 165.81L180.222 157.951C180.315 157.426 180.155 156.856 179.357 156.715C178.558 156.574 178.213 157.055 178.121 157.58L176.364 167.541L182.543 168.631L181.787 172.918C181.668 173.59 181.896 174.02 182.652 174.154C183.409 174.287 183.77 173.961 183.888 173.288L184.644 169.001C185.19 169.098 185.747 168.892 185.88 168.136C186.013 167.379 185.561 166.996 185.015 166.9L186.086 160.827C186.178 160.301 186.019 159.731 185.22 159.591C184.421 159.45 184.077 159.931 183.984 160.456L182.913 166.529L178.836 165.81ZM200.289 162.573L199.674 166.061C199.467 167.238 198.941 167.514 198.353 167.41L194.234 166.684C193.688 166.587 193.132 166.793 192.998 167.549C192.865 168.306 193.317 168.689 193.864 168.785L197.982 169.512C198.571 169.615 198.97 170.054 198.763 171.231L198.148 174.719L190.919 173.445C190.372 173.348 189.816 173.554 189.683 174.31C189.549 175.067 190.002 175.45 190.548 175.546L197.777 176.821C198.975 177.032 200.038 176.288 200.249 175.09L200.961 171.055C201.109 170.214 201.048 169.575 200.5 168.872C201.256 168.399 201.531 167.819 201.679 166.978L202.391 162.943C202.602 161.745 201.858 160.682 200.66 160.471L193.431 159.197C192.884 159.1 192.328 159.306 192.195 160.062C192.061 160.819 192.514 161.202 193.06 161.298L200.289 162.573ZM230.539 167.907L230.028 170.807C229.865 171.731 229.911 171.718 229.11 172.205L225.769 174.194C225.162 174.564 225.13 174.623 225.007 175.317L224.114 180.381C223.996 181.054 224.223 181.484 224.98 181.617C225.736 181.751 226.097 181.424 226.216 180.752L226.935 176.675C227.064 175.94 227.114 175.905 227.745 175.518L231.136 173.494C231.813 173.093 231.807 173.005 231.937 172.27L233.011 166.176L223.681 164.53C223.008 164.412 222.526 164.934 222.445 165.396L222.259 166.447C222.178 166.909 222.452 167.564 223.125 167.683C223.797 167.801 224.279 167.28 224.361 166.817L230.539 167.907ZM245.664 170.574L245.049 174.062C244.842 175.239 244.316 175.515 243.728 175.411L239.609 174.685C239.063 174.588 238.506 174.793 238.373 175.55C238.239 176.307 238.692 176.69 239.238 176.786L243.357 177.512C243.946 177.616 244.345 178.055 244.137 179.232L243.522 182.72L236.293 181.445C235.747 181.349 235.191 181.554 235.057 182.311C234.924 183.067 235.376 183.451 235.923 183.547L243.152 184.822C244.35 185.033 245.413 184.289 245.624 183.091L246.335 179.056C246.484 178.215 246.423 177.576 245.875 176.873C246.63 176.399 246.906 175.82 247.054 174.979L247.766 170.944C247.977 169.746 247.233 168.683 246.035 168.472L238.806 167.197C238.259 167.101 237.703 167.306 237.57 168.063C237.436 168.819 237.889 169.203 238.435 169.299L245.664 170.574ZM254.981 170.05C253.825 169.846 252.713 170.625 252.509 171.781L250.367 183.927C250.16 185.104 250.901 186.188 252.098 186.399L258.277 187.489C259.475 187.7 260.541 186.934 260.749 185.758L262.891 173.611C263.094 172.455 262.315 171.343 261.16 171.139L254.981 170.05ZM252.469 184.298L254.611 172.151L260.789 173.24L258.647 185.387L252.469 184.298ZM271.734 187.695L274.246 173.446L269.055 172.531C268.509 172.435 267.953 172.64 267.819 173.397C267.686 174.153 268.139 174.536 268.685 174.633L271.774 175.177L269.632 187.324L266.543 186.779C265.997 186.683 265.441 186.888 265.307 187.645C265.174 188.401 265.626 188.784 266.173 188.881L274.452 190.341C274.999 190.437 275.555 190.232 275.688 189.475L276.622 184.18C276.73 183.57 276.534 183.081 275.757 182.944C274.979 182.806 274.628 183.2 274.521 183.809L273.772 188.054L271.734 187.695ZM298.729 187.276L304.655 188.321C305.349 188.443 305.851 188.423 306.461 188.033C307.146 187.59 307.309 187.034 307.443 186.277L308.202 181.969C308.336 181.213 308.373 180.634 307.881 179.984C307.44 179.408 306.976 179.218 306.282 179.095L299.305 177.865C298.759 177.769 298.203 177.974 298.069 178.731C297.936 179.487 298.388 179.87 298.935 179.967L306.164 181.241L305.278 186.264L299.373 185.223C297.797 184.945 296.858 185.602 296.58 187.179L295.372 194.029L304.702 195.675C305.249 195.771 305.805 195.566 305.938 194.809C306.072 194.053 305.619 193.669 305.073 193.573L297.844 192.298L298.729 187.276ZM321.289 183.908L320.674 187.397C320.466 188.573 319.941 188.849 319.352 188.745L315.233 188.019C314.687 187.923 314.131 188.128 313.997 188.885C313.864 189.641 314.317 190.024 314.863 190.121L318.982 190.847C319.57 190.951 319.97 191.389 319.762 192.566L319.147 196.055L311.918 194.78C311.371 194.684 310.815 194.889 310.682 195.646C310.548 196.402 311.001 196.785 311.547 196.882L318.776 198.156C319.974 198.367 321.037 197.623 321.248 196.425L321.96 192.39C322.108 191.55 322.047 190.911 321.5 190.208C322.255 189.734 322.531 189.154 322.679 188.314L323.39 184.279C323.601 183.081 322.857 182.018 321.659 181.807L314.43 180.532C313.884 180.436 313.328 180.641 313.194 181.398C313.061 182.154 313.513 182.537 314.06 182.634L321.289 183.908ZM330.085 192.48L331.471 184.62C331.564 184.095 331.404 183.525 330.606 183.384C329.807 183.243 329.462 183.724 329.37 184.25L327.613 194.211L333.792 195.3L333.036 199.587C332.917 200.26 333.145 200.69 333.901 200.823C334.658 200.957 335.019 200.63 335.137 199.958L335.893 195.671C336.44 195.767 336.996 195.562 337.129 194.805C337.263 194.049 336.81 193.666 336.264 193.569L337.335 187.496C337.427 186.971 337.268 186.401 336.469 186.26C335.671 186.119 335.326 186.6 335.233 187.125L334.162 193.199L330.085 192.48ZM347.441 188.52L352.589 189.427C353.136 189.524 353.692 189.318 353.825 188.562C353.959 187.805 353.506 187.422 352.96 187.326L345.71 186.047L344.083 195.273L350.282 196.366L349.397 201.389L344.542 200.533C344.206 200.473 343.775 200.094 343.503 199.916L342.92 199.532C342.708 199.386 342.53 199.289 342.278 199.245C341.731 199.149 341.18 199.571 341.084 200.118C340.954 200.853 341.551 201.154 342.074 201.506L342.81 202.004C343.294 202.328 343.583 202.53 344.13 202.627L348.795 203.449C349.552 203.583 350.113 203.595 350.749 203.057C351.283 202.61 351.428 202.158 351.543 201.507L352.336 197.01C352.465 196.274 352.491 195.759 351.999 195.109C351.58 194.536 351.094 194.342 350.422 194.224L346.555 193.542L347.441 188.52ZM375.61 193.487C376.219 193.594 376.735 193.251 376.846 192.621C376.942 192.075 376.59 191.492 376.044 191.396L374.783 191.174C374.047 191.044 373.779 191.582 373.694 192.065L371.23 206.04C371.059 207.007 371.375 207.431 372.362 207.605L380.012 208.954C380.957 209.12 381.437 208.858 381.611 207.871L382.441 203.163C382.612 202.197 382.479 201.718 381.428 201.533L374.409 200.295L375.61 193.487ZM380.217 203.486L379.647 206.722L373.468 205.633L374.039 202.397L380.217 203.486ZM396.913 197.243L396.402 200.143C396.239 201.068 396.285 201.054 395.484 201.541L392.143 203.531C391.536 203.9 391.504 203.96 391.381 204.653L390.488 209.718C390.37 210.39 390.597 210.82 391.354 210.954C392.11 211.087 392.471 210.761 392.59 210.088L393.309 206.011C393.438 205.276 393.488 205.241 394.119 204.854L397.51 202.83C398.187 202.43 398.181 202.342 398.311 201.606L399.385 195.512L390.055 193.867C389.382 193.748 388.9 194.27 388.819 194.732L388.633 195.783C388.552 196.245 388.826 196.9 389.499 197.019C390.171 197.137 390.653 196.616 390.735 196.153L396.913 197.243ZM407.076 204.213L407.961 199.191L409.937 199.539L409.051 204.562L407.076 204.213ZM407.281 196.904C406.567 196.778 406.142 197.223 406.045 197.77L404.974 203.843C404.323 203.728 403.778 203.87 403.336 204.161C402.895 204.451 402.613 204.943 402.499 205.595L401.617 210.596C401.391 211.878 402.045 212.839 403.348 213.068L409.526 214.158C410.829 214.388 411.772 213.709 411.998 212.427L412.88 207.425C412.995 206.774 412.898 206.215 412.583 205.791C412.268 205.367 411.804 205.047 411.153 204.932L412.224 198.859C412.32 198.313 412.073 197.749 411.358 197.623L407.281 196.904ZM403.718 210.967L404.604 205.944L410.782 207.034L409.896 212.056L403.718 210.967ZM425.021 214.723C424.412 214.616 423.897 214.958 423.785 215.589C423.685 216.156 424.02 216.714 424.651 216.825L425.702 217.01C426.332 217.121 426.838 216.712 426.938 216.145L429.45 201.897C429.546 201.35 429.173 200.764 428.584 200.661L420.305 199.201C419.716 199.097 419.165 199.52 419.069 200.066L418.12 205.446C418.024 205.992 418.397 206.578 418.985 206.682L426.215 207.957L425.021 214.723ZM420.407 204.766L420.985 201.487L427.163 202.577L426.585 205.855L420.407 204.766Z" fill="white"/>
<path d="M273.789 214.289C272.949 214.141 272.141 214.707 271.994 215.546L270.438 224.367C270.288 225.222 270.825 226.009 271.695 226.162L276.182 226.953C277.052 227.107 277.826 226.551 277.977 225.696L279.532 216.876C279.68 216.036 279.115 215.229 278.275 215.081L273.789 214.289ZM271.964 224.636L273.52 215.816L278.006 216.607L276.451 225.427L271.964 224.636ZM285.954 227.103L287.778 216.756L284.009 216.092C283.612 216.022 283.208 216.171 283.111 216.72C283.015 217.269 283.343 217.548 283.74 217.618L285.983 218.013L284.428 226.834L282.185 226.438C281.788 226.368 281.384 226.517 281.287 227.067C281.19 227.616 281.519 227.894 281.916 227.964L287.928 229.025C288.325 229.095 288.729 228.945 288.826 228.396L289.504 224.55C289.582 224.108 289.44 223.752 288.875 223.653C288.311 223.553 288.056 223.839 287.978 224.281L287.434 227.364L285.954 227.103ZM301.369 220.506C301.49 220.354 301.599 220.184 301.642 219.94C301.712 219.544 301.417 219.161 301.02 219.091C300.639 219.024 300.407 219.266 300.17 219.539L292.738 228.315C292.542 228.532 292.314 228.759 292.262 229.049C292.193 229.446 292.518 229.834 292.899 229.901C293.281 229.968 293.501 229.787 293.741 229.499L301.369 220.506ZM305.558 226.799L309.861 227.558C310.365 227.647 310.729 227.632 311.173 227.348C311.67 227.027 311.788 226.623 311.885 226.074L312.437 222.945C312.534 222.396 312.561 221.976 312.203 221.504C311.884 221.085 311.546 220.947 311.042 220.858L305.976 219.965C305.579 219.895 305.175 220.044 305.078 220.593C304.982 221.143 305.31 221.421 305.707 221.491L310.957 222.417L310.313 226.064L306.025 225.308C304.881 225.106 304.198 225.584 303.997 226.728L303.119 231.703L309.895 232.898C310.292 232.968 310.696 232.819 310.793 232.269C310.89 231.72 310.561 231.442 310.164 231.372L304.915 230.446L305.558 226.799ZM318.964 223.829L322.703 224.488C323.1 224.558 323.504 224.409 323.601 223.859C323.697 223.31 323.369 223.032 322.972 222.962L317.707 222.034L316.526 228.733L321.028 229.527L320.385 233.174L316.859 232.552C316.615 232.509 316.302 232.234 316.104 232.105L315.682 231.825C315.527 231.72 315.398 231.65 315.215 231.617C314.818 231.547 314.418 231.854 314.348 232.251C314.254 232.785 314.687 233.003 315.067 233.259L315.601 233.621C315.953 233.856 316.163 234.003 316.56 234.073L319.948 234.67C320.497 234.767 320.905 234.776 321.367 234.386C321.755 234.061 321.86 233.733 321.943 233.26L322.519 229.994C322.613 229.46 322.632 229.086 322.274 228.614C321.97 228.198 321.617 228.057 321.129 227.971L318.321 227.476L318.964 223.829Z" fill="white"/>
<path d="M425.13 258.553C427.163 258.911 428.755 259.633 429.789 260.242L429.977 260.355L428.395 264.885L427.93 264.567C426.997 263.952 425.74 263.28 423.916 263.006C421.712 262.618 420.557 263.385 420.372 264.3C420.193 265.311 421.272 266.188 423.051 267.521C425.997 269.627 427.157 271.774 426.701 274.229C425.866 278.701 421.541 280.924 415.681 279.891C413.305 279.449 411.093 278.565 409.845 277.768L409.656 277.643L411.292 272.933L411.967 273.408C413.64 274.533 414.774 275.087 417.004 275.48C418.612 275.764 420.453 275.401 420.73 273.958C420.896 273.016 420.284 272.197 418.309 270.759C416.378 269.352 413.856 267.13 414.448 264.037C415.213 259.836 419.615 257.58 425.13 258.553ZM413.319 256.874L406.018 277.855L400.434 276.87L407.735 255.889L413.319 256.874ZM444.385 262.352L445.082 284.743L439.912 283.831C439.912 283.831 439.888 282.956 439.864 282.071L439.853 281.694C439.839 281.196 439.825 280.736 439.816 280.474L432.647 279.21C432.338 279.747 430.903 282.243 430.903 282.243L425.044 281.21L436.831 262.867C437.653 261.567 438.734 261.355 440.066 261.59L444.385 262.352ZM389.03 252.591C390.185 252.839 391.075 253.365 391.222 254.662L391.238 254.852L391.441 265.121L391.512 268.214L399.577 254.451L405.482 255.492L392.901 275.519L386.995 274.477L385.328 254.834C383.916 253.636 382.271 252.567 380.394 251.668L379.877 251.427L380.046 251.007L389.03 252.591ZM439.427 267.494C439.01 268.25 438.297 269.475 438.328 269.433L438.304 269.473C438.166 269.71 437.437 270.961 436.686 272.249L436.436 272.678C435.854 273.677 435.297 274.631 435.033 275.082L439.674 275.901C439.635 274.78 439.489 269.424 439.489 269.424L439.427 267.494Z" fill="white"/>
<path d="M198.553 104.287L161.485 97.7512C158.463 97.2184 155.558 99.3304 155.007 102.455L154.018 108.063L154.445 108.139L155.434 102.53C155.942 99.6496 158.617 97.6855 161.41 98.1779L173.099 100.239C173.609 100.47 173.981 101.039 173.981 101.039L177.876 107.242C177.876 107.242 178.128 107.773 178.077 108.063L177.505 111.309C177.354 112.163 176.562 112.73 175.783 112.593L153.899 108.734L152.854 114.663L153.266 114.735L154.126 109.858C154.207 109.401 154.394 109.23 154.883 109.316L171.273 112.206L169.228 123.804L152.822 120.912C152.41 120.839 152.236 120.667 152.312 120.146L153.172 115.269L152.76 115.196L151.717 121.11L173.601 124.968C174.38 125.106 174.93 125.91 174.78 126.763L174.204 130.025C174.153 130.315 173.716 130.74 173.734 130.728L170.034 133.595L167.823 135.249C167.59 135.412 167.083 135.699 166.61 135.616L155.164 133.598C152.372 133.105 150.524 130.375 151.035 127.48L152.032 121.825L151.62 121.752L150.623 127.407C150.072 130.531 152.08 133.51 155.102 134.043L192.17 140.579C195.192 141.111 198.097 138.999 198.648 135.875L199.645 130.221L199.218 130.145L198.221 135.8C197.713 138.68 195.041 140.629 192.263 140.139L180.665 138.094C180.314 138.032 179.992 137.63 179.828 137.397L178.293 135.036L175.81 131.094C175.81 131.094 175.531 130.62 175.596 130.255L176.171 126.993C176.322 126.139 177.114 125.572 177.877 125.707L199.776 129.568L200.819 123.655L200.392 123.579L199.534 128.441C199.44 128.974 199.218 129.077 198.79 129.001L182.4 126.111L184.324 115.199C184.389 114.833 184.733 114.579 185.099 114.644L200.818 117.416C201.306 117.502 201.424 117.727 201.338 118.214L200.483 123.061L200.91 123.136L201.95 117.238L185.163 114.278C184.599 114.179 184.058 114.57 183.956 115.149L182.031 126.062L178.002 125.352C176.98 125.171 175.987 125.892 175.802 126.944L175.227 130.205C175.117 130.83 175.477 131.286 175.489 131.304L179.196 137.144C179.196 137.144 179.368 137.866 178.803 137.766L168.701 135.985C168.044 135.869 168.514 135.26 168.514 135.26L174.012 131.028C174.012 131.028 174.531 130.585 174.617 130.098L175.192 126.836C175.38 125.769 174.691 124.768 173.653 124.585L169.624 123.874L171.669 112.276L175.698 112.986C176.736 113.169 177.729 112.449 177.914 111.397L178.486 108.151C178.572 107.663 178.236 107.069 178.236 107.069L174.528 101.151C174.528 101.151 174.38 100.653 174.699 100.537L185.199 102.388C185.495 102.582 185.226 103.037 185.226 103.037L179.735 107.318C179.735 107.318 179.222 107.636 179.112 108.261L178.54 111.507L178.906 111.572L179.478 108.326C179.543 107.96 179.966 107.61 179.966 107.61L185.729 103.126C185.729 103.126 186.258 102.716 186.725 102.657L198.521 104.737C201.314 105.23 203.159 107.975 202.648 110.871L201.659 116.48L202.086 116.555L203.075 110.946C203.629 107.807 201.618 104.843 198.597 104.311" fill="#221F1F"/>
<path d="M194.496 51.1787C194.023 51.6296 193.508 51.9631 192.917 52.1889C192.344 52.4023 191.742 52.5161 191.146 52.5053C190.535 52.4918 189.958 52.3743 189.389 52.1169C188.818 51.8748 188.315 51.5188 187.863 51.0463C187.411 50.5738 187.077 50.0592 186.851 49.4692C186.637 48.8972 186.523 48.2956 186.533 47.7003C186.547 47.0898 186.664 46.5133 186.921 45.9458C187.163 45.3757 187.52 44.8727 187.993 44.4218C188.465 43.9709 188.981 43.6374 189.571 43.4116C190.144 43.1982 190.746 43.0844 191.342 43.0952C191.953 43.1087 192.528 43.2415 193.099 43.4836C193.67 43.7257 194.174 44.0817 194.625 44.5542C194.996 44.9496 195.298 45.3799 195.5 45.8399C195.717 46.3025 195.835 46.7947 195.904 47.2941L201.15 42.2632L202.427 43.5884L194.511 51.1814L194.496 51.1787ZM189.169 49.7994C189.433 50.0818 189.742 50.2934 190.092 50.4494C190.443 50.6054 190.809 50.67 191.168 50.6862C191.545 50.6898 191.902 50.6271 192.255 50.5007C192.61 50.3591 192.928 50.1637 193.213 49.884C193.499 49.6043 193.71 49.2959 193.851 48.9436C193.992 48.5912 194.069 48.2434 194.088 47.8695C194.091 47.493 194.028 47.1361 193.902 46.7838C193.76 46.4288 193.564 46.1114 193.299 45.8289C193.034 45.5465 192.725 45.3349 192.375 45.1789C192.025 45.0228 191.659 44.9583 191.3 44.9421C190.923 44.9385 190.565 45.0012 190.213 45.1276C189.86 45.254 189.54 45.4646 189.257 45.7291C188.974 45.9935 188.76 46.3172 188.619 46.6695C188.478 47.0218 188.398 47.3849 188.382 47.7435C188.379 48.1201 188.442 48.4769 188.569 48.8292C188.711 49.1843 188.906 49.5017 189.171 49.7841L189.169 49.7994Z" fill="url(#paint2_linear_211_85)"/>
<path d="M194.625 44.5542C195.077 45.0267 195.408 45.5566 195.622 46.1286C195.833 46.7158 195.935 47.2995 195.922 47.91C195.908 48.5206 195.791 49.097 195.546 49.6825C195.304 50.2526 194.96 50.7735 194.487 51.2244C194.015 51.6753 193.484 52.0061 192.912 52.2194C192.324 52.4301 191.739 52.5313 191.128 52.5178C190.517 52.5043 189.94 52.3868 189.353 52.142C188.782 51.8999 188.261 51.5565 187.809 51.084C187.438 50.6886 187.136 50.2582 186.922 49.7804C186.707 49.3025 186.571 48.8228 186.52 48.3109L181.256 53.3544L179.979 52.0292L187.916 44.4084C188.392 43.9422 188.907 43.6088 189.497 43.3829C190.07 43.1696 190.672 43.0557 191.268 43.0665C191.88 43.08 192.472 43.2002 193.043 43.4423C193.614 43.6845 194.133 44.0431 194.585 44.5156L194.625 44.5542ZM189.151 49.8119C189.415 50.0944 189.74 50.3087 190.092 50.4494C190.445 50.5902 190.809 50.67 191.186 50.6737C191.563 50.6773 191.92 50.6146 192.273 50.4882C192.625 50.3618 192.961 50.1538 193.229 49.8867C193.511 49.6222 193.726 49.2986 193.866 48.9463C194.007 48.5939 194.087 48.2308 194.09 47.8543C194.094 47.4778 194.031 47.1209 193.904 46.7686C193.778 46.4162 193.569 46.0809 193.302 45.8137C193.021 45.5286 192.7 45.299 192.347 45.1583C191.994 45.0175 191.631 44.9377 191.254 44.934C190.877 44.9304 190.519 44.9931 190.167 45.1195C189.811 45.2612 189.494 45.4566 189.208 45.7363C188.923 46.016 188.709 46.3396 188.568 46.6919C188.427 47.0443 188.347 47.4073 188.344 47.7839C188.34 48.1604 188.403 48.5173 188.53 48.8696C188.672 49.2247 188.868 49.542 189.148 49.8272L189.151 49.8119Z" fill="url(#paint3_linear_211_85)"/>
<path d="M187.259 50.4528L190.408 56.87L198.008 53.4793L195.909 47.0906L194.505 48.808L192.045 51.784L187.259 50.4528Z" fill="url(#paint4_linear_211_85)"/>
<path d="M145.961 35.1562C144.938 34.9759 143.968 35.2134 143.017 35.8785L143.186 34.9184L141.157 34.5605L139.058 46.4636L141.087 46.8215L141.813 42.7065C142.477 43.6721 143.335 44.2478 144.358 44.428C145.548 44.6379 146.618 44.3709 147.549 43.6394C148.499 42.8953 149.071 41.8805 149.305 40.5545C149.539 39.2286 149.341 38.0308 148.703 37.0069C148.081 35.9857 147.151 35.3661 145.946 35.1535L145.961 35.1562ZM146.188 42.0793C145.636 42.532 145.01 42.6888 144.308 42.565C143.561 42.4332 143.011 42.0691 142.645 41.4702C142.281 40.8561 142.158 40.1272 142.303 39.3042C142.448 38.4812 142.8 37.8204 143.365 37.3857C143.929 36.9509 144.57 36.7967 145.318 36.9286C146.02 37.0524 146.551 37.429 146.931 38.0458C147.294 38.66 147.402 39.3862 147.254 40.2244C147.115 41.0169 146.77 41.6319 146.203 42.082L146.188 42.0793ZM158.544 38.6636C157.883 37.6827 157.043 37.0945 156.02 36.9142C154.83 36.7044 153.776 36.9741 152.829 37.7029C151.879 38.447 151.307 39.4618 151.073 40.7878C150.839 42.1137 151.037 43.3115 151.657 44.348C152.295 45.3719 153.227 45.9762 154.448 46.1915C155.409 46.361 156.379 46.1235 157.356 45.4942L157.194 46.4087L159.239 46.7693L160.787 37.9905L158.742 37.6299L158.562 38.651L158.544 38.6636ZM157.023 43.9898C156.474 44.4273 155.818 44.5787 155.07 44.4469C154.368 44.3231 153.836 43.9465 153.457 43.3297C153.094 42.7155 153.001 41.992 153.149 41.1537C153.288 40.3612 153.633 39.7462 154.2 39.2962C154.767 38.8462 155.393 38.6893 156.095 38.8131C156.843 38.945 157.392 39.309 157.758 39.9079C158.122 40.5221 158.245 41.251 158.1 42.074C157.955 42.897 157.605 43.5425 157.038 43.9925L157.023 43.9898ZM164.488 37.7945C164.854 37.859 165.181 37.7909 165.486 37.5776C165.791 37.3642 165.967 37.0809 166.034 36.6999C166.102 36.3189 166.031 36.0078 165.817 35.7029C165.603 35.3981 165.319 35.2224 164.938 35.1551C164.556 35.0878 164.245 35.1586 163.94 35.372C163.635 35.5853 163.459 35.8686 163.397 36.2191C163.332 36.5849 163.398 36.9265 163.612 37.2314C163.826 37.5362 164.109 37.7119 164.491 37.7792L164.488 37.7945Z" fill="white"/>
<path d="M165.344 38.8257L163.315 38.4678L161.767 47.2464L163.796 47.6042L165.344 38.8257Z" fill="white"/>
<path d="M169.217 46.9414C168.881 46.8822 168.595 46.7217 168.391 46.4501C168.287 46.3219 168.153 46.0152 167.984 45.5454L166.102 46.0464C166.459 47.5867 167.386 48.4887 168.851 48.747C169.706 48.8977 170.487 48.7525 171.191 48.3268C171.916 47.8732 172.363 47.2133 172.513 46.3599C172.629 45.7045 172.54 45.1388 172.226 44.6905C171.929 44.2296 171.272 43.6737 170.269 43.0254C169.55 42.5529 169.212 42.1476 169.271 41.8123C169.306 41.6142 169.394 41.4726 169.553 41.3749C169.712 41.2772 169.875 41.2431 170.058 41.2754C170.455 41.3453 170.727 41.6762 170.893 42.2554L172.73 41.6522C172.385 40.397 171.648 39.6698 170.533 39.4734C169.77 39.3388 169.071 39.467 168.448 39.8758C167.841 40.2872 167.471 40.8663 167.337 41.6284C167.235 42.2076 167.304 42.7069 167.545 43.1265C167.738 43.4592 168.099 43.8214 168.643 44.2159C168.838 44.3603 169.02 44.4867 169.215 44.6311C169.397 44.7575 169.592 44.9018 169.772 45.0435C170.249 45.4578 170.45 45.8388 170.388 46.1893C170.278 46.8142 169.885 47.0751 169.199 46.954L169.217 46.9414ZM177.611 50.2916C178.572 50.4611 179.542 50.2236 180.519 49.5943L180.358 50.5088L182.403 50.8694L183.951 42.0906L181.906 41.73L181.726 42.7512C181.064 41.7703 180.224 41.1821 179.202 41.0018C178.011 40.7919 176.957 41.0617 176.01 41.7905C175.06 42.5345 174.488 43.5494 174.254 44.8753C174.021 46.2013 174.218 47.3991 174.838 48.4355C175.476 49.4594 176.408 50.0638 177.629 50.2791L177.611 50.2916ZM177.363 43.3963C177.93 42.9463 178.556 42.7895 179.258 42.9132C179.99 43.0424 180.555 43.4091 180.922 44.008C181.285 44.6222 181.409 45.3511 181.264 46.1741C181.118 46.9971 180.769 47.6426 180.201 48.0926C179.652 48.5301 178.996 48.6815 178.248 48.5497C177.546 48.4259 177.015 48.0493 176.636 47.4325C176.272 46.8183 176.179 46.0948 176.327 45.2565C176.467 44.464 176.811 43.849 177.378 43.399L177.363 43.3963ZM145.399 50.8349C144.738 49.854 143.898 49.2658 142.875 49.0855C141.7 48.8783 140.646 49.1481 139.712 49.8949C138.777 50.6416 138.19 51.6537 137.959 52.9645C137.728 54.2752 137.923 55.4882 138.543 56.5247C139.18 57.5486 140.097 58.1502 141.287 58.3601C142.294 58.5377 143.265 58.3002 144.195 57.6628L144.034 58.5773L146.064 58.9352L148.297 46.27L146.267 45.9121L145.402 50.8197L145.399 50.8349ZM143.878 56.1611C143.329 56.5986 142.673 56.75 141.925 56.6182C141.223 56.4944 140.691 56.1178 140.328 55.5036C139.979 54.8922 139.871 54.166 140.019 53.3277C140.159 52.5352 140.503 51.9202 141.055 51.4675C141.622 51.0175 142.232 50.8579 142.934 50.9817C143.667 51.1109 144.216 51.4749 144.583 52.0738C144.947 52.688 145.055 53.4142 144.91 54.2372C144.764 55.0602 144.415 55.7057 143.863 56.1584L143.878 56.1611ZM153.692 58.3315C153.313 58.5162 152.879 58.5655 152.376 58.4767C151.735 58.3637 151.238 58.0561 150.899 57.5719C150.562 57.0725 150.435 56.453 150.501 55.7259L156.757 56.8292L156.841 56.3567C157.096 54.9089 156.929 53.7164 156.341 52.7643C155.739 51.8094 154.789 51.2176 153.507 50.9916C152.225 50.7655 151.142 51.0147 150.216 51.7157C149.303 52.4347 148.722 53.4952 148.478 54.8821C148.233 56.2691 148.429 57.4821 149.059 58.4576C149.705 59.4357 150.667 60.0455 151.98 60.2769C152.438 60.3576 152.858 60.3846 153.271 60.3631C153.668 60.3389 154.061 60.2511 154.435 60.0969C154.808 59.9427 155.159 59.7374 155.521 59.4712C155.867 59.2023 156.209 58.8697 156.564 58.4609L155.024 57.1993C154.497 57.782 154.052 58.1594 153.692 58.3315ZM151.342 53.4542C151.499 53.2776 151.681 53.1368 151.888 53.032C152.096 52.9271 152.297 52.8527 152.54 52.8168C152.767 52.7783 153.001 52.7882 153.245 52.8313C154.314 53.0196 154.906 53.6741 154.99 54.8047L150.946 54.0916C151.053 53.8433 151.197 53.6487 151.354 53.4721L151.342 53.4542ZM168.892 53.6888C167.809 53.4977 166.879 53.7738 166.085 54.5295C165.658 53.5585 164.955 52.9945 163.978 52.8223C163.536 52.7443 163.156 52.7559 162.839 52.8572C162.54 52.9459 162.154 53.1763 161.702 53.5053L161.845 52.6975L159.83 52.3423L158.282 61.1211L160.297 61.4763L161.095 56.9497C161.256 56.0352 161.512 55.3889 161.846 55.0079C162.181 54.6269 162.631 54.4861 163.195 54.5857C164.096 54.7445 164.401 55.5998 164.125 57.1696L163.27 62.0162L165.3 62.3741L166.098 57.8476C166.262 56.9179 166.502 56.2688 166.837 55.8878C167.171 55.5068 167.603 55.3786 168.168 55.4782C168.641 55.5616 168.96 55.8064 169.111 56.1946C169.248 56.5801 169.25 57.1933 169.102 58.0316L168.242 62.9087L170.272 63.2666L171.229 57.8408C171.651 55.448 170.886 54.0717 168.918 53.7246L168.892 53.6888ZM180.591 57.0401C179.93 56.0592 179.089 55.471 178.082 55.2934C176.907 55.0862 175.852 55.356 174.906 56.0848C173.971 56.8315 173.384 57.8437 173.15 59.1696C172.916 60.4956 173.114 61.6934 173.734 62.7298C174.372 63.7537 175.288 64.3554 176.494 64.568C177.455 64.7375 178.41 64.4973 179.387 63.868L179.225 64.7825L181.255 65.1404L182.803 56.3616L180.773 56.0037L180.593 57.0249L180.591 57.0401ZM179.069 62.3663C178.52 62.8038 177.864 62.9552 177.116 62.8234C176.414 62.6996 175.883 62.323 175.519 61.7088C175.17 61.0974 175.062 60.3712 175.21 59.5329C175.35 58.7404 175.694 58.1254 176.246 57.6727C176.814 57.2227 177.424 57.0631 178.126 57.1869C178.858 57.3161 179.408 57.6801 179.774 58.279C180.138 58.8932 180.246 59.6194 180.101 60.4424C179.956 61.2654 179.606 61.9109 179.054 62.3636L179.069 62.3663ZM189.8 57.3753C188.915 57.2192 188.059 57.4298 187.234 58.0071L187.376 57.1993L185.346 56.8415L183.798 65.6202L185.828 65.9781L186.575 61.7411C186.769 60.6438 187.04 59.906 187.393 59.5124C187.746 59.1189 188.274 58.9764 188.93 59.0921C189.541 59.1997 189.939 59.4427 190.108 59.8184C190.293 60.1967 190.295 60.8099 190.142 61.6787L189.277 66.5863L191.307 66.9441L192.255 61.5641C192.473 60.3296 192.387 59.3873 191.996 58.7525C191.544 58.0129 190.807 57.5529 189.784 57.3726L189.8 57.3753ZM201.666 60.7562C201.005 59.7753 200.164 59.1871 199.142 59.0069C197.967 58.7997 196.912 59.0694 195.978 59.8162C195.044 60.5629 194.456 61.575 194.225 62.8858C193.994 64.1965 194.189 65.4095 194.809 66.446C195.447 67.4699 196.363 68.0715 197.554 68.2814C198.561 68.459 199.531 68.2215 200.462 67.5841L200.301 68.4986L202.33 68.8565L204.432 56.9381L202.402 56.5802L201.669 60.741L201.666 60.7562ZM200.144 66.0824C199.595 66.5199 198.939 66.6713 198.191 66.5395C197.489 66.4157 196.958 66.0391 196.594 65.425C196.246 64.8135 196.138 64.0873 196.285 63.249C196.425 62.4565 196.77 61.8415 197.322 61.3888C197.889 60.9388 198.499 60.7793 199.201 60.903C199.933 61.0322 200.483 61.3962 200.849 61.9952C201.213 62.6093 201.321 63.3355 201.176 64.1585C201.031 64.9815 200.681 65.627 200.129 66.0797L200.144 66.0824ZM205.477 46.6405C205.025 45.9009 204.272 45.4382 203.25 45.2579C202.365 45.1018 201.494 45.3097 200.669 45.887L200.811 45.0793L198.766 44.7187L197.218 53.4975L199.263 53.858L200.01 49.6211C200.204 48.5237 200.475 47.7859 200.828 47.3923C201.196 47.0015 201.709 46.8563 202.381 46.9747C203.006 47.085 203.404 47.328 203.574 47.7037C203.759 48.082 203.776 48.698 203.623 49.5667L202.758 54.4743L204.803 54.8348L205.751 49.4548C205.969 48.2203 205.883 47.278 205.477 46.6405Z" fill="white"/>
<path d="M195.102 45.0628C194.345 44.0021 193.309 43.3637 191.996 43.1323C190.684 42.9008 189.507 43.1491 188.433 43.8868C187.361 44.6094 186.728 45.6134 186.505 46.8784C186.269 48.2196 186.512 49.4255 187.257 50.4682C187.983 51.5235 189.017 52.1772 190.329 52.4086C191.642 52.64 192.864 52.3998 193.936 51.6773C195.007 50.9548 195.646 49.9202 195.877 48.6095C196.108 47.2988 195.844 46.1207 195.099 45.078L195.102 45.0628Z" fill="#F9A01B"/>
<path d="M192.855 46.2065L191.878 46.0343C192.05 46.2217 192.159 46.4924 192.149 46.8206L192.729 46.9228C192.82 46.939 192.883 47.0286 192.867 47.1201C192.851 47.2115 192.761 47.2743 192.669 47.2581L192.089 47.1559C191.887 47.8587 191.244 48.2012 190.354 48.0756C190.716 48.6108 191.079 49.225 191.45 49.8876C191.558 50.0794 191.39 50.317 191.177 50.2793C191.101 50.2659 191.03 50.2219 190.995 50.1529C190.608 49.4876 190.247 48.8582 189.79 48.149C189.727 48.0594 189.7 47.9446 189.722 47.8227L189.727 47.7922C189.749 47.6703 189.874 47.5824 189.996 47.604L190.149 47.6309C190.897 47.7627 191.365 47.5153 191.494 47.0509L190.075 46.8007C189.983 46.7845 189.921 46.6949 189.937 46.6034C189.953 46.512 190.043 46.4492 190.134 46.4654L191.523 46.7102C191.501 46.2978 191.157 46.0172 190.562 45.9122L190.287 45.8638C190.165 45.8423 190.077 45.7168 190.099 45.5948C190.12 45.4729 190.246 45.385 190.368 45.4066L192.901 45.8533C192.993 45.8694 193.056 45.9591 193.04 46.0505C193.024 46.142 192.934 46.2047 192.842 46.1886L192.855 46.2065Z" fill="white"/>
<path d="M327.911 160.428C324.371 159.804 321.288 157.83 319.226 154.889C317.182 151.936 316.397 148.356 317.024 144.805C318.303 137.55 325.294 132.701 332.589 133.988C336.13 134.612 339.215 136.57 341.259 139.523C343.321 142.464 344.108 146.029 343.485 149.565C342.861 153.101 340.89 156.163 337.946 158.221C335.003 160.28 331.434 161.065 327.893 160.44L327.911 160.428ZM332.361 135.283C325.783 134.123 319.474 138.495 318.321 145.033C317.754 148.249 318.46 151.47 320.303 154.136C322.149 156.787 324.935 158.567 328.124 159.13C331.314 159.692 334.538 158.988 337.194 157.13C339.851 155.273 341.629 152.506 342.19 149.321C342.752 146.136 342.045 142.915 340.185 140.261C338.324 137.607 335.553 135.83 332.363 135.268L332.361 135.283Z" fill="white"/>
<path d="M336.636 149.945C335.629 149.767 334.752 149.204 334.174 148.379C333.596 147.554 333.366 146.539 333.54 145.549C333.715 144.558 334.278 143.683 335.122 143.093C335.965 142.503 336.964 142.286 337.955 142.461C340.016 142.825 341.399 144.797 341.036 146.855C340.67 148.927 338.696 150.308 336.636 149.945ZM336.743 149.335C338.468 149.639 340.122 148.469 340.426 146.747C340.729 145.025 339.572 143.375 337.848 143.071C337.009 142.923 336.174 143.106 335.474 143.595C334.774 144.085 334.298 144.818 334.151 145.656C334.003 146.495 334.186 147.328 334.677 148.028C335.167 148.727 335.904 149.187 336.743 149.335ZM324.422 155.853C323.43 155.678 322.554 155.115 321.976 154.29C321.385 153.447 321.167 152.45 321.344 151.444C321.522 150.438 322.082 149.579 322.911 148.986C323.736 148.409 324.752 148.179 325.744 148.354C326.752 148.532 327.613 149.092 328.204 149.935C328.795 150.778 329.009 151.79 328.835 152.781C328.472 154.838 326.482 156.216 324.422 155.853ZM325.637 148.964C324.798 148.816 323.963 148.999 323.263 149.488C322.563 149.978 322.087 150.711 321.94 151.549C321.792 152.387 321.988 153.239 322.478 153.938C322.968 154.638 323.69 155.095 324.53 155.243C326.254 155.547 327.905 154.393 328.224 152.673C328.369 151.85 328.189 151.001 327.698 150.302C327.208 149.602 326.474 149.127 325.634 148.979L325.637 148.964ZM330.77 143.945C329.779 143.77 328.902 143.206 328.324 142.382C327.748 141.542 327.518 140.527 327.695 139.521C328.058 137.463 330.048 136.085 332.093 136.446C333.085 136.621 333.961 137.184 334.539 138.009C335.13 138.852 335.345 139.864 335.17 140.855C334.808 142.912 332.833 144.293 330.758 143.927L330.77 143.945ZM331.985 137.056C330.261 136.752 328.609 137.906 328.306 139.628C328.158 140.467 328.339 141.316 328.829 142.015C329.319 142.714 330.041 143.172 330.881 143.32C332.605 143.624 334.272 142.472 334.575 140.75C334.723 139.911 334.542 139.062 334.052 138.363C333.562 137.664 332.84 137.206 332 137.058L331.985 137.056ZM332.678 157.308C330.618 156.945 329.238 154.957 329.6 152.9C329.775 151.909 330.323 151.032 331.167 150.442C332.01 149.852 333.011 149.62 334.018 149.797C335.01 149.972 335.887 150.535 336.48 151.363C337.074 152.19 337.289 153.203 337.111 154.209C336.934 155.215 336.373 156.074 335.53 156.664C334.704 157.241 333.688 157.471 332.696 157.296L332.678 157.308ZM333.893 150.42C333.054 150.272 332.201 150.467 331.501 150.956C330.801 151.446 330.341 152.182 330.196 153.005C329.892 154.727 331.049 156.377 332.771 156.696C333.595 156.841 334.445 156.661 335.145 156.172C335.845 155.682 336.32 154.949 336.468 154.111C336.616 153.273 336.435 152.424 335.945 151.724C335.454 151.025 334.732 150.568 333.893 150.42ZM323.376 147.685C322.369 147.508 321.508 146.947 320.932 146.107C320.357 145.267 320.142 144.255 320.319 143.249C320.494 142.258 321.057 141.383 321.883 140.806C322.708 140.229 323.724 139.999 324.716 140.174C325.724 140.352 326.585 140.912 327.176 141.755C327.751 142.595 327.984 143.595 327.807 144.601C327.444 146.658 325.454 148.036 323.379 147.67L323.376 147.685ZM323.484 147.076C325.208 147.38 326.875 146.228 327.194 144.508C327.339 143.685 327.158 142.836 326.668 142.137C326.177 141.437 325.443 140.962 324.603 140.814C323.779 140.669 322.929 140.849 322.229 141.338C321.529 141.828 321.057 142.546 320.909 143.384C320.761 144.222 320.942 145.072 321.432 145.771C321.922 146.47 322.642 146.943 323.481 147.091L323.484 147.076ZM330.038 148.278C330.663 148.389 331.22 148 331.327 147.39C331.438 146.765 331.048 146.209 330.44 146.086C329.814 145.976 329.243 146.362 329.132 146.987C329.025 147.597 329.412 148.168 330.038 148.278ZM341.356 160.567C341.264 160.551 341.16 160.517 341.059 160.468L340.856 160.369C340.567 160.224 340.278 160.078 340.009 159.905C339.29 159.433 338.644 158.816 338.113 158.078L337.773 157.594L339.733 155.849L340.17 156.225C341.048 156.961 342.102 157.32 343.029 157.594L343.868 157.836L343.407 158.572C343.343 158.67 343.317 158.729 343.275 158.784L342.966 159.201C342.721 159.519 342.489 159.855 342.259 160.176C342.044 160.5 341.707 160.629 341.356 160.567ZM339.553 157.766C339.905 158.174 340.287 158.509 340.725 158.79C340.923 158.919 341.138 159.036 341.372 159.14C341.516 158.945 341.661 158.751 341.79 158.554C341.122 158.326 340.437 158.016 339.779 157.555L339.555 157.751L339.553 157.766Z" fill="white"/>
<path d="M253.159 144.952L253.322 143.849C253.504 142.64 253.668 141.443 253.865 140.236C254.002 139.459 254.142 138.667 254.279 137.889C254.357 137.447 254.435 137.005 254.513 136.563C254.599 136.076 254.885 135.702 255.327 135.513C255.634 135.378 255.936 135.274 256.237 135.17C257.377 134.774 258.138 134.028 258.559 132.892C258.799 132.243 258.826 131.557 258.818 130.974C258.806 129.793 258.646 128.649 258.305 127.552C258.084 126.837 257.711 126.19 257.364 125.657C257.068 125.196 256.645 124.918 256.182 124.867C255.673 124.809 255.123 124.979 254.748 125.322C254.147 125.876 253.723 126.32 253.359 126.774C252.429 127.946 251.824 129.143 251.494 130.39C251.132 131.819 251.348 133.004 252.164 133.996C252.308 134.163 252.472 134.302 252.664 134.462C252.748 134.524 252.829 134.601 252.91 134.678L253.142 134.876C253.266 134.976 253.39 135.077 253.496 135.19C253.875 135.54 254.016 135.989 253.922 136.522C253.56 138.486 253.195 140.464 252.818 142.425C252.748 142.821 252.66 143.23 252.56 143.621L252.326 144.68L251.721 144.541L251.952 143.498C252.037 143.104 252.123 142.711 252.192 142.315C252.57 140.354 252.932 138.39 253.296 136.412C253.353 136.092 253.283 135.86 253.069 135.649C252.96 135.551 252.836 135.451 252.728 135.353L252.483 135.137C252.399 135.075 252.333 135.001 252.25 134.939C252.043 134.776 251.838 134.599 251.669 134.396C250.737 133.258 250.464 131.858 250.892 130.236C251.238 128.899 251.886 127.63 252.876 126.39C253.26 125.908 253.702 125.452 254.324 124.87C254.83 124.409 255.566 124.162 256.259 124.252C256.719 124.318 257.387 124.546 257.894 125.326C258.266 125.895 258.665 126.578 258.902 127.374C259.251 128.52 259.431 129.73 259.432 130.972C259.429 131.616 259.407 132.366 259.135 133.104C258.652 134.417 257.739 135.309 256.433 135.755C256.132 135.859 255.845 135.966 255.556 136.087C255.301 136.199 255.159 136.379 255.108 136.668C255.03 137.11 254.952 137.552 254.874 137.994C254.737 138.772 254.6 139.549 254.46 140.341C254.266 141.533 254.099 142.745 253.92 143.939L253.754 145.057L253.144 144.95L253.159 144.952ZM261.246 146.567L261.132 145.965C261.18 145.691 261.236 145.371 261.293 145.051C261.357 144.685 261.455 144.309 261.52 143.943C261.76 142.76 261.985 141.574 262.209 140.388C262.317 139.778 262.435 139.108 262.518 138.462C262.58 138.017 262.479 137.701 262.224 137.452C262.077 137.3 261.964 137.139 261.836 136.975C261.76 136.867 261.697 136.777 261.619 136.685C261.216 136.205 261.069 135.614 261.164 134.892C261.342 133.619 261.687 132.375 262.009 131.175C262.101 130.83 262.193 130.485 262.286 130.139C262.465 129.48 262.644 128.82 262.823 128.16L263.515 125.579L264.43 125.74L264.412 126.02C264.396 126.112 264.403 126.16 264.395 126.206L263.081 133.658C263.05 133.747 263.049 133.841 263.036 133.918C263.036 133.918 263.051 133.92 263.109 133.946C263.125 133.855 263.149 133.812 263.154 133.781C263.202 133.507 263.251 133.233 263.299 132.958L264.568 125.765L265.529 125.934L265.478 126.224C265.49 126.336 265.482 126.381 265.474 126.427L264.154 133.91C264.154 133.91 264.133 134.032 264.124 134.078C264.129 134.142 264.142 134.16 264.142 134.16L264.519 134.163L264.213 134.11L265.554 126.504C265.554 126.504 265.576 126.382 265.587 126.321L265.64 126.017L265.987 126.015L266.604 126.171L266.565 126.573L265.246 134.056C265.246 134.056 265.219 134.208 265.205 134.284L265.274 134.344C265.326 134.227 265.321 134.163 265.334 134.087L266.729 126.177L267.675 126.344L267.547 127.516C267.489 128.024 267.449 128.52 267.391 129.028C267.345 129.554 267.297 130.096 267.251 130.622L267.095 132.402C267.045 132.864 267.01 133.33 266.973 133.81L266.946 133.963C266.906 134.632 266.847 135.328 266.649 136.001C266.426 136.731 266.052 137.247 265.461 137.567C265.199 137.709 264.951 137.87 264.705 138.015C264.387 138.21 264.217 138.463 264.173 138.801C263.85 140.724 263.541 142.65 263.233 144.576L263.029 145.734C263.029 145.734 263.036 145.782 263.046 145.816L263.033 145.892L262.427 145.848L262.737 145.871L262.438 145.787C262.438 145.787 262.456 145.68 262.449 145.632L262.653 144.473C262.946 142.545 263.27 140.622 263.578 138.696C263.666 138.193 263.927 137.784 264.368 137.515C264.653 137.33 264.916 137.172 265.178 137.03C265.613 136.792 265.902 136.403 266.068 135.819C266.254 135.208 266.288 134.57 266.358 133.906L266.385 133.754C266.404 133.286 266.457 132.808 266.492 132.343L266.646 130.578C266.668 130.362 266.69 130.146 266.697 129.927L265.945 134.195C265.923 134.317 265.907 134.408 265.873 134.512C265.763 134.87 265.461 135.068 265.087 134.955C264.858 134.915 264.697 134.76 264.619 134.574C264.501 134.71 264.332 134.775 264.11 134.783C263.922 134.781 263.635 134.715 263.508 134.362C263.346 134.569 263.11 134.654 262.872 134.58C262.437 134.456 262.366 134.145 262.347 133.985C262.338 133.857 262.347 133.718 262.371 133.58L263.242 128.642C263.094 129.213 262.949 129.769 262.801 130.34C262.709 130.686 262.616 131.031 262.524 131.376C262.205 132.561 261.878 133.792 261.693 135.017C261.612 135.568 261.712 135.979 262.012 136.33C262.103 136.44 262.178 136.548 262.254 136.656C262.354 136.799 262.455 136.942 262.576 137.058C262.962 137.456 263.126 137.956 263.046 138.587C262.961 139.247 262.843 139.918 262.733 140.543C262.523 141.732 262.283 142.915 262.04 144.114C261.973 144.495 261.893 144.858 261.814 145.221C261.757 145.541 261.688 145.843 261.616 146.161C261.573 146.404 261.419 146.566 261.159 146.614L261.246 146.567Z" fill="white"/>
<path d="M256.843 147.173C249.335 145.849 244.29 138.674 245.615 131.16C246.94 123.646 254.119 118.626 261.643 119.953C269.166 121.28 274.196 128.452 272.871 135.966C271.546 143.48 264.367 148.5 256.843 147.173ZM261.412 121.264C254.621 120.066 248.123 124.609 246.927 131.392C245.732 138.174 250.283 144.665 257.074 145.862C263.865 147.06 270.362 142.517 271.558 135.735C272.754 128.952 268.203 122.461 261.412 121.264ZM227.532 118.417L225.35 118.032L224.888 117.794C224.523 117.635 224.145 117.458 223.785 117.269C221.121 115.778 219.598 112.634 220.079 109.638C220.449 107.362 220.847 105.106 221.278 102.841C221.842 99.9075 224.755 97.3096 227.768 97.0866L228.184 97.0499L228.647 97.6345L228.051 100.751C227.898 101.619 227.747 102.473 227.594 103.342C227.481 103.982 227.573 104.532 227.866 105.008C228.1 105.38 228.424 105.594 228.778 105.641C229.131 105.687 229.505 105.533 229.823 105.243C230.183 104.898 230.388 104.542 230.458 104.145C230.759 102.438 231.06 100.731 231.361 99.0243C231.379 98.9176 231.383 98.8082 231.374 98.6809L231.424 97.4168L232.469 97.9154C232.601 97.9701 232.717 98.0221 232.831 98.0893C235.671 99.8316 236.98 102.404 236.62 105.515C236.353 107.746 235.947 110.048 235.376 112.571C234.567 116.09 231.526 118.43 227.808 118.371L227.517 118.414L227.532 118.417ZM225.822 116.78L227.562 117.087C227.674 117.075 227.756 117.058 227.832 117.071C230.909 117.111 233.434 115.199 234.087 112.297C234.65 109.819 235.048 107.563 235.304 105.393C235.589 102.976 234.677 101.008 232.589 99.5552C232.304 101.171 232.019 102.786 231.731 104.417C231.613 105.088 231.271 105.687 230.703 106.232C230.097 106.816 229.34 107.091 228.587 106.99C227.834 106.888 227.17 106.457 226.729 105.751C226.261 105.008 226.101 104.131 226.271 103.171C226.424 102.303 226.577 101.434 226.73 100.565L227.113 98.5739C224.96 99.0901 222.95 101.03 222.544 103.158C222.115 105.409 221.72 107.649 221.353 109.91C220.951 112.369 222.211 114.949 224.401 116.183C224.715 116.365 225.053 116.503 225.388 116.656L225.796 116.838L225.822 116.78Z" fill="white"/>
<path d="M223.284 92.1787C223.284 92.1787 223.393 92.1823 223.454 92.193C223.729 92.2415 224.004 92.2899 224.263 92.3357C224.27 92.3841 224.296 92.4199 224.288 92.4657C224.126 93.6473 224.619 94.0642 225.702 94.3494C226.32 94.5055 226.963 94.6032 227.581 94.7593C228.125 94.8866 228.669 95.014 229.166 95.2274C230.364 95.7529 230.841 96.7956 230.559 98.1287C230.543 98.126 230.152 100.524 230.152 100.524L229.114 100.341C229.114 100.341 229.551 97.9511 229.536 97.9484C229.558 97.8265 229.549 97.6992 229.567 97.5925C229.635 96.9443 229.379 96.4279 228.755 96.2234C228.059 95.975 227.344 95.8333 226.62 95.6584C226.002 95.5024 225.361 95.3894 224.772 95.1598C223.49 94.6666 222.958 93.5826 223.278 92.2092L223.284 92.1787ZM306.887 140L305.575 139.768L305.634 139.433L306.946 139.665L306.887 140ZM304.247 139.534L302.935 139.303L302.994 138.968L304.306 139.199L304.247 139.534ZM301.607 139.069L300.295 138.837L300.354 138.502L301.666 138.733L301.607 139.069ZM298.967 138.603L297.654 138.372L297.714 138.037L299.026 138.268L298.967 138.603ZM296.327 138.138L295.014 137.906L295.073 137.571L296.386 137.802L296.327 138.138ZM293.687 137.672L292.374 137.441L292.433 137.105L293.746 137.337L293.687 137.672ZM291.047 137.207L289.734 136.975L289.793 136.64L291.106 136.871L291.047 137.207ZM288.406 136.741L287.094 136.51L287.153 136.174L288.466 136.406L288.406 136.741ZM285.766 136.276L284.637 136.077L284.51 135.724L284.83 135.608L284.895 135.776L285.841 135.943L285.782 136.278L285.766 136.276ZM308.154 139.689L307.893 139.47L308.751 138.443L309.011 138.661L308.154 139.689ZM284.04 134.463L283.586 133.204L283.905 133.087L284.36 134.346L284.04 134.463ZM309.869 137.634L309.609 137.415L310.467 136.388L310.727 136.607L309.869 137.634ZM283.131 131.945L282.676 130.686L282.996 130.57L283.451 131.829L283.131 131.945ZM311.6 135.582L311.34 135.363L312.197 134.336L312.458 134.555L311.6 135.582ZM282.222 129.428L281.767 128.169L282.087 128.052L282.541 129.311L282.222 129.428ZM313.331 133.53L313.07 133.311L313.928 132.284L314.189 132.503L313.331 133.53ZM281.312 126.91L280.858 125.651L281.177 125.535L281.632 126.794L281.312 126.91ZM315.046 131.475L314.786 131.257L315.644 130.229L315.904 130.448L315.046 131.475ZM280.388 124.39L279.933 123.131L280.253 123.014L280.707 124.273L280.388 124.39ZM316.762 129.421L316.501 129.202L317.359 128.174L317.62 128.393L316.762 129.421ZM279.479 121.872L279.024 120.613L279.343 120.497L279.798 121.756L279.479 121.872ZM318.493 127.369L318.232 127.15L319.09 126.122L319.35 126.341L318.493 127.369ZM278.569 119.355L278.115 118.096L278.434 117.979L278.889 119.238L278.569 119.355ZM320.208 125.314L319.948 125.095L320.806 124.068L321.066 124.286L320.208 125.314ZM277.645 116.834L277.19 115.576L277.509 115.459L277.964 116.718L277.645 116.834ZM321.924 123.259L321.663 123.04L322.521 122.013L322.782 122.232L321.924 123.259ZM276.72 114.314L276.606 113.98L277.363 113.076L277.624 113.295L276.987 114.047L277.04 114.198L276.72 114.314ZM322.067 120.927L321.613 119.668L321.932 119.552L322.387 120.811L322.067 120.927ZM278.481 112.268L278.221 112.049L279.079 111.021L279.339 111.24L278.481 112.268ZM321.158 118.41L320.703 117.151L321.023 117.034L321.478 118.293L321.158 118.41ZM280.212 110.216L279.952 109.997L280.81 108.969L281.07 109.188L280.212 110.216ZM320.249 115.892L319.794 114.633L320.114 114.517L320.568 115.776L320.249 115.892ZM281.928 108.161L281.667 107.942L282.525 106.915L282.785 107.133L281.928 108.161ZM319.324 113.372L318.87 112.113L319.189 111.997L319.644 113.255L319.324 113.372ZM283.643 106.106L283.383 105.887L284.241 104.86L284.501 105.079L283.643 106.106ZM318.4 110.852L317.945 109.593L318.264 109.476L318.719 110.735L318.4 110.852ZM285.359 104.051L285.098 103.833L285.956 102.805L286.217 103.024L285.359 104.051ZM317.49 108.334L317.036 107.075L317.355 106.959L317.81 108.218L317.49 108.334ZM287.09 101.999L286.829 101.781L287.687 100.753L287.947 100.972L287.09 101.999ZM316.581 105.817L316.126 104.558L316.446 104.441L316.9 105.7L316.581 105.817ZM288.805 99.9446L288.545 99.7258L289.402 98.6985L289.663 98.9172L288.805 99.9446ZM315.656 103.296L315.202 102.038L315.521 101.921L315.976 103.18L315.656 103.296ZM290.521 97.8899L290.26 97.6711L291.118 96.6437L291.378 96.8625L290.521 97.8899ZM314.747 100.779L314.588 100.342L313.367 100.127L313.426 99.7915L314.846 100.042L315.067 100.662L314.747 100.779ZM312.039 99.8927L310.727 99.6613L310.786 99.326L312.099 99.5574L312.039 99.8927ZM309.399 99.4272L308.087 99.1958L308.146 98.8605L309.458 99.0919L309.399 99.4272ZM306.759 98.9617L305.447 98.7303L305.506 98.395L306.818 98.6264L306.759 98.9617ZM304.119 98.4962L302.807 98.2648L302.866 97.9295L304.178 98.1609L304.119 98.4962ZM301.479 98.0306L300.167 97.7992L300.226 97.4639L301.538 97.6953L301.479 98.0306ZM298.839 97.5651L297.526 97.3337L297.586 96.9984L298.898 97.2298L298.839 97.5651ZM296.199 97.0996L294.886 96.8682L294.945 96.5329L296.258 96.7643L296.199 97.0996ZM293.559 96.6341L292.246 96.4027L292.305 96.0674L293.618 96.2988L293.559 96.6341ZM286.403 128.562C286.403 128.562 293.828 129.997 297.552 130.654C301.276 131.31 308.744 132.501 308.744 132.501C309.058 132.509 309.304 132.27 309.312 131.957L309.945 112.661C309.954 112.521 309.902 112.371 309.796 112.258C309.69 112.145 309.558 112.09 309.403 112.078C308.573 112.058 307.748 112.006 306.926 111.94C307.03 110.544 306.673 109.177 305.853 108.027C304.935 106.717 303.55 105.829 301.978 105.552C298.911 105.011 295.964 106.911 295.144 109.863C294.349 109.644 293.544 109.392 292.754 109.143C292.619 109.103 292.461 109.107 292.323 109.177C292.184 109.246 292.087 109.355 292.045 109.505L286.04 127.854C286 127.988 286.004 128.146 286.074 128.284C286.144 128.422 286.253 128.52 286.403 128.562ZM301.782 106.664C303.079 106.893 304.196 107.609 304.95 108.684C305.604 109.617 305.91 110.739 305.821 111.871C302.585 111.568 299.365 111 296.206 110.176C296.88 107.78 299.277 106.238 301.779 106.68L301.782 106.664ZM292.943 110.386C293.599 110.596 294.257 110.79 294.918 110.97L294.711 112.143C294.309 112.277 293.998 112.615 293.92 113.057C293.807 113.697 294.235 114.307 294.876 114.42C295.517 114.533 296.127 114.106 296.24 113.466C296.318 113.024 296.141 112.6 295.809 112.337L295.997 111.27C299.157 112.094 302.392 112.665 305.658 112.974L305.469 114.04C305.068 114.174 304.757 114.512 304.679 114.954C304.566 115.594 304.994 116.204 305.635 116.317C306.275 116.43 306.886 116.003 306.999 115.363C307.077 114.921 306.9 114.497 306.568 114.234L306.775 113.061C307.457 113.118 308.142 113.16 308.83 113.187L308.235 131.374C308.235 131.374 301.255 130.175 297.761 129.559C294.266 128.943 287.297 127.682 287.297 127.682L292.959 110.389L292.943 110.386ZM235.421 127.398L234.109 127.167L234.168 126.832L235.48 127.063L235.421 127.398ZM232.781 126.933L231.468 126.701L231.528 126.366L232.84 126.598L232.781 126.933ZM230.141 126.467L228.828 126.236L228.887 125.901L230.2 126.132L230.141 126.467ZM227.501 126.002L226.188 125.77L226.247 125.435L227.56 125.667L227.501 126.002ZM224.861 125.536L223.548 125.305L223.607 124.97L224.92 125.201L224.861 125.536ZM222.22 125.071L220.908 124.839L220.967 124.504L222.28 124.735L222.22 125.071ZM219.58 124.605L218.268 124.374L218.327 124.039L219.639 124.27L219.58 124.605ZM216.94 124.14L215.628 123.908L215.687 123.573L216.999 123.804L216.94 124.14ZM214.3 123.674L213.171 123.475L213.044 123.123L213.364 123.006L213.428 123.175L214.374 123.342L214.315 123.677L214.3 123.674ZM236.687 127.087L236.427 126.869L237.285 125.841L237.545 126.06L236.687 127.087ZM212.574 121.861L212.119 120.602L212.439 120.486L212.894 121.745L212.574 121.861ZM238.403 125.033L238.143 124.814L239 123.787L239.261 124.005L238.403 125.033ZM211.665 119.344L211.21 118.085L211.53 117.968L211.984 119.227L211.665 119.344ZM240.134 122.981L239.873 122.762L240.731 121.735L240.992 121.953L240.134 122.981ZM210.755 116.826L210.301 115.567L210.62 115.451L211.075 116.71L210.755 116.826ZM241.865 120.929L241.604 120.71L242.462 119.682L242.722 119.901L241.865 120.929ZM209.846 114.309L209.392 113.05L209.711 112.933L210.166 114.192L209.846 114.309ZM243.58 118.874L243.32 118.655L244.177 117.628L244.438 117.847L243.58 118.874ZM208.922 111.788L208.467 110.53L208.786 110.413L209.241 111.672L208.922 111.788ZM245.296 116.819L245.035 116.6L245.893 115.573L246.153 115.792L245.296 116.819ZM208.012 109.271L207.558 108.012L207.877 107.895L208.332 109.154L208.012 109.271ZM247.026 114.767L246.766 114.548L247.624 113.521L247.884 113.74L247.026 114.767ZM207.103 106.753L206.648 105.494L206.968 105.378L207.422 106.637L207.103 106.753ZM248.742 112.712L248.482 112.494L249.339 111.466L249.6 111.685L248.742 112.712ZM206.178 104.233L205.724 102.974L206.043 102.858L206.498 104.116L206.178 104.233ZM250.457 110.658L250.197 110.439L251.055 109.412L251.315 109.63L250.457 110.658ZM205.254 101.713L205.14 101.378L205.897 100.475L206.157 100.693L205.521 101.446L205.573 101.596L205.254 101.713ZM250.601 108.326L250.147 107.067L250.466 106.951L250.921 108.209L250.601 108.326ZM207.015 99.6661L206.755 99.4473L207.612 98.42L207.873 98.6387L207.015 99.6661ZM249.692 105.808L249.237 104.549L249.557 104.433L250.011 105.692L249.692 105.808ZM208.746 97.6141L208.486 97.3953L209.343 96.3679L209.604 96.5867L208.746 97.6141ZM248.783 103.291L248.328 102.032L248.647 101.915L249.102 103.174L248.783 103.291ZM210.461 95.5594L210.201 95.3406L211.059 94.3132L211.319 94.532L210.461 95.5594ZM247.858 100.77L247.403 99.5117L247.723 99.3952L248.177 100.654L247.858 100.77ZM212.177 93.5046L211.917 93.2859L212.774 92.2585L213.035 92.4773L212.177 93.5046ZM246.949 98.2529L246.494 96.9941L246.813 96.8776L247.268 98.1364L246.949 98.2529ZM213.908 91.4526L213.647 91.2338L214.505 90.2065L214.766 90.4252L213.908 91.4526ZM246.039 95.7354L245.585 94.4766L245.904 94.3601L246.359 95.6188L246.039 95.7354ZM215.639 89.4006L215.378 89.1818L216.236 88.1544L216.496 88.3732L215.639 89.4006ZM245.13 93.2178L244.675 91.959L244.995 91.8425L245.45 93.1013L245.13 93.2178ZM217.354 87.3459L217.094 87.1271L217.951 86.0997L218.212 86.3185L217.354 87.3459ZM244.205 90.6976L243.751 89.4388L244.07 89.3223L244.525 90.581L244.205 90.6976ZM219.07 85.2911L218.809 85.0724L219.667 84.045L219.927 84.2638L219.07 85.2911ZM243.296 88.18L243.137 87.7434L241.916 87.5281L241.975 87.1928L243.395 87.4431L243.616 88.0635L243.296 88.18ZM240.588 87.294L239.276 87.0626L239.335 86.7273L240.648 86.9587L240.588 87.294ZM237.948 86.8285L236.636 86.5971L236.695 86.2618L238.008 86.4932L237.948 86.8285ZM235.308 86.363L233.996 86.1315L234.055 85.7962L235.367 86.0277L235.308 86.363ZM232.668 85.8974L231.356 85.666L231.415 85.3307L232.727 85.5621L232.668 85.8974ZM230.028 85.4319L228.716 85.2005L228.775 84.8652L230.087 85.0966L230.028 85.4319ZM227.388 84.9664L226.075 84.735L226.135 84.3997L227.447 84.6311L227.388 84.9664ZM224.748 84.5009L223.435 84.2694L223.494 83.9341L224.807 84.1656L224.748 84.5009ZM222.108 84.0353L220.795 83.8039L220.854 83.4686L222.167 83.7L222.108 84.0353ZM267.251 155.703L265.938 155.472L265.997 155.136L267.31 155.368L267.251 155.703ZM264.611 155.237L263.298 155.006L263.357 154.671L264.67 154.902L264.611 155.237ZM261.97 154.772L260.658 154.54L260.717 154.205L262.03 154.437L261.97 154.772ZM259.33 154.306L258.018 154.075L258.077 153.74L259.389 153.971L259.33 154.306ZM256.69 153.841L255.378 153.609L255.437 153.274L256.749 153.506L256.69 153.841ZM254.05 153.375L252.738 153.144L252.797 152.809L254.109 153.04L254.05 153.375ZM251.41 152.91L250.098 152.678L250.157 152.343L251.469 152.575L251.41 152.91ZM248.77 152.444L247.457 152.213L247.517 151.878L248.829 152.109L248.77 152.444ZM246.13 151.979L245 151.78L244.874 151.427L245.193 151.311L245.258 151.479L246.204 151.646L246.145 151.981L246.13 151.979ZM268.517 155.392L268.257 155.173L269.114 154.146L269.375 154.365L268.517 155.392ZM244.404 150.166L243.949 148.907L244.269 148.791L244.723 150.049L244.404 150.166ZM270.233 153.337L269.972 153.118L270.83 152.091L271.09 152.31L270.233 153.337ZM243.494 147.648L243.04 146.389L243.359 146.273L243.814 147.532L243.494 147.648ZM271.963 151.285L271.703 151.066L272.561 150.039L272.821 150.258L271.963 151.285ZM242.585 145.131L242.13 143.872L242.45 143.755L242.905 145.014L242.585 145.131ZM273.694 149.233L273.434 149.014L274.292 147.987L274.552 148.206L273.694 149.233ZM241.676 142.613L241.221 141.354L241.541 141.238L241.995 142.497L241.676 142.613ZM275.41 147.178L275.149 146.96L276.007 145.932L276.268 146.151L275.41 147.178ZM240.751 140.093L240.297 138.834L240.616 138.718L241.071 139.976L240.751 140.093ZM277.125 145.124L276.865 144.905L277.723 143.878L277.983 144.096L277.125 145.124ZM239.842 137.575L239.387 136.317L239.707 136.2L240.161 137.459L239.842 137.575ZM278.856 143.072L278.596 142.853L279.453 141.826L279.714 142.044L278.856 143.072ZM238.933 135.058L238.478 133.799L238.797 133.683L239.252 134.941L238.933 135.058ZM280.572 141.017L280.311 140.798L281.169 139.771L281.429 139.99L280.572 141.017ZM238.008 132.538L237.553 131.279L237.873 131.162L238.328 132.421L238.008 132.538ZM282.287 138.962L282.027 138.743L282.885 137.716L283.145 137.935L282.287 138.962ZM237.083 130.017L236.969 129.683L237.727 128.779L237.987 128.998L237.351 129.75L237.403 129.901L237.083 130.017ZM282.431 136.63L281.976 135.372L282.296 135.255L282.75 136.514L282.431 136.63ZM238.845 127.971L238.584 127.752L239.442 126.725L239.703 126.943L238.845 127.971ZM281.521 134.113L281.067 132.854L281.386 132.738L281.841 133.996L281.521 134.113ZM240.576 125.919L240.315 125.7L241.173 124.673L241.433 124.891L240.576 125.919ZM280.612 131.595L280.158 130.337L280.477 130.22L280.932 131.479L280.612 131.595ZM242.291 123.864L242.031 123.645L242.888 122.618L243.149 122.837L242.291 123.864ZM279.688 129.075L279.233 127.816L279.552 127.7L280.007 128.959L279.688 129.075ZM244.007 121.809L243.746 121.59L244.604 120.563L244.864 120.782L244.007 121.809ZM278.763 126.555L278.308 125.296L278.628 125.179L279.083 126.438L278.763 126.555ZM245.722 119.754L245.462 119.536L246.32 118.508L246.58 118.727L245.722 119.754ZM277.854 124.037L277.399 122.778L277.719 122.662L278.173 123.921L277.854 124.037ZM247.453 117.702L247.193 117.484L248.05 116.456L248.311 116.675L247.453 117.702ZM276.944 121.52L276.49 120.261L276.809 120.144L277.264 121.403L276.944 121.52ZM249.168 115.648L248.908 115.429L249.766 114.402L250.026 114.62L249.168 115.648ZM276.02 118.999L275.565 117.741L275.885 117.624L276.339 118.883L276.02 118.999ZM250.884 113.593L250.624 113.374L251.481 112.347L251.742 112.566L250.884 113.593ZM275.11 116.482L274.951 116.045L273.731 115.83L273.79 115.495L275.209 115.745L275.43 116.365L275.11 116.482ZM272.403 115.596L271.09 115.364L271.15 115.029L272.462 115.261L272.403 115.596ZM269.763 115.13L268.45 114.899L268.509 114.564L269.822 114.795L269.763 115.13ZM267.123 114.665L265.81 114.433L265.869 114.098L267.182 114.33L267.123 114.665ZM264.483 114.199L263.17 113.968L263.229 113.633L264.542 113.864L264.483 114.199ZM261.842 113.734L260.53 113.502L260.589 113.167L261.902 113.398L261.842 113.734ZM259.202 113.268L257.89 113.037L257.949 112.702L259.261 112.933L259.202 113.268ZM256.562 112.803L255.25 112.571L255.309 112.236L256.621 112.467L256.562 112.803ZM253.922 112.337L252.61 112.106L252.669 111.77L253.981 112.002L253.922 112.337ZM338.717 168.304L337.404 168.073L337.464 167.738L338.776 167.969L338.717 168.304ZM336.077 167.839L334.764 167.607L334.823 167.272L336.136 167.504L336.077 167.839ZM333.437 167.373L332.124 167.142L332.183 166.807L333.496 167.038L333.437 167.373ZM330.797 166.908L329.484 166.676L329.543 166.341L330.856 166.573L330.797 166.908ZM328.156 166.442L326.844 166.211L326.903 165.876L328.216 166.107L328.156 166.442ZM325.516 165.977L324.204 165.745L324.263 165.41L325.575 165.641L325.516 165.977ZM322.876 165.511L321.564 165.28L321.623 164.945L322.935 165.176L322.876 165.511ZM320.236 165.046L318.924 164.814L318.983 164.479L320.295 164.71L320.236 165.046ZM317.596 164.58L316.467 164.381L316.34 164.029L316.659 163.912L316.724 164.081L317.67 164.248L317.611 164.583L317.596 164.58ZM339.983 167.993L339.723 167.775L340.581 166.747L340.841 166.966L339.983 167.993ZM315.87 162.767L315.415 161.508L315.735 161.392L316.19 162.651L315.87 162.767ZM341.699 165.939L341.438 165.72L342.296 164.693L342.557 164.911L341.699 165.939ZM314.961 160.25L314.506 158.991L314.826 158.874L315.28 160.133L314.961 160.25ZM343.43 163.887L343.169 163.668L344.027 162.641L344.287 162.859L343.43 163.887ZM314.051 157.732L313.597 156.473L313.916 156.357L314.371 157.616L314.051 157.732ZM345.16 161.835L344.9 161.616L345.758 160.588L346.018 160.807L345.16 161.835ZM313.142 155.215L312.687 153.956L313.007 153.839L313.462 155.098L313.142 155.215ZM346.876 159.78L346.616 159.561L347.473 158.534L347.734 158.753L346.876 159.78ZM312.218 152.694L311.763 151.436L312.082 151.319L312.537 152.578L312.218 152.694ZM348.592 157.725L348.331 157.506L349.189 156.479L349.449 156.698L348.592 157.725ZM311.308 150.177L310.854 148.918L311.173 148.801L311.628 150.06L311.308 150.177ZM350.322 155.673L350.062 155.454L350.92 154.427L351.18 154.646L350.322 155.673ZM310.399 147.659L309.944 146.4L310.264 146.284L310.718 147.543L310.399 147.659ZM352.038 153.618L351.777 153.4L352.635 152.372L352.896 152.591L352.038 153.618ZM309.474 145.139L309.02 143.88L309.339 143.764L309.794 145.022L309.474 145.139ZM353.753 151.564L353.493 151.345L354.351 150.318L354.611 150.536L353.753 151.564ZM308.55 142.619L308.436 142.284L309.193 141.381L309.453 141.599L308.817 142.352L308.869 142.502L308.55 142.619ZM353.882 149.229L353.427 147.97L353.747 147.854L354.201 149.113L353.882 149.229ZM310.296 140.569L310.035 140.351L310.893 139.323L311.154 139.542L310.296 140.569ZM352.973 146.712L352.518 145.453L352.837 145.336L353.292 146.595L352.973 146.712ZM312.027 138.517L311.766 138.299L312.624 137.271L312.884 137.49L312.027 138.517ZM352.063 144.194L351.609 142.935L351.928 142.819L352.383 144.077L352.063 144.194ZM313.742 136.463L313.482 136.244L314.339 135.217L314.6 135.435L313.742 136.463ZM351.139 141.674L350.684 140.415L351.003 140.298L351.458 141.557L351.139 141.674ZM315.458 134.408L315.197 134.189L316.055 133.162L316.315 133.381L315.458 134.408ZM350.214 139.154L349.759 137.895L350.079 137.778L350.534 139.037L350.214 139.154ZM317.173 132.353L316.913 132.134L317.771 131.107L318.031 131.326L317.173 132.353ZM349.305 136.636L348.85 135.377L349.17 135.261L349.624 136.519L349.305 136.636ZM318.904 130.301L318.644 130.082L319.501 129.055L319.762 129.274L318.904 130.301ZM348.395 134.118L347.941 132.86L348.26 132.743L348.715 134.002L348.395 134.118ZM320.62 128.246L320.359 128.028L321.217 127L321.477 127.219L320.62 128.246ZM347.471 131.598L347.016 130.339L347.336 130.223L347.79 131.482L347.471 131.598ZM322.335 126.192L322.075 125.973L322.932 124.946L323.193 125.164L322.335 126.192ZM346.561 129.081L346.402 128.644L345.182 128.429L345.241 128.093L346.66 128.344L346.881 128.964L346.561 129.081ZM343.854 128.195L342.541 127.963L342.601 127.628L343.913 127.859L343.854 128.195ZM341.214 127.729L339.901 127.498L339.96 127.162L341.273 127.394L341.214 127.729ZM338.574 127.264L337.261 127.032L337.32 126.697L338.633 126.928L338.574 127.264ZM335.934 126.798L334.621 126.567L334.68 126.231L335.993 126.463L335.934 126.798ZM333.293 126.333L331.981 126.101L332.04 125.766L333.353 125.997L333.293 126.333ZM330.653 125.867L329.341 125.636L329.4 125.3L330.712 125.532L330.653 125.867ZM328.013 125.401L326.701 125.17L326.76 124.835L328.072 125.066L328.013 125.401ZM325.373 124.936L324.061 124.705L324.12 124.369L325.432 124.601L325.373 124.936Z" fill="white"/>
<path d="M205.331 101.633L204.019 101.401L204.078 101.065L205.39 101.297L205.331 101.633ZM202.691 101.167L201.378 100.936L201.438 100.6L202.75 100.831L202.691 101.167ZM200.051 100.702L198.738 100.47L198.797 100.134L200.11 100.366L200.051 100.702ZM197.411 100.236L196.098 100.005L196.157 99.6689L197.47 99.9003L197.411 100.236ZM194.77 99.7705L193.458 99.5391L193.517 99.2034L194.83 99.4348L194.77 99.7705ZM192.13 99.305L190.818 99.0736L190.877 98.7379L192.19 98.9693L192.13 99.305ZM189.49 98.8395L188.178 98.6081L188.237 98.2723L189.549 98.5037L189.49 98.8395ZM186.85 98.374L185.538 98.1425L185.597 97.8068L186.909 98.0382L186.85 98.374ZM184.21 97.9084L182.898 97.677L182.957 97.3413L184.269 97.5727L184.21 97.9084ZM181.57 97.4429L180.257 97.2115L180.317 96.8758L181.629 97.1072L181.57 97.4429ZM178.93 96.9774L177.617 96.746L177.677 96.4102L178.989 96.6416L178.93 96.9774ZM176.29 96.5119L174.977 96.2805L175.036 95.9447L176.349 96.1761L176.29 96.5119ZM173.65 96.0463L172.337 95.8149L172.396 95.4792L173.709 95.7106L173.65 96.0463ZM171.009 95.5808L169.697 95.3494L169.756 95.0137L171.069 95.2451L171.009 95.5808ZM168.369 95.1153L167.057 94.8839L167.116 94.5481L168.429 94.7796L168.369 95.1153ZM165.729 94.6498L164.417 94.4184L164.476 94.0826L165.788 94.314L165.729 94.6498ZM163.089 94.1843L161.777 93.9528L161.836 93.6171L163.148 93.8485L163.089 94.1843ZM160.449 93.7187L159.137 93.4873L159.196 93.1516L160.508 93.383L160.449 93.7187ZM157.809 93.2532L156.496 93.0218L156.556 92.686L157.868 92.9175L157.809 93.2532ZM155.169 92.7877L153.856 92.5563L153.916 92.2205L155.228 92.4519L155.169 92.7877ZM152.529 92.3222L151.216 92.0907L151.275 91.755L152.588 91.9864L152.529 92.3222ZM149.889 91.8566L148.576 91.6252L148.635 91.2895L149.948 91.5209L149.889 91.8566ZM147.248 91.3911L145.936 91.1597L145.995 90.8239L147.308 91.0554L147.248 91.3911ZM144.608 90.9256L143.296 90.6942L143.355 90.3584L144.667 90.5898L144.608 90.9256ZM141.968 90.4601L140.656 90.2286L140.715 89.8929L142.027 90.1243L141.968 90.4601ZM139.328 89.9945L138.016 89.7631L138.075 89.4274L139.387 89.6588L139.328 89.9945ZM136.688 89.529L135.376 89.2976L135.435 88.9619L136.747 89.1933L136.688 89.529ZM134.048 89.0635L132.735 88.8321L132.795 88.4963L134.107 88.7277L134.048 89.0635ZM131.408 88.598L130.095 88.3665L130.154 88.0308L131.467 88.2622L131.408 88.598ZM128.768 88.1324L127.455 87.901L127.514 87.5653L128.827 87.7967L128.768 88.1324ZM126.127 87.6669L124.815 87.4355L124.874 87.0998L126.187 87.3312L126.127 87.6669ZM123.487 87.2014L122.175 86.97L122.234 86.6342L123.547 86.8657L123.487 87.2014ZM120.847 86.7359L119.535 86.5045L119.594 86.1687L120.906 86.4001L120.847 86.7359ZM118.207 86.2703L116.895 86.0389L116.954 85.7032L118.266 85.9346L118.207 86.2703ZM237.169 129.891L235.856 129.66L235.915 129.324L237.228 129.556L237.169 129.891ZM234.529 129.426L233.216 129.195L233.275 128.859L234.588 129.09L234.529 129.426ZM231.888 128.96L230.576 128.729L230.635 128.393L231.948 128.625L231.888 128.96ZM229.248 128.495L227.936 128.263L227.995 127.928L229.308 128.159L229.248 128.495ZM226.608 128.029L225.296 127.798L225.355 127.462L226.667 127.694L226.608 128.029ZM223.968 127.564L222.656 127.332L222.715 126.997L224.027 127.228L223.968 127.564ZM221.328 127.098L220.016 126.867L220.075 126.531L221.387 126.763L221.328 127.098ZM218.688 126.633L217.375 126.401L217.435 126.066L218.747 126.297L218.688 126.633ZM216.048 126.167L214.735 125.936L214.795 125.6L216.107 125.832L216.048 126.167ZM213.408 125.702L212.095 125.47L212.154 125.135L213.467 125.366L213.408 125.702ZM210.768 125.236L209.455 125.005L209.514 124.669L210.827 124.9L210.768 125.236ZM208.127 124.771L206.815 124.539L206.874 124.204L208.187 124.435L208.127 124.771ZM205.487 124.305L204.175 124.074L204.234 123.738L205.546 123.969L205.487 124.305ZM202.847 123.84L201.535 123.608L201.594 123.273L202.906 123.504L202.847 123.84ZM394.095 157.562L392.783 157.33L392.842 156.995L394.155 157.226L394.095 157.562ZM391.455 157.096L390.143 156.865L390.202 156.529L391.514 156.761L391.455 157.096ZM388.815 156.631L387.503 156.399L387.562 156.064L388.874 156.295L388.815 156.631ZM386.175 156.165L384.863 155.934L384.922 155.598L386.234 155.83L386.175 156.165ZM383.535 155.7L382.222 155.468L382.282 155.133L383.594 155.364L383.535 155.7ZM380.895 155.234L379.582 155.003L379.642 154.667L380.954 154.899L380.895 155.234ZM378.255 154.769L376.942 154.537L377.001 154.202L378.314 154.433L378.255 154.769ZM375.615 154.303L374.302 154.072L374.361 153.736L375.674 153.967L375.615 154.303ZM372.974 153.838L371.662 153.606L371.721 153.271L373.034 153.502L372.974 153.838ZM370.334 153.372L369.022 153.141L369.081 152.805L370.393 153.036L370.334 153.372ZM367.694 152.907L366.382 152.675L366.441 152.339L367.753 152.571L367.694 152.907ZM365.054 152.441L363.742 152.21L363.801 151.874L365.113 152.105L365.054 152.441ZM362.414 151.976L361.101 151.744L361.161 151.408L362.473 151.64L362.414 151.976ZM359.774 151.51L358.461 151.279L358.521 150.943L359.833 151.174L359.774 151.51ZM357.134 151.045L355.821 150.813L355.88 150.477L357.193 150.709L357.134 151.045ZM354.494 150.579L354.448 150.571L354.507 150.235L354.553 150.243L354.494 150.579ZM378.079 152.553L376.766 152.322L376.826 151.986L378.138 152.218L378.079 152.553ZM375.439 152.087L374.126 151.856L374.185 151.521L375.498 151.752L375.439 152.087ZM372.799 151.622L371.486 151.39L371.545 151.055L372.858 151.287L372.799 151.622ZM370.159 151.156L368.846 150.925L368.905 150.59L370.218 150.821L370.159 151.156ZM367.518 150.691L366.206 150.459L366.265 150.124L367.578 150.356L367.518 150.691ZM364.878 150.225L363.566 149.994L363.625 149.659L364.937 149.89L364.878 150.225ZM362.238 149.76L360.926 149.528L360.985 149.193L362.297 149.424L362.238 149.76ZM359.598 149.294L358.286 149.063L358.345 148.728L359.657 148.959L359.598 149.294ZM356.958 148.829L355.829 148.63L355.702 148.277L356.021 148.161L356.086 148.329L357.032 148.496L356.973 148.831L356.958 148.829ZM379.345 152.242L379.085 152.023L379.943 150.996L380.203 151.215L379.345 152.242ZM355.232 147.016L354.777 145.757L355.097 145.641L355.552 146.899L355.232 147.016ZM381.061 150.187L380.8 149.968L381.658 148.941L381.919 149.16L381.061 150.187ZM354.323 144.498L353.868 143.239L354.188 143.123L354.642 144.382L354.323 144.498ZM382.792 148.135L382.531 147.916L383.389 146.889L383.649 147.108L382.792 148.135ZM353.413 141.981L352.959 140.722L353.278 140.605L353.733 141.864L353.413 141.981ZM384.522 146.083L384.262 145.864L385.12 144.837L385.38 145.056L384.522 146.083ZM352.504 139.463L352.049 138.204L352.369 138.088L352.824 139.347L352.504 139.463ZM386.238 144.028L385.978 143.81L386.835 142.782L387.096 143.001L386.238 144.028ZM351.579 136.943L351.125 135.684L351.444 135.568L351.899 136.826L351.579 136.943ZM387.954 141.974L387.693 141.755L388.551 140.728L388.811 140.946L387.954 141.974ZM350.67 134.425L350.216 133.167L350.535 133.05L350.99 134.309L350.67 134.425ZM389.684 139.922L389.424 139.703L390.282 138.676L390.542 138.894L389.684 139.922ZM349.761 131.908L349.306 130.649L349.626 130.532L350.08 131.791L349.761 131.908ZM391.4 137.867L391.139 137.648L391.997 136.621L392.258 136.84L391.4 137.867ZM348.836 129.388L348.382 128.129L348.701 128.012L349.156 129.271L348.836 129.388ZM393.115 135.812L392.855 135.593L393.713 134.566L393.973 134.785L393.115 135.812ZM347.912 126.867L347.798 126.533L348.555 125.629L348.815 125.848L348.179 126.6L348.231 126.751L347.912 126.867ZM393.244 133.478L392.789 132.219L393.109 132.102L393.563 133.361L393.244 133.478ZM349.658 124.818L349.397 124.599L350.255 123.572L350.516 123.791L349.658 124.818ZM392.334 130.96L391.88 129.701L392.199 129.585L392.654 130.844L392.334 130.96ZM351.389 122.766L351.128 122.547L351.986 121.52L352.246 121.739L351.389 122.766ZM391.425 128.443L390.97 127.184L391.29 127.067L391.745 128.326L391.425 128.443ZM353.104 120.711L352.844 120.492L353.701 119.465L353.962 119.684L353.104 120.711ZM390.501 125.922L390.046 124.664L390.365 124.547L390.82 125.806L390.501 125.922ZM354.82 118.656L354.559 118.438L355.417 117.41L355.677 117.629L354.82 118.656ZM389.576 123.402L389.121 122.143L389.441 122.027L389.896 123.286L389.576 123.402ZM356.535 116.602L356.275 116.383L357.133 115.356L357.393 115.574L356.535 116.602ZM388.667 120.885L388.212 119.626L388.532 119.509L388.986 120.768L388.667 120.885ZM358.266 114.55L358.006 114.331L358.863 113.304L359.124 113.522L358.266 114.55ZM387.757 118.367L387.303 117.108L387.622 116.992L388.077 118.25L387.757 118.367ZM359.981 112.495L359.721 112.276L360.579 111.249L360.839 111.468L359.981 112.495ZM386.833 115.847L386.378 114.588L386.698 114.471L387.152 115.73L386.833 115.847ZM361.697 110.44L361.437 110.222L362.294 109.194L362.555 109.413L361.697 110.44ZM385.923 113.329L385.764 112.893L384.544 112.677L384.603 112.342L386.022 112.592L386.243 113.213L385.923 113.329ZM383.216 112.443L381.903 112.212L381.963 111.876L383.275 112.108L383.216 112.443ZM380.576 111.978L379.263 111.746L379.322 111.411L380.635 111.642L380.576 111.978ZM377.936 111.512L376.623 111.281L376.682 110.945L377.995 111.177L377.936 111.512ZM375.296 111.047L373.983 110.815L374.042 110.48L375.355 110.711L375.296 111.047ZM372.655 110.581L371.343 110.35L371.402 110.014L372.715 110.246L372.655 110.581ZM370.015 110.116L368.703 109.884L368.762 109.549L370.074 109.78L370.015 110.116ZM367.375 109.65L366.063 109.419L366.122 109.083L367.434 109.315L367.375 109.65ZM364.735 109.184L363.423 108.953L363.482 108.618L364.794 108.849L364.735 109.184Z" fill="white"/>
<path d="M369.038 128.691C368.595 128.613 368.174 128.413 367.833 128.117C367.327 127.682 367.012 127.061 366.972 126.394C366.917 125.724 367.142 125.073 367.577 124.568C368.013 124.063 368.632 123.764 369.302 123.709C370.689 123.608 371.89 124.652 371.992 126.038C372.094 127.423 371.048 128.621 369.662 128.723C369.455 128.733 369.251 128.729 369.038 128.691ZM369.801 124.363C369.648 124.336 369.493 124.324 369.332 124.343C368.822 124.379 368.372 124.614 368.037 124.995C367.703 125.376 367.538 125.865 367.576 126.359C367.612 126.868 367.848 127.318 368.229 127.653C368.611 127.987 369.101 128.152 369.596 128.114C370.631 128.045 371.421 127.131 371.352 126.098C371.286 125.222 370.622 124.523 369.783 124.375L369.801 124.363ZM372.319 137.567C371.205 137.371 370.329 136.446 370.254 135.27C370.152 133.885 371.197 132.686 372.584 132.585C373.254 132.53 373.907 132.756 374.413 133.19C374.918 133.625 375.218 134.244 375.273 134.914C375.375 136.299 374.33 137.497 372.943 137.599C372.736 137.609 372.533 137.605 372.319 137.567ZM372.616 133.204C371.581 133.273 370.791 134.186 370.86 135.22C370.93 136.254 371.845 137.043 372.88 136.975C373.915 136.906 374.705 135.992 374.636 134.958C374.6 134.449 374.364 133.999 373.983 133.665C373.601 133.33 373.111 133.165 372.616 133.204ZM376.046 123.924L365.145 136.491C364.89 136.776 364.921 137.221 365.21 137.461C365.361 137.582 365.539 137.645 365.715 137.628C365.891 137.612 366.062 137.533 366.196 137.399L377.098 124.832C377.353 124.547 377.321 124.102 377.033 123.862C376.747 123.607 376.301 123.639 376.062 123.927L376.046 123.924Z" fill="white"/>
<path d="M370.131 119.188C363.788 119.641 359.01 125.147 359.466 131.482C359.923 137.817 365.438 142.593 371.78 142.139C378.123 141.686 382.902 136.18 382.445 129.845C381.989 123.51 376.474 118.735 370.131 119.188ZM371.691 141.039C365.97 141.445 360.974 137.122 360.565 131.409C360.156 125.695 364.482 120.706 370.202 120.301C375.923 119.895 380.92 124.218 381.328 129.931C381.737 135.645 377.411 140.634 371.691 141.039Z" fill="white"/>
<path d="M347.897 126.771L346.585 126.54L346.644 126.204L347.957 126.435L347.897 126.771ZM345.257 126.306L343.945 126.074L344.004 125.738L345.316 125.97L345.257 126.306ZM342.617 125.84L341.305 125.609L341.364 125.273L342.676 125.504L342.617 125.84ZM339.977 125.374L338.665 125.143L338.724 124.807L340.036 125.039L339.977 125.374ZM337.337 124.909L336.024 124.678L336.084 124.342L337.396 124.573L337.337 124.909ZM334.697 124.443L333.384 124.212L333.444 123.876L334.756 124.108L334.697 124.443ZM332.057 123.978L330.744 123.746L330.803 123.411L332.116 123.642L332.057 123.978ZM329.417 123.512L328.104 123.281L328.163 122.945L329.476 123.177L329.417 123.512ZM326.776 123.047L325.464 122.815L325.523 122.48L326.836 122.711L326.776 123.047ZM324.136 122.581L322.824 122.35L322.883 122.014L324.195 122.246L324.136 122.581ZM434.792 142.093L433.48 141.862L433.539 141.526L434.851 141.757L434.792 142.093ZM432.152 141.627L430.84 141.396L430.899 141.06L432.211 141.292L432.152 141.627ZM429.512 141.162L428.2 140.93L428.259 140.595L429.571 140.826L429.512 141.162ZM426.872 140.696L425.559 140.465L425.619 140.129L426.931 140.361L426.872 140.696ZM424.232 140.231L422.919 139.999L422.979 139.664L424.291 139.895L424.232 140.231ZM421.592 139.765L420.279 139.534L420.338 139.198L421.651 139.43L421.592 139.765ZM418.952 139.3L417.639 139.068L417.698 138.733L419.011 138.964L418.952 139.3ZM416.311 138.834L414.999 138.603L415.058 138.267L416.371 138.499L416.311 138.834ZM413.671 138.369L412.359 138.137L412.418 137.802L413.731 138.033L413.671 138.369ZM411.031 137.903L409.719 137.672L409.778 137.336L411.09 137.567L411.031 137.903ZM408.391 137.438L407.079 137.206L407.138 136.871L408.45 137.102L408.391 137.438ZM405.751 136.972L404.439 136.741L404.498 136.405L405.81 136.636L405.751 136.972ZM403.111 136.507L401.798 136.275L401.858 135.94L403.17 136.171L403.111 136.507ZM400.471 136.041L399.158 135.81L399.217 135.474L400.53 135.705L400.471 136.041ZM397.831 135.576L396.518 135.344L396.577 135.008L397.89 135.24L397.831 135.576ZM395.191 135.11L393.878 134.879L393.937 134.543L395.25 134.774L395.191 135.11Z" fill="white"/>
</g>
</g>
<defs>
<filter id="filter0_f_211_85" x="39.7236" y="88.5591" width="450.918" height="330.144" filterUnits="userSpaceOnUse" color-interpolation-filters="sRGB">
<feFlood flood-opacity="0" result="BackgroundImageFix"/>
<feBlend mode="normal" in="SourceGraphic" in2="BackgroundImageFix" result="shape"/>
<feGaussianBlur stdDeviation="42" result="effect1_foregroundBlur_211_85"/>
</filter>
<filter id="filter1_d_211_85" x="167.918" y="-162.466" width="484.243" height="408.196" filterUnits="userSpaceOnUse" color-interpolation-filters="sRGB">
<feFlood flood-opacity="0" result="BackgroundImageFix"/>
<feColorMatrix in="SourceAlpha" type="matrix" values="0 0 0 0 0 0 0 0 0 0 0 0 0 0 0 0 0 0 127 0" result="hardAlpha"/>
<feOffset dx="-15"/>
<feGaussianBlur stdDeviation="26.5"/>
<feColorMatrix type="matrix" values="0 0 0 0 0 0 0 0 0 0 0 0 0 0 0 0 0 0 0.7 0"/>
<feBlend mode="normal" in2="BackgroundImageFix" result="effect1_dropShadow_211_85"/>
<feBlend mode="normal" in="SourceGraphic" in2="effect1_dropShadow_211_85" result="shape"/>
</filter>
<filter id="filter2_d_211_85" x="273.041" y="-130.036" width="378.204" height="407.579" filterUnits="userSpaceOnUse" color-interpolation-filters="sRGB">
<feFlood flood-opacity="0" result="BackgroundImageFix"/>
<feColorMatrix in="SourceAlpha" type="matrix" values="0 0 0 0 0 0 0 0 0 0 0 0 0 0 0 0 0 0 127 0" result="hardAlpha"/>
<feOffset dx="-5"/>
<feGaussianBlur stdDeviation="11"/>
<feColorMatrix type="matrix" values="0 0 0 0 0 0 0 0 0 0 0 0 0 0 0 0 0 0 0.7 0"/>
<feBlend mode="normal" in2="BackgroundImageFix" result="effect1_dropShadow_211_85"/>
<feBlend mode="normal" in="SourceGraphic" in2="effect1_dropShadow_211_85" result="shape"/>
</filter>
<filter id="filter3_d_211_85" x="-41.6665" y="23.8682" width="440.196" height="472.11" filterUnits="userSpaceOnUse" color-interpolation-filters="sRGB">
<feFlood flood-opacity="0" result="BackgroundImageFix"/>
<feColorMatrix in="SourceAlpha" type="matrix" values="0 0 0 0 0 0 0 0 0 0 0 0 0 0 0 0 0 0 127 0" result="hardAlpha"/>
<feOffset dy="-15"/>
<feGaussianBlur stdDeviation="26.5"/>
<feColorMatrix type="matrix" values="0 0 0 0 0 0 0 0 0 0 0 0 0 0 0 0 0 0 0.7 0"/>
<feBlend mode="normal" in2="BackgroundImageFix" result="effect1_dropShadow_211_85"/>
<feBlend mode="normal" in="SourceGraphic" in2="effect1_dropShadow_211_85" result="shape"/>
</filter>
<filter id="filter4_d_211_85" x="-27.0999" y="123.634" width="422.229" height="346.189" filterUnits="userSpaceOnUse" color-interpolation-filters="sRGB">
<feFlood flood-opacity="0" result="BackgroundImageFix"/>
<feColorMatrix in="SourceAlpha" type="matrix" values="0 0 0 0 0 0 0 0 0 0 0 0 0 0 0 0 0 0 127 0" result="hardAlpha"/>
<feOffset dx="5"/>
<feGaussianBlur stdDeviation="11"/>
<feColorMatrix type="matrix" values="0 0 0 0 0 0 0 0 0 0 0 0 0 0 0 0 0 0 0.7 0"/>
<feBlend mode="normal" in2="BackgroundImageFix" result="effect1_dropShadow_211_85"/>
<feBlend mode="normal" in="SourceGraphic" in2="effect1_dropShadow_211_85" result="shape"/>
</filter>
<radialGradient id="paint0_radial_211_85" cx="0" cy="0" r="1" gradientUnits="userSpaceOnUse" gradientTransform="translate(244.691 152.195) rotate(10) scale(182.687 182.686)">
<stop stop-color="#00ABEC"/>
<stop offset="0.18" stop-color="#0084BF"/>
<stop offset="0.34" stop-color="#00639A"/>
<stop offset="0.51" stop-color="#004A7D"/>
<stop offset="0.67" stop-color="#003868"/>
<stop offset="0.84" stop-color="#002D5C"/>
<stop offset="0.99" stop-color="#002A58"/>
</radialGradient>
<linearGradient id="paint1_linear_211_85" x1="161.119" y1="129.59" x2="209.303" y2="106.089" gradientUnits="userSpaceOnUse">
<stop stop-color="#D1AA2B"/>
<stop offset="0.16" stop-color="#DBBA39"/>
<stop offset="0.47" stop-color="#F5E55F"/>
<stop offset="0.53" stop-color="#FAEE67"/>
<stop offset="0.58" stop-color="#F4E45E"/>
<stop offset="0.86" stop-color="#DABA39"/>
<stop offset="1" stop-color="#D1AA2B"/>
</linearGradient>
<linearGradient id="paint2_linear_211_85" x1="187.524" y1="44.7597" x2="199.839" y2="49.7298" gradientUnits="userSpaceOnUse">
<stop stop-color="#010101" stop-opacity="0"/>
<stop offset="1" stop-color="#F9A01B"/>
</linearGradient>
<linearGradient id="paint3_linear_211_85" x1="183.691" y1="52.573" x2="190.934" y2="45.7871" gradientUnits="userSpaceOnUse">
<stop stop-color="#F9A01B"/>
<stop offset="1" stop-color="#010101" stop-opacity="0"/>
</linearGradient>
<linearGradient id="paint4_linear_211_85" x1="191.029" y1="47.9958" x2="195.172" y2="57.5638" gradientUnits="userSpaceOnUse">
<stop stop-color="#010101"/>
<stop offset="1" stop-color="#010101" stop-opacity="0"/>
</linearGradient>
<clipPath id="clip0_211_85">
<rect width="478" height="381" fill="white" transform="translate(66.7109 0.39209) rotate(10)"/>
</clipPath>
</defs>
</svg>
